<svg xmlns="http://www.w3.org/2000/svg" version="1.1" width="512" height="512" x="0" y="0" viewBox="0 0 480.097 480.097"
     style="enable-background:new 0 0 512 512" xml:space="preserve">
    <g transform="matrix(1,0,0,1,0,0)">
        <path fill="#80aaff"
              d="M471.771 251.156c-.99 20.98-4.77 41.23-10.97 60.39-35.283 19.011-56.06 54.46-57.25 93.07-76.202 75.712-193.138 88.469-283.06 34.3-54.993-79.521-90.066-170.968-102.29-267.02 12.62-41.11 36.34-77.363 67.68-105.233 159.149-84.31 351.866 9.633 385.89 184.493z"
              opacity="1"/>
        <path fill="#9cbcff"
              d="M134.171 97.616c-32.621 26.373-57.748 61.366-72.18 101-8.93-9.31-22.74-18.36-43.79-26.72 12.62-41.11 36.34-77.363 67.68-105.233 7.09 23.65 25.2 30.763 48.29 30.953z"
              opacity="1"/>
        <path fill="#befa91"
              d="M393.801 288.786c16.13-8.2 41.8 1.12 67 22.76-11.5 35.56-31.36 67.35-57.25 93.07-42.68-18.74-21.02-40.99-20.97-59.7.05-21.4-15.33-42.63 11.22-56.13zM103.741 362.856c4.11 26.72 29.31 35.09 16.75 76.06-92.284-55.584-133.259-166.056-102.29-267.02 101.51 40.33 34.76 96.49 62.83 122.31 8.2 7.54 15.58 2.8 21.68 10.84 10.24 13.5-3.28 29.83 1.03 57.81z"
              opacity="1"/>
        <path fill="#daffbf"
              d="M101.411 426.096c-80.406-60.007-111.37-162.392-83.21-254.2 21.05 8.36 34.86 17.41 43.79 26.72-11.379 31.128-16.314 66.107-12.91 101.61v.02c4.52 47.61 23.42 91.02 52.33 125.85z"
              opacity="1"/>
        <path fill="#befa91"
              d="M471.771 251.156c-147.5 25.23-52.72-100.85-83.13-123.14-19.55-14.34-66.01 25.5-82.58 9.29-8.08-7.91-.51-27.36-14.45-39.36-52.94-45.58-183.49 42.877-205.73-31.283 40.99-36.46 94.98-58.617 154.15-58.617 131.479 0 237.911 109.53 231.74 243.11z"
              opacity="1"/>
        <path fill="#daffbf"
              d="M418.651 91.996c-84.413-62.993-201.675-61.376-284.48 5.62-23.09-.19-41.2-7.303-48.29-30.953 97.907-87.087 248.797-75.89 332.77 25.333z"
              opacity="1"/>
        <path fill="#eef7ff"
              d="M244.491 341.856c-7.43-5.946-29.698-22.532-29.8-22.43a232.603 232.603 0 0 0-25.48 43.58c-6.01 13.43-25.48 10.14-25.92-4.06-.81-26.34 1.45-52.23 6.29-77.26-1.99-1.9-4-3.88-6.04-5.92-35.53-35.52 7.35-78.4 42.88-42.88 2.04 2.04 4.01 4.06 5.92 6.04 25.02-4.84 50.91-7.09 77.25-6.28 14.2.43 17.49 19.91 4.06 25.92a232.603 232.603 0 0 0-43.58 25.48c7.75 10.39 14.76 20.2 22.43 29.8 10.73-2.51 21.71-3.74 32.73-3.67 10.42.06 13.32 14.38 3.85 18.5l-18.13 7.9c5.94 14.14-9.58 29.67-23.73 23.73l-7.9 18.13c-4.12 9.47-18.44 6.56-18.5-3.86-.06-11.01 1.17-21.99 3.67-32.72z"
              opacity="1"/>
        <path fill="#ffffff"
              d="M198.18 295.279c-7.802 44.473-1.366 50.698-8.968 67.727-6.01 13.43-25.48 10.14-25.92-4.06-.81-26.34 1.45-52.23 6.29-77.26-1.99-1.9-4-3.88-6.04-5.92-11.996-11.992-15.055-24.823-12.475-35.192 4.734-19.033 32.989-12.429 29.719 6.91-4.178 24.695 20.061 32.588 17.394 47.795z"
              opacity="1"/>
        <path d="M409.736 70.34C332.452-6.946 217.688-19.361 128.6 27.365 37.146-26.665 2.379 8.558 47.243 91.681c24.666 45.699 66.592 96.539 101.537 135.007-9.832 14.025-9.854 35.785 9.101 54.739a411.056 411.056 0 0 0 3.044 3.014c-4.496 24.822-6.389 49.946-5.628 74.747.692 22.588 31.701 28.362 41.221 7.082a225.492 225.492 0 0 1 19.968-35.59c6.469 4.776 12.919 9.515 19.141 14.362a148.606 148.606 0 0 0-2.805 29.585c.112 19.212 26.329 24.241 33.837 7l5.271-12.106c15.565 1.048 29.278-12.679 28.239-28.239l12.106-5.272c17.316-7.541 12.131-33.727-7-33.837a148.02 148.02 0 0 0-29.576 2.803c-4.656-5.985-9.485-12.545-14.352-19.152a225.438 225.438 0 0 1 35.57-19.955c21.301-9.531 15.489-40.528-7.083-41.22-24.803-.76-49.931 1.132-74.746 5.626a480.107 480.107 0 0 0-3.015-3.045c-17.49-17.489-37.369-18.819-51.356-11.196-40.49-44.56-72.135-85.568-92.46-119.753A227.678 227.678 0 0 1 82.96 80.333c34.871 62.89 156.769-16.501 203.43 23.677 11.012 9.483 2.993 28.166 14.076 39.01 21.546 21.086 68.675-19.39 83.445-8.557 20.11 14.744-61.213 144.98 79.167 126.109a222.654 222.654 0 0 1-6.625 37.272c-25.235-18.652-49.48-24.731-66.276-16.19-24.6 12.509-20.794 31.768-17.735 47.242 5.754 29.123-4.762 29.311-3.306 48.739.79 10.555 16.746 9.365 15.955-1.195-1.232-16.465 9.929-15.821 3.047-50.646-3.133-15.849-3.959-23.14 9.291-29.878 11.781-5.99 32.625 1.15 53.986 18.232-13.534 38.494-37.296 72.209-68.018 97.864-16.893-10.138-36.918-23.941-60.457-42.46a7.998 7.998 0 0 0-11.233 1.341 8 8 0 0 0 1.341 11.234c20.486 16.117 39.472 29.577 56.843 40.333-36.655 26.17-81.491 41.584-129.861 41.584-145.863 0-254.215-138.447-216.58-281.255 51.249 22.924 47.469 48.693 43.805 73.653-2.287 15.577-4.652 31.685 8.358 43.652 9.577 8.809 17.47 5.5 20.72 9.785 6.956 9.172-4.788 26.339-.501 54.189C98.15 379.13 106.18 388.989 111.2 399.1c4.68 9.417 19.044 2.375 14.33-7.118-5.364-10.794-12.105-18.793-13.884-30.348-4.139-26.884 10.543-44.14-2.565-61.424-8.104-10.686-16.957-6.667-22.636-11.892-20.856-19.184 36.969-79.287-58.327-120.949a222.06 222.06 0 0 1 17.189-38.129 8 8 0 1 0-13.898-7.927c-52.061 91.288-39.621 209.9 38.915 288.437 86.899 86.9 221.794 92.276 314.664 21.602 85.235 47.45 122.175 13.542 67.551-79.555 47.432-89.923 33.93-204.724-42.803-281.457zM200.76 238.545a422.968 422.968 0 0 1 5.812 5.927 7.999 7.999 0 0 0 7.288 2.312c25.038-4.843 50.436-6.91 75.485-6.142 5.771.177 6.66 8.107 1.038 10.623a241.183 241.183 0 0 0-45.074 26.354 8 8 0 0 0-1.649 11.207c7.772 10.429 14.784 20.239 22.597 30.015a8 8 0 0 0 8.068 2.796 132.032 132.032 0 0 1 30.858-3.464c1.814.011 2.272 2.485.704 3.168l-18.132 7.896a8 8 0 0 0-4.182 10.432c3.168 7.543-5.712 16.426-13.254 13.256a8.002 8.002 0 0 0-10.435 4.181l-7.896 18.132c-.679 1.568-3.159 1.109-3.167-.706-.061-10.287.911-20.624 3.404-30.603.747-2.99-.169-6.277-2.729-8.325-9.782-7.827-19.596-14.854-30.007-22.615-3.508-2.617-8.56-1.92-11.224 1.67a241.214 241.214 0 0 0-26.354 45.075c-2.501 5.593-10.445 4.753-10.623-1.038-.768-25.043 1.299-50.44 6.144-75.487a7.997 7.997 0 0 0-2.313-7.289 410.694 410.694 0 0 1-5.925-5.808c-27.989-27.987 3.582-59.552 31.566-31.567zM59.921 81.443C23.835 12.862 48.35.998 112.523 36.597 93.14 48.775 75.42 63.826 59.921 81.443zm342.034 154.776c-24.748-25.294 19.295-94.218-8.58-114.657-23.371-17.135-70.949 20.558-81.717 10.024-8.331-8.154 18.714-73.626-124.664-48.379-49.12 8.65-80.568 12.042-91.738-14.142 40.033-34.014 90.963-53.02 144.775-53.02 124.65 0 226.311 102.527 223.946 228.25-31.393 4.631-52.243 1.92-62.022-8.076zm-3.654 184.238c17.757-15.621 32.768-33.291 44.966-52.605 35.807 65.02 22.997 88.672-44.966 52.605z"
                fill="#000000" opacity="1"/>
    </g>
</svg>