<svg xmlns="http://www.w3.org/2000/svg" version="1.1" width="512" height="512" x="0" y="0" viewBox="0 0 34 34" style="enable-background:new 0 0 512 512" xml:space="preserve">
    <g>
        <path fill="#c8c6cd" d="M18.8 29.5 14.2 9.1 6.1 19.6l-1.6-1.3L15.2 4.5l4.6 20.4 8.1-10.5 1.6 1.3z" opacity="1"/>
        <circle cx="14.7" cy="6.8" r="4.3" fill="#ffc918" transform="rotate(-12.31 14.641 6.802)" opacity="1"/>
        <circle cx="5.3" cy="18.9" r="4.3" fill="#ef3655" transform="rotate(-12.31 5.283 18.904)" opacity="1"/>
        <circle cx="28.7" cy="15.1" r="4.3" fill="#a5c3d1" transform="rotate(-12.31 28.612 15.029)" opacity="1"/>
        <circle cx="19.3" cy="27.2" r="4.3" fill="#76c586" transform="rotate(-12.31 19.258 27.131)" opacity="1"/>
        <path fill="#02020210"
              d="M18.6 5c-.8-.4-1.8-.5-2.7-.3-2.3.5-3.8 2.8-3.3 5.1l.3.9c-1.2-.6-2.1-1.6-2.4-3-.5-2.3 1-4.6 3.3-5.1 2-.4 3.9.6 4.8 2.4zM9.2 17.1c-.8-.4-1.8-.5-2.7-.3-2.3.5-3.8 2.8-3.3 5.1l.3.9c-1.2-.6-2.1-1.6-2.4-3-.5-2.3 1-4.6 3.3-5.1 2-.4 4 .6 4.8 2.4zM23.2 25.4c-.8-.4-1.8-.5-2.7-.3-2.3.5-3.8 2.8-3.3 5.1l.3.9c-1.2-.6-2.1-1.6-2.4-3-.5-2.3 1-4.6 3.3-5.1 2-.4 4 .6 4.8 2.4zM32.6 13.2c-.8-.4-1.8-.5-2.7-.3-2.3.5-3.8 2.8-3.3 5.1l.3.9c-1.2-.6-2.1-1.6-2.4-3-.5-2.3 1-4.6 3.3-5.1 2-.4 4 .6 4.8 2.4z"
              opacity="1"/>
        <path fill="#c8c6cd"
              d="M14.7 12.1c-2.5 0-4.7-1.8-5.2-4.2-.6-2.9 1.2-5.7 4.1-6.3.4-.1.8-.1 1.1-.1 2.5 0 4.7 1.8 5.2 4.2.3 1.4 0 2.8-.7 4s-2 2-3.3 2.3c-.5.1-.8.1-1.2.1zm0-8.6c-.2 0-.5 0-.7.1-1.8.4-2.9 2.2-2.5 3.9s2.2 2.9 3.9 2.5c.9-.2 1.6-.7 2.1-1.4s.6-1.6.4-2.5c-.3-1.5-1.7-2.6-3.2-2.6zM5.3 24.3c-2.5 0-4.7-1.8-5.2-4.2-.6-2.9 1.2-5.7 4.1-6.3.4-.1.8-.1 1.1-.1 2.5 0 4.7 1.8 5.2 4.2.3 1.4 0 2.8-.7 4s-2 2-3.3 2.3c-.4 0-.8.1-1.2.1zm0-8.7c-.2 0-.5 0-.7.1-1.8.4-2.9 2.2-2.5 3.9s2.2 2.9 3.9 2.5c.9-.2 1.6-.7 2.1-1.4s.6-1.6.4-2.5c-.3-1.5-1.6-2.6-3.2-2.6zM28.7 20.4c-2.5 0-4.7-1.8-5.2-4.2-.3-1.4 0-2.8.7-4 .8-1.2 2-2 3.3-2.3.4-.1.8-.1 1.1-.1 2.5 0 4.7 1.8 5.2 4.2.3 1.4 0 2.8-.7 4s-2 2-3.3 2.3c-.4 0-.7.1-1.1.1zm0-8.7c-.2 0-.5 0-.7.1-.9.2-1.6.7-2.1 1.4s-.6 1.6-.4 2.5c.4 1.7 2.2 2.9 3.9 2.5.9-.2 1.6-.7 2.1-1.4s.6-1.6.4-2.5c-.3-1.5-1.7-2.6-3.2-2.6zM19.3 32.5c-2.5 0-4.7-1.8-5.2-4.2-.6-2.9 1.2-5.7 4.1-6.3.4-.1.8-.1 1.1-.1 2.5 0 4.7 1.8 5.2 4.2.3 1.4 0 2.8-.7 4s-2 2-3.3 2.3c-.4.1-.8.1-1.2.1zm0-8.6c-.2 0-.5 0-.7.1-1.8.4-2.9 2.2-2.5 3.9s2.2 2.9 3.9 2.5c.9-.2 1.6-.7 2.1-1.4s.6-1.6.4-2.5c-.3-1.5-1.6-2.6-3.2-2.6z"
              opacity="1"/>
<!--        #e1e1e4-->
<!--        #c8c6cd-->

    </g>
</svg>