<svg class="icon" viewBox="0 0 1024 1024" version="1.1" xmlns="http://www.w3.org/2000/svg"><path d="M638.97 319.94H538.16c-1.54 0-2.8-1.26-2.8-2.8v-39.41c0-1.54 1.26-2.8 2.8-2.8h100.81c1.54 0 2.8 1.26 2.8 2.8v39.41c0.01 1.54-1.26 2.8-2.8 2.8z" fill="#FFD60D"></path><path d="M619.27 274.93c12.38 0 22.5 10.13 22.5 22.5 0 12.38-10.13 22.5-22.5 22.5h-61.41c-12.38 0-22.5-10.13-22.5-22.5 0-12.38 10.13-22.5 22.5-22.5h61.41m0-24.1h-61.41c-25.7 0-46.6 20.91-46.6 46.6 0 25.7 20.91 46.6 46.6 46.6h61.41c25.7 0 46.6-20.91 46.6-46.6 0.01-25.7-20.9-46.6-46.6-46.6z" fill="#480662"></path><path d="M683.63 403.47H582.82c-1.54 0-2.8-1.26-2.8-2.8v-39.41c0-1.54 1.26-2.8 2.8-2.8h100.81c1.54 0 2.8 1.26 2.8 2.8v39.41c0 1.54-1.26 2.8-2.8 2.8z" fill="#FFD60D"></path><path d="M663.93 358.46c12.38 0 22.5 10.13 22.5 22.5 0 12.38-10.13 22.5-22.5 22.5h-61.41c-12.38 0-22.5-10.13-22.5-22.5 0-12.38 10.13-22.5 22.5-22.5h61.41m0-24.1h-61.41c-25.7 0-46.6 20.91-46.6 46.6 0 25.7 20.91 46.6 46.6 46.6h61.41c25.7 0 46.6-20.91 46.6-46.6 0-25.7-20.9-46.6-46.6-46.6z" fill="#480662"></path><path d="M664.4 471.67H501.24l-81.58-224.23h108.07z" fill="#FF8681"></path><path d="M527.73 247.44L664.4 471.67H501.24l-81.58-224.23h108.07m0-24.1H419.66c-7.86 0-15.23 3.84-19.74 10.28a24.09 24.09 0 0 0-2.91 22.06l81.58 224.23a24.094 24.094 0 0 0 22.65 15.86H664.4c8.71 0 16.75-4.7 21.01-12.3 4.27-7.6 4.1-16.9-0.43-24.34L548.31 234.9a24.113 24.113 0 0 0-20.58-11.56z" fill="#480662"></path><path d="M419.66 247.44l81.58 224.23h43.94l-89.47-224.23z" fill="#E66863"></path><path d="M778.68 448.51H324.84l-19.27-70.97c-0.75-2.76-1.07-5.61-1.31-8.46-2.23-26.47-25.23-38.13-53.27-38.13H188.4c-19.03 0-34.46 15.43-34.46 34.46v175.47c0 36.36 29.75 66.11 66.11 66.11h639.98c36.36 0 66.11-13.22 66.11-49.58-0.01-59.89-87.57-108.9-147.46-108.9z" fill="#F2EFE7"></path><path d="M250.99 330.95c28.04 0 51.04 11.65 53.27 38.13 0.24 2.85 0.56 5.7 1.31 8.46l19.27 70.97h453.84c59.89 0 147.45 49 147.45 108.89 0 36.36-29.75 49.58-66.11 49.58H220.05c-36.36 0-66.11-29.75-66.11-66.11V365.41c0-19.03 15.43-34.46 34.46-34.46h62.59m0-24.1H188.4c-32.29 0-58.56 26.27-58.56 58.56v175.47c0 49.74 40.47 90.21 90.21 90.21h639.98c55.64 0 90.21-28.23 90.21-73.68 0-77.15-102.47-132.99-171.55-132.99H343.27l-14.44-53.19c-0.29-1.06-0.47-3.24-0.55-4.17-3.08-36.57-33.42-60.21-77.29-60.21z" fill="#480662"></path><path d="M220.05 606.99h639.98c36.36 0 66.11-13.22 66.11-49.58 0-0.69-0.07-1.38-0.09-2.07H155.6c6.64 29.46 33.06 51.65 64.45 51.65z" fill="#D8D7D6"></path><path d="M859.51 471.25h-47.06c-14.7 0-26.72 12.03-26.72 26.72 0 14.7 12.03 26.72 26.72 26.72h104.97c-11.47-21.4-33.12-39.98-57.91-53.44z" fill="#7CCCF6"></path><path d="M859.51 471.25c24.79 13.46 46.44 32.04 57.91 53.45H812.44c-14.7 0-26.72-12.03-26.72-26.72 0-14.7 12.03-26.72 26.72-26.72h47.07m0-22.98h-47.06c-27.4 0-49.7 22.29-49.7 49.7 0 27.4 22.29 49.7 49.7 49.7h104.97c8.08 0 15.56-4.24 19.71-11.17s4.35-15.53 0.54-22.65c-12.82-23.92-36.68-46.22-67.2-62.79a22.835 22.835 0 0 0-10.96-2.79z" fill="#480662"></path><path d="M228.48 403.47H154.8l-53.36 68.2h48.8z" fill="#FF8681"></path><path d="M228.48 403.47h0.04m-0.04 0l-78.24 68.2h-48.8l53.37-68.2h73.67m0.04-24.1H154.8a24.1 24.1 0 0 0-18.98 9.25l-53.37 68.2a24.097 24.097 0 0 0-2.68 25.41 24.093 24.093 0 0 0 21.66 13.54h48.8c5.82 0 11.45-2.11 15.84-5.93l77.84-67.85c5.31-4.42 8.68-11.07 8.68-18.52 0.01-13.31-10.76-24.1-24.07-24.1z m-0.04 48.2h0.04-0.04z" fill="#480662"></path><path d="M633.88 698.87H533.07c-1.54 0-2.8 1.26-2.8 2.8v39.41c0 1.54 1.26 2.8 2.8 2.8h100.81c1.54 0 2.8-1.26 2.8-2.8v-39.41c0-1.54-1.26-2.8-2.8-2.8z" fill="#FFD60D"></path><path d="M614.18 698.87c12.38 0 22.5 10.13 22.5 22.5 0 12.38-10.13 22.5-22.5 22.5h-61.41c-12.38 0-22.5-10.13-22.5-22.5 0-12.38 10.13-22.5 22.5-22.5h61.41m0-24.1h-61.41c-25.7 0-46.6 20.91-46.6 46.6 0 25.7 20.91 46.6 46.6 46.6h61.41c25.7 0 46.6-20.91 46.6-46.6 0-25.7-20.9-46.6-46.6-46.6z" fill="#480662"></path><path d="M678.54 615.34H577.73c-1.54 0-2.8 1.26-2.8 2.8v39.41c0 1.54 1.26 2.8 2.8 2.8h100.81c1.54 0 2.8-1.26 2.8-2.8v-39.41c0-1.54-1.26-2.8-2.8-2.8z" fill="#FFD60D"></path><path d="M658.83 615.34c12.38 0 22.5 10.13 22.5 22.5 0 12.38-10.13 22.5-22.5 22.5h-61.41c-12.38 0-22.5-10.13-22.5-22.5 0-12.38 10.13-22.5 22.5-22.5h61.41m0-24.1h-61.41c-25.7 0-46.6 20.91-46.6 46.6 0 25.7 20.91 46.6 46.6 46.6h61.41c25.7 0 46.6-20.91 46.6-46.6 0.01-25.7-20.9-46.6-46.6-46.6z" fill="#480662"></path><path d="M659.3 547.13H496.15l-81.58 224.23h108.06z" fill="#FF8681"></path><path d="M659.3 547.13h0.04m-0.04 0L522.63 771.36H414.57l81.58-224.23H659.3m0.04-24.1H496.15c-10.13 0-19.18 6.34-22.65 15.86l-81.58 224.23a24.087 24.087 0 0 0 2.91 22.06 24.107 24.107 0 0 0 19.74 10.28h108.07a24.1 24.1 0 0 0 20.58-11.56l136.24-223.52c2.51-3.8 3.97-8.36 3.97-13.25-0.01-13.31-10.78-24.1-24.09-24.1z m-0.04 48.2h0.04-0.04z" fill="#480662"></path><path d="M414.57 771.36l81.57-224.23h43.94l-89.47 224.23z" fill="#E66863"></path></svg>