<svg class="icon" viewBox="0 0 1066 1024" version="1.1" xmlns="http://www.w3.org/2000/svg">
<path d="M398.548676 467.157297l-216.524298-293.623086A80.2816 80.2816 0 0 1 206.493469 56.359652L285.050056 11.004985a80.2816 80.2816 0 0 1 91.190748 7.555544l330.939217 272.625403-65.277346 35.382187L332.497027 71.681551a11.4688 11.4688 0 0 0-13.028915-1.079809l-78.556587 45.354666a11.4688 11.4688 0 0 0-3.498751 16.741052l220.003201 298.334589-58.871565 36.117858z m403.668045-18.991771l72.412273 433.611603a80.2816 80.2816 0 0 1-39.052082 82.751276l-78.556587 45.354667a80.2816 80.2816 0 0 1-113.71808-37.392159L493.024431 628.421838l60.503106-33.394347 152.838837 349.92143a11.4688 11.4688 0 0 0 16.240161 5.344785L801.170512 904.934773c4.138447-2.389333 6.370859-7.107216 5.579315-11.823277L738.835061 486.40447l63.37427-38.234677z" fill="#059EFF"></path>
<path d="M334.190322 506.640023l-80.814457 49.584721-135.602974-36.334707a34.4064 34.4064 0 0 0-35.4121 55.178578 16268.373333 16268.373333 0 0 1 58.598615 71.117112 87.790933 87.790933 0 0 0 5.800449 75.872804c13.802667 23.90692 37.273313 38.822738 62.670405 42.58566 8.416329 22.25751 19.100447 50.832277 32.422798 86.673133a34.4064 34.4064 0 0 0 65.487833-3.085879l36.887552-137.666219 83.612367-46.155132-54.028863 201.638463c-14.747631 55.062221-71.34828 87.740621-126.414768 72.9856a103.2192 103.2192 0 0 1-70.045608-63.739619c-31.419436-84.542726-51.844918-137.960165-53.150518-140.221531-1.301333-2.253975-37.349452-46.651681-94.855882-116.133073-36.344476-43.921146-30.206256-108.980104 13.710623-145.331971a103.2192 103.2192 0 0 1 92.526819-20.184715l198.607709 53.216775z" fill="#E5CC93"></path><path d="M1040.689642 205.938074c39.982933 69.252472 17.169727 157.772973-51.292575 199.073322l-341.728835 206.145628c-1.715336 1.039617-3.452006 2.042284-5.202619 3.003733l-349.384378 192.868772c-70.013082 38.648452-158.065908 14.136484-198.048841-55.115988-40.008533-69.296812-17.544723-157.842219 50.651595-199.688597l340.783205-209.097641a156.4416 156.4416 0 0 1 7.271842-4.1984l348.67661-188.991729C912.759242 111.827055 1000.670595 136.657185 1040.679128 205.953998z m-51.730584 29.866667a87.953067 87.953067 0 0 0-118.082004-33.345363l-348.67661 188.991729c-1.518397 0.817526-3.018584 1.683659-4.493171 2.594133l-340.787472 209.090251a87.936 87.936 0 0 0-30.164213 118.91565 87.04 87.04 0 0 0 117.457785 32.690851l349.387502-192.880429c1.084362-0.596496 2.155924-1.215163 3.214686-1.856l341.721445-206.141361A87.04 87.04 0 0 0 988.959058 235.804741z" fill="#059EFF"></path>
<path d="M895.629694 289.688474m-22.9376-39.729088a45.8752 45.8752 0 1 0 45.8752 79.458177 45.8752 45.8752 0 1 0-45.8752-79.458177Z" fill="#F9BCD9"></path>
</svg>