<svg xmlns="http://www.w3.org/2000/svg" color-interpolation-filters="sRGB" style="margin:auto" version="1.0" viewBox="0 0 340 250">
  <g fill="#fa3913" class="icon-text-wrapper icon-svg-group iconsvg">
    <g class="iconsvg-imagesvg" transform="translate(78.19999695 33.19999695)">
      <path fill="none" d="M0 0h183.6v183.6H0z" class="image-rect"/>
      <svg width="183.6" height="183.6" class="image-svg-svg primary" filter="url(#a)" style="overflow:visible">
        <svg xmlns="http://www.w3.org/2000/svg" viewBox="1.99991918 1.99991906 92.00016022 92.00016022">
          <g data-name="bagua mirror">
            <path d="M89.31 24.26 71.74 6.69A15.86 15.86 0 0 0 60.43 2H35.57a15.86 15.86 0 0 0-11.31 4.69L6.69 24.26A15.86 15.86 0 0 0 2 35.57v24.86a15.86 15.86 0 0 0 4.69 11.31l17.57 17.57A15.86 15.86 0 0 0 35.57 94h24.86a15.86 15.86 0 0 0 11.31-4.69l17.57-17.57A15.86 15.86 0 0 0 94 60.43V35.57a15.86 15.86 0 0 0-4.69-11.31ZM6 60.43V35.57a12.07 12.07 0 0 1 .26-2.48L12 35.44V60.56l-5.74 2.35A12.07 12.07 0 0 1 6 60.43Zm10-23.36 11 4.49a22.08 22.08 0 0 0 0 12.88l-11 4.49ZM48 66h-.63A8 8 0 0 1 48 50a12 12 0 0 0 12-12 11.75 11.75 0 0 0-.7-4A18 18 0 0 1 48 66ZM30 48a18 18 0 0 1 18-18h.63A8 8 0 0 1 48 46a12 12 0 0 0-12 12 11.75 11.75 0 0 0 .7 4A18 18 0 0 1 30 48Zm28.14-19.51 4.53-11.08 15.92 15.92-11.08 4.53a22.18 22.18 0 0 0-9.37-9.37ZM54.44 27a22.08 22.08 0 0 0-12.88 0l-4.49-11h21.86Zm-16.58 1.49a22.18 22.18 0 0 0-9.37 9.37l-11.08-4.53 15.92-15.92Zm-9.37 29.65a22.18 22.18 0 0 0 9.37 9.37l-4.53 11.08-15.92-15.92ZM41.56 69a22.08 22.08 0 0 0 12.88 0l4.49 11H37.07Zm16.58-1.53a22.18 22.18 0 0 0 9.37-9.37l11.08 4.53-15.92 15.96ZM69 54.44a22.08 22.08 0 0 0 0-12.88l11-4.49v21.86Zm15-19 5.75-2.35a12.07 12.07 0 0 1 .25 2.48v24.86a12.07 12.07 0 0 1-.26 2.48L84 60.56V35.44Zm2.5-8.35a11.73 11.73 0 0 1 1.77 2.28l-5.69 2.33c-.11-.13-.22-.25-.34-.37L64.67 13.76l-.37-.34 2.33-5.68a11.73 11.73 0 0 1 2.28 1.77ZM60.43 6a12.07 12.07 0 0 1 2.48.26L60.56 12H35.44l-2.35-5.74A12.07 12.07 0 0 1 35.57 6ZM27.09 9.52a11.4 11.4 0 0 1 2.28-1.78l2.33 5.68-.37.34-17.57 17.57c-.12.12-.23.24-.34.37l-5.68-2.33a11.73 11.73 0 0 1 1.77-2.28ZM9.51 68.91a11.73 11.73 0 0 1-1.77-2.28l5.68-2.33c.11.13.22.25.34.37l17.57 17.57.37.34-2.33 5.68a11.73 11.73 0 0 1-2.28-1.77ZM35.57 90a12.07 12.07 0 0 1-2.48-.26L35.44 84h25.12l2.35 5.75a12.07 12.07 0 0 1-2.48.26Zm33.34-3.52a11.4 11.4 0 0 1-2.28 1.78l-2.33-5.68.37-.34 17.57-17.57c.12-.12.23-.24.34-.37l5.68 2.33a11.73 11.73 0 0 1-1.77 2.28Z"/>
            <circle cx="48" cy="58" r="3"/>
            <circle cx="48" cy="38" r="3"/>
          </g>
        </svg>
      </svg>
      <defs>
        <filter id="a">
          <feColorMatrix class="icon-fecolormatrix" values="0 0 0 0 0.19921875 0 0 0 0 0.19921875 0 0 0 0 0.19921875 0 0 0 1 0"/>
        </filter>
      </defs>
    </g>
  </g>
</svg>
