<svg xmlns="http://www.w3.org/2000/svg" color-interpolation-filters="sRGB" style="margin:auto" version="1.0" viewBox="0 0 340 250">
  <g fill="#343c3e" class="icon-text-wrapper icon-svg-group iconsvg">
    <g class="iconsvg-imagesvg" transform="translate(140 99.35195923)">
      <path fill="none" d="M0 0h60v51.29608098H0z" class="image-rect"/>
      <svg width="60" height="51.29608098" class="image-svg-svg primary" filter="url(#a)" style="overflow:visible">
        <svg xmlns="http://www.w3.org/2000/svg" xmlns:xlink="http://www.w3.org/1999/xlink" xml:space="preserve" enable-background="new 0 0 100 100" viewBox="7.91446209 14.03500652 84.17627716 71.96499634">
          <path d="M11.2012 39.942c-.536 2.544.133 5.611 2.039 8.137 2.95 3.908 7.699 5.019 10.606 2.482 2.908-2.537 2.874-7.762-.076-11.67-2.287-3.03-5.647-4.352-8.401-3.622-.911-1.677-1.682-3.826-1.394-5.845.753-5.272 7.515-6.725 11.818-6.431.019.001.038.003.058.004 3.529.278 6.079 3.493 6.203 7.03.206 5.864 1.502 15.414 6.193 22.386 1.673 2.484 2.777 4.125 2.757 9.577V83c0 1.657 1.343 3 3 3s3-1.343 3-3V62c.026-7.283-1.907-10.157-3.779-12.938-2.235-3.321-4.767-1.088-5.168-15.998-.07-2.509 1.426-6.642 3.57-5.698 4.807 2.116 11.943 2.075 16.767-.002 2.137-.92 3.627 3.197 3.557 5.701-.401 14.909-2.933 12.677-5.168 15.998-1.872 2.78-3.806 5.654-3.779 12.948V83c0 1.657 1.343 3 3 3s3-1.343 3-3V62c-.02-5.462 1.084-7.103 2.757-9.587 4.692-6.973 5.988-16.522 6.193-22.386.124-3.537 2.674-6.753 6.203-7.03.019-.002.038-.003.058-.004 4.304-.295 11.065 1.159 11.818 6.431.288 2.019-.483 4.168-1.394 5.845-2.754-.73-6.114.592-8.401 3.622-2.95 3.908-2.984 9.133-.076 11.67 2.908 2.537 7.656 1.426 10.606-2.482 1.907-2.526 2.576-5.592 2.039-8.137 2.003-2.918 3.761-7.188 3.166-11.365-1.245-8.736-10.263-12.123-18.182-11.569-2.808.198-5.603 1.367-8.228 2.71-1.275-1.723-2.985-3.113-5.041-3.917-6.029-2.355-15.012-2.354-21.041-.001-2.057.804-3.766 2.195-5.041 3.918-2.624-1.343-5.42-2.512-8.228-2.71-7.919-.554-16.937 2.833-18.182 11.569-.59 4.177 1.168 8.446 3.171 11.365z"/>
        </svg>
      </svg>
      <defs>
        <filter id="a">
          <feColorMatrix class="icon-fecolormatrix" values="0 0 0 0 0 0 0 0 0 0 0 0 0 0 0 0 0 0 1 0"/>
        </filter>
      </defs>
    </g>
  </g>
</svg>
