<svg xmlns="http://www.w3.org/2000/svg" color-interpolation-filters="sRGB" style="margin:auto" version="1.0" viewBox="0 0 340 250">
  <g fill="#343c3e" class="icon-text-wrapper icon-svg-group iconsvg">
    <g class="iconsvg-imagesvg" transform="translate(140 92.16610718)">
      <path fill="none" d="M0 0h60v65.66778667H0z" class="image-rect"/>
      <svg width="60" height="65.66778667" class="image-svg-svg primary" filter="url(#a)" style="overflow:visible">
        <svg xmlns="http://www.w3.org/2000/svg" xmlns:xlink="http://www.w3.org/1999/xlink" xml:space="preserve" viewBox="6.69375658 2.79241061 79.40624237 86.90758514">
          <path d="M20.3 89.7c-.8 0-1.6-.5-2-1.2-1.4-2.7-2.7-5.6-3.9-8.5-3-7.1-5.1-13.5-6.3-19.7-1-4.7-1.4-9-1.4-13.1-.1-5.8 1-11.9 3.4-19.1 2.4-7.2 4-14.5 4.7-21.5V6c0-.4.1-.8.1-1.2.1-1.2 1.3-2.1 2.5-2 1.2.1 2.1 1.3 2 2.5 0 .4-.1.8-.1 1.1l-.1.7c-.8 7.4-2.4 14.9-4.9 22.5-2.2 6.7-3.2 12.3-3.1 17.7 0 3.8.4 7.8 1.3 12.2 1.2 5.8 3.2 12 6 18.8 1.2 2.8 2.5 5.6 3.8 8.2.6 1.1.1 2.5-1 3.1-.3.1-.7.1-1 .1zM72.4 89.7c-.3 0-.7-.1-1-.2-1.1-.6-1.6-1.9-1-3.1 1.3-2.6 2.6-5.4 3.8-8.2 2.9-6.8 4.9-12.9 6-18.8.9-4.4 1.3-8.4 1.3-12.1.1-5.4-.9-11-3.1-17.7-2.5-7.6-4.1-15.1-4.9-22.5l-.1-.7c0-.4-.1-.7-.1-1.1-.1-1.2.8-2.4 2-2.5 1.3-.1 2.4.8 2.5 2 0 .4.1.8.1 1.1l.1.7c.7 7.1 2.3 14.3 4.7 21.5 2.4 7.2 3.4 13.3 3.4 19.2 0 4-.4 8.3-1.4 13-1.2 6.2-3.3 12.6-6.3 19.7-1.2 2.9-2.6 5.8-3.9 8.5-.4.8-1.2 1.2-2.1 1.2zM49.8 56.8V46.5c.1-.9.6-1.3 1.5-1.3s1.1.6 1.1 1.4V53c0 1.2.2 2.3 0 3.5.4 0 .6-.3.8-.6 3-3.4 6.5-6.1 10.3-8.4.9-.5 1.9-.2 2.5.6.6.9.3 1.9-.6 2.6-2 1.3-4 2.7-5.9 4.3-2.3 2-4.4 4.1-6 6.8-.4.7-.6 1.3-.6 2.1V86.7c0 1.2-.8 2-1.9 2-1 0-1.8-.9-1.9-2.1V64c0-.9-.2-1.6-.7-2.3-2.2-3.4-4.8-6.6-8.2-8.9-1.1-.7-2.2-1.3-3.5-1.8-1.2-.5-1.7-1.5-1.3-2.6.4-1 1.4-1.3 2.6-.9 3.7 1.4 6.7 3.8 9.4 6.7.9.8 1.5 1.6 2.4 2.6zM49.8 20.7h-.4c-.9-.2-1.4-1.1-1.2-1.9.3-1.4 1.6-3.8 4.2-4.3.9-.2 1.7.4 1.9 1.3.2.9-.4 1.7-1.3 1.9-1.2.2-1.7 1.8-1.7 1.8-.1.7-.8 1.2-1.5 1.2z"/>
        </svg>
      </svg>
      <defs>
        <filter id="a">
          <feColorMatrix class="icon-fecolormatrix" values="0 0 0 0 0 0 0 0 0 0 0 0 0 0 0 0 0 0 1 0"/>
        </filter>
      </defs>
    </g>
  </g>
</svg>
