<svg xmlns="http://www.w3.org/2000/svg" color-interpolation-filters="sRGB" style="margin:auto" version="1.0" viewBox="0 0 340 250">
  <g fill="#eb001b" class="icon-text-wrapper icon-svg-group iconsvg">
    <g class="iconsvg-imagesvg" transform="translate(140 91.46508408)">
      <path fill="none" d="M0 0h60v67.06983087H0z" class="image-rect"/>
      <svg width="60" height="67.06983087" class="image-svg-svg primary" filter="url(#a)" style="overflow:visible">
        <svg xmlns="http://www.w3.org/2000/svg" xmlns:xlink="http://www.w3.org/1999/xlink" xml:space="preserve" viewBox="5.27586126 -0.100003 89.54827118 100.1000061">
          <path d="M90.8 98.6c-.1 0-.2 0-.4-.1-.7-.2-1-.9-.8-1.5 5.3-17.9 1.7-34.7-3.4-57.9-.8-3.5-1.6-7.1-2.3-10.9-1.8-9-1.3-26.3-1.2-27 0-.7.6-1.2 1.3-1.2.7 0 1.2.6 1.2 1.3 0 .2-.6 17.8 1.2 26.4.8 3.8 1.6 7.4 2.3 10.9 5.2 23.6 8.9 40.7 3.4 59.2-.2.5-.7.8-1.3.8zM9.2 98.6c-.5 0-1-.3-1.2-.9-5.5-18.5-1.8-35.6 3.4-59.2.8-3.5 1.6-7.1 2.3-10.9 1.8-8.7 1.2-26.2 1.2-26.4 0-.7.5-1.3 1.2-1.3s1.3.5 1.3 1.2.6 18.1-1.2 27c-.8 3.8-1.6 7.4-2.4 10.9C8.7 62.4 5 79.2 10.3 97c.2.7-.2 1.3-.8 1.5-.1.1-.2.1-.3.1zM66 100c-.3 0-.7-.1-.9-.4-7.4-8.6-10.1-24.7-11-31.2-.1-.7.4-1.3 1.1-1.4.7-.1 1.3.4 1.4 1.1C57.4 74.4 60 89.9 67 98c.4.5.4 1.3-.1 1.7-.3.2-.6.3-.9.3zM34 100c-.3 0-.6-.1-.8-.3-.5-.4-.6-1.2-.1-1.7 6.9-8.1 9.6-23.6 10.4-29.9.1-.7.7-1.2 1.4-1.1.7.1 1.2.7 1.1 1.4-.8 6.5-3.6 22.6-11 31.2-.3.3-.7.4-1 .4zM50 67.6c-.5 0-2.2-.1-3.9-1.8-2.5-2.4-3.7-6.9-3.6-13.3-2.2-.6-5-2.7-4.7-7.6 0-.7.6-1.2 1.3-1.2.7 0 1.2.6 1.2 1.3-.3 4.9 3.4 5.2 3.6 5.2l1.2.1v1.2c-.3 7.7 1.3 11 2.7 12.4 1.1 1.1 2.1 1.1 2.1 1.1h.1s1 0 2.1-1.1c1.4-1.4 3-4.8 2.7-12.4v-1.2l1.2-.1c.4 0 3.8-.5 3.6-5.2 0-.7.5-1.3 1.2-1.3s1.3.5 1.3 1.2c.3 4.9-2.5 7-4.7 7.6.1 6.4-1.1 10.9-3.6 13.3-1.6 1.7-3.3 1.8-3.8 1.8z"/>
          <circle cx="50" cy="12.2" r="1.9"/>
        </svg>
      </svg>
      <defs>
        <filter id="a">
          <feColorMatrix class="icon-fecolormatrix" values="0 0 0 0 0 0 0 0 0 0 0 0 0 0 0 0 0 0 1 0"/>
        </filter>
      </defs>
    </g>
  </g>
</svg>
