<svg xmlns="http://www.w3.org/2000/svg" color-interpolation-filters="sRGB" style="margin:auto" version="1.0" viewBox="0 0 340 250">
  <g fill="#eb001b" class="icon-text-wrapper icon-svg-group iconsvg">
    <g class="iconsvg-imagesvg" transform="translate(140 105.49161148)">
      <path fill="none" d="M0 0h60v39.01677721H0z" class="image-rect"/>
      <svg width="60" height="39.01677721" class="image-svg-svg primary" filter="url(#a)" style="overflow:visible">
        <svg xmlns="http://www.w3.org/2000/svg" xmlns:xlink="http://www.w3.org/1999/xlink" xml:space="preserve" viewBox="0 -0.00000191 351.35131836 228.47633362">
          <path d="M139.582 87.273c-2.564 2.317-5.526 4.11-8.819 5.347h36.082c-.158-.345-.306-.697-.436-1.058-1.085-2.994-1.068-6.117-.184-8.943h-22.467c-1.275 1.741-2.658 3.283-4.176 4.654zM222.403 173.224c-.922-.197-1.876-.392-2.868-.58-2.057-.39-4.553-.58-7.623-.58-2.361 0-4.732.105-7.365.233l-.395.02c-2.514.126-4.891.243-7.172.243-1.616 0-4.209-.005-7.005-.574-29.67 3.457-66.832 6.489-94.604 6.48-8.732.003-16.535-.297-22.858-.965-6.308-.652-11.173-1.736-13.771-3.055-11.934-5.971-22.448-7.955-29.736-9.616-3.637-.818-6.462-1.6-8.091-2.547-1.618-1.02-2.042-1.62-2.12-3.335 0-.597.095-1.329.323-2.21l.003-.007c1.268-4.983 4.546-10.954 9.51-15.56 4.975-4.62 11.548-7.91 19.66-7.916 3.36 0 6.998.566 10.926 1.876 7.118 2.377 12.977 3.258 18.356 3.254 13.261-.054 22.974-5.048 42.989-5.485.125-.002.236-.005.331-.005 5.226-.045 12.521 2.978 21.636 6.162 7.965 2.757 17.398 5.557 28.469 6.229-.347-1.336-.67-2.698-.974-4.082-10.014-.763-18.654-3.32-26.186-5.927-9.004-3.089-16.327-6.338-22.944-6.384-.157 0-.299.005-.424.007-4.26.104-8.068.4-11.543.804-2.11.245-4.097.528-5.98.835-.334-1.352-.592-2.797-.718-4.404-.377-4.801.919-11.441 2.67-17.834-1.674.984-3.739 1.66-6.01 1.873-5.531.517-10.36-1.896-11.476-5.518h-4.144c-1.115 3.622-5.944 6.035-11.476 5.518-2.27-.213-4.334-.889-6.009-1.872 1.752 6.392 3.048 13.032 2.671 17.833-.211 2.691-.768 4.958-1.491 7.017-1.821-.41-3.748-.939-5.803-1.601-.229-.074-.447-.137-.68-.214-4.303-1.437-8.379-2.083-12.19-2.081-9.234-.007-16.834 3.807-22.386 8.984-1.591 1.484-3.003 3.084-4.269 4.737V107.62c.015-8.283 6.719-14.985 15.001-15.001h3.297c-4.536-1.696-8.562-4.541-11.687-8.31-.052-.063-.098-.129-.149-.192-9.601 3.49-16.458 12.692-16.46 23.503v53.132H0v54.868h8.144v7.396H39.13v-7.396h179.756c.01-.35.006-.697.035-1.051l3.482-41.345zM318.367 172.297c-2.629-.128-5-.233-7.363-.233-3.068 0-5.563.19-7.621.58-.991.189-1.944.382-2.865.58L304 214.571c.251 2.98-.244 5.851-1.304 8.446h14.964v-7.396h8.145v-43.064c-2.245-.004-4.575-.116-7.043-.24l-.395-.02zM264.42 182.24c-.958.048-1.94.078-2.961.078s-2-.03-2.957-.078l-2.812 33.381h11.541l-2.811-33.381z"/>
          <path d="M55.58 88.951c1.164-.002 2.363-.027 3.594-.064.63 1.563 2.091 5.278 3.674 9.921 1.895-1.639 5.603-1.725 9.961-1.316 5.13.48 9.494 1.487 10.486 4.332h4.092c.992-2.845 5.356-3.852 10.486-4.332 4.359-.408 8.066-.322 9.962 1.317 1.583-4.643 3.043-8.358 3.673-9.922 1.23.037 2.43.063 3.594.064 4.393-.011 8.438-.298 12.346-1.53 2.92-.918 5.723-2.44 8.113-4.601 3.607-3.258 6.17-7.663 8.283-13.263 2.111-5.622 3.836-12.584 5.551-21.53.619-3.254-1.514-6.396-4.768-7.018-3.256-.622-6.398 1.512-7.02 4.767v-.002c-2.859 15.316-5.977 23.59-8.973 26.983-1.498 1.731-2.789 2.549-4.822 3.227-2.025.654-4.893.974-8.711.965-6.935.013-16.752-.996-29.758-1.001h-.003c-13.012.005-22.826 1.014-29.76 1.001-3.82.009-6.688-.311-8.711-.965-1.531-.498-2.627-1.111-3.723-2.086-1.623-1.448-3.359-4.001-5.078-8.572-1.717-4.543-3.355-10.958-4.992-19.553-.625-3.255-3.767-5.389-7.02-4.765-3.256.621-5.389 3.764-4.768 7.02 3.102 15.865 5.971 25.614 11.574 32.451 2.807 3.383 6.471 5.731 10.367 6.94 3.913 1.234 7.956 1.521 12.351 1.532zM239.227 38.07h32.468c1.129-1.177 2.136-2.473 2.989-3.873 2.078-3.408 3.276-7.413 3.276-11.697 0-12.427-10.072-22.5-22.5-22.5-12.426 0-22.5 10.073-22.5 22.5 0 4.316 1.218 8.348 3.325 11.773.845 1.37 1.834 2.642 2.942 3.797zM243.21 170.424c-4.077-1.348-8.457-2.907-14.182-4.374l-4.128 49.025c-.574 6.807 4.48 12.784 11.281 13.357 6.805.573 12.787-4.476 13.359-11.282l3.709-44.04c-3.5-.615-6.685-1.574-10.039-2.686zM279.706 170.424c-3.354 1.112-6.536 2.071-10.036 2.686l3.709 44.04c.574 6.807 6.557 11.855 13.359 11.282 6.803-.573 11.855-6.551 11.283-13.357l-4.129-49.025c-5.726 1.467-10.108 3.026-14.186 4.374z"/>
          <path d="M176.838 79.261c-4.152 1.507-6.297 6.096-4.789 10.251 1.082 2.979 3.752 4.903 6.705 5.209-.399 4.2-.609 8.64-.608 13.183-.045 20.098 4 42.065 11.199 51.425.386.52 1.182.995 2.516 1.299 1.318.309 3.081.43 5.117.43 4.188.002 9.508-.498 14.934-.5 3.273.002 6.594.183 9.769.788 10.16 1.929 16.768 4.345 22.47 6.232 5.715 1.886 10.458 3.236 17.307 3.241 6.849-.005 11.592-1.355 17.307-3.241 5.702-1.888 12.309-4.304 22.472-6.232 3.173-.601 6.491-.784 9.765-.784 5.426.002 10.744.496 14.936.493 2.034.003 3.798-.12 5.116-.427 1.336-.306 2.134-.779 2.52-1.299 7.195-9.357 11.24-31.327 11.194-51.425.003-4.544-.207-8.984-.604-13.183 2.953-.307 5.624-2.231 6.704-5.21 1.51-4.153-.637-8.741-4.787-10.25h-.002c-23.541-8.55-37.141-17.71-44.732-24.398-3.797-3.35-6.098-6.085-7.398-7.856-.654-.887-1.053-1.533-1.264-1.895-.08-.139-.135-.236-.162-.29-1.31-2.809-4.152-4.623-7.254-4.623h-47.615c-3.094 0-5.93 1.804-7.242 4.596-.41.676-9.721 18.481-53.574 34.466zm57.576-14.481v29.853c9.889 1.249 19.437 2.105 27.044 2.103 7.608.002 17.158-.854 27.048-2.104V64.784c7.867 7.458 21.102 16.998 42.737 25.897-18.324 3.533-50.03 9.042-69.785 9.053-19.756-.011-51.463-5.52-69.785-9.054 21.638-8.899 34.874-18.44 42.741-25.9zM91.505 70.025c6.902-2.13 12.527-7.748 14.284-15.29 2.629-11.293-4.394-22.58-15.685-25.209-11.293-2.629-22.58 4.393-25.211 15.686-2.522 10.821 3.832 21.611 14.301 24.813.458.14.913.287 1.387.397 3.75.874 7.492.663 10.924-.397z"/>
        </svg>
      </svg>
      <defs>
        <filter id="a">
          <feColorMatrix class="icon-fecolormatrix" values="0 0 0 0 0 0 0 0 0 0 0 0 0 0 0 0 0 0 1 0"/>
        </filter>
      </defs>
    </g>
  </g>
</svg>
