<svg xmlns="http://www.w3.org/2000/svg" color-interpolation-filters="sRGB" style="margin:auto" version="1.0" viewBox="0 0 340 250">
  <g fill="#eb001b" class="icon-text-wrapper icon-svg-group iconsvg">
    <g class="iconsvg-imagesvg" transform="translate(140 73.82379913)">
      <path fill="none" d="M0 0h60v102.35239931H0z" class="image-rect"/>
      <svg width="60" height="102.35239931" class="image-svg-svg primary" filter="url(#a)" style="overflow:visible">
        <svg xmlns="http://www.w3.org/2000/svg" data-name="Layer 1" viewBox="15 3 34 58">
          <path d="M44 53H20a1 1 0 0 1-1-1V20A13 13 0 0 1 29 7.35V6a3 3 0 0 1 3-3 3 3 0 0 1 3 3v1.35A13 13 0 0 1 45 20v32a1 1 0 0 1-1 1Zm-23-2h22V20a10.9 10.9 0 0 0-3.22-7.78 10.8 10.8 0 0 0-5.94-3.06 1 1 0 0 1-.84-1V6a.93.93 0 0 0-.29-.69A1 1 0 0 0 32 5a1 1 0 0 0-1 1v2.17a1 1 0 0 1-.83 1A10.93 10.93 0 0 0 21 20Z"/>
          <path d="M44 61H20a5 5 0 0 1 0-10h24a5 5 0 0 1 0 10Zm-24-8a3 3 0 0 0 0 6h24a3 3 0 0 0 0-6Z"/>
        </svg>
      </svg>
      <defs>
        <filter id="a">
          <feColorMatrix class="icon-fecolormatrix" values="0 0 0 0 0 0 0 0 0 0 0 0 0 0 0 0 0 0 1 0"/>
        </filter>
      </defs>
    </g>
  </g>
</svg>
