<svg xmlns="http://www.w3.org/2000/svg" color-interpolation-filters="sRGB" style="margin:auto" version="1.0" viewBox="0 0 340 250">
  <g fill="#343c3e" class="icon-text-wrapper icon-svg-group iconsvg">
    <g class="iconsvg-imagesvg" transform="translate(139.9999981 95.00060081)">
      <path fill="none" d="M0 0h60v59.99880002H0z" class="image-rect"/>
      <svg width="60" height="59.99880002" class="image-svg-svg primary" filter="url(#a)" style="overflow:visible">
        <svg xmlns="http://www.w3.org/2000/svg" data-name="Layer 1" viewBox="-0.0002027 0.00242084 128.00039673 127.99759674">
          <path d="M119.49.67a2 2 0 0 0-2.82-.16l-23.2 20.74c-1.91-.92-13.33-6.09-30.35-6.09H63c-12.57 0-25.42 4.56-28.76 5.83L11.33.51a2 2 0 0 0-2.67 3l34.93 31.22c.52.59 4.66 5.63 2.16 14.16v.14c-.29 1.33-6.87 32.64 13.94 38.37A16.5 16.5 0 0 0 64 88a15.57 15.57 0 0 0 3.67-.44C89.29 82.34 82.58 50.38 82.29 49v-.14c-2.51-8.56 1.67-13.61 2.16-14.16l34.88-31.21a2 2 0 0 0 .16-2.82ZM64 82.72c-.7-1-1.67-4.08-1.67-8.72s1-7.68 1.67-8.72c.7 1 1.67 4.08 1.67 8.72s-.97 7.68-1.67 8.72Zm5.17-3a31.66 31.66 0 0 0 .49-5.7c0-6.47-1.75-13-5.67-13s-5.67 6.53-5.67 13a31.66 31.66 0 0 0 .49 5.7A26.88 26.88 0 0 1 56 67c0-10 4.22-17 8-17s8 7 8 17a26.88 26.88 0 0 1-2.83 12.7Zm12.5-47.91-.11.11c-.26.28-6.4 6.87-3.16 18 .26 1.27 4.19 21.27-4.94 30.11A32.3 32.3 0 0 0 76 67c0-11.78-5.27-21-12-21s-12 9.22-12 21a32.31 32.31 0 0 0 2.54 13c-9.1-8.84-5.19-28.84-4.93-30.11 3.24-11.15-2.9-17.74-3.16-18l-.11-.11L37.63 24C42.45 22.36 53 19.18 63 19.17h.12a72.77 72.77 0 0 1 27.08 5ZM126 90a2 2 0 0 0-2 2 31.87 31.87 0 0 1-31.67 32 31.49 31.49 0 0 1-26.64-14.71 2 2 0 0 0-3.37 0A31.49 31.49 0 0 1 35.67 124 31.87 31.87 0 0 1 4 92a2 2 0 0 0-4 0 35.88 35.88 0 0 0 35.67 36A35.41 35.41 0 0 0 64 113.87 35.41 35.41 0 0 0 92.33 128 35.88 35.88 0 0 0 128 92a2 2 0 0 0-2-2Z"/>
          <circle cx="2" cy="84" r="2"/>
          <circle cx="126" cy="84" r="2"/>
          <path d="M36.28 64.24a2 2 0 0 0-2.71.8 2 2 0 0 0-.23 1H21a2 2 0 0 0 0 4h12.33a2 2 0 0 0 .23 1 2 2 0 0 0 2.71.8l3.68-2a2 2 0 0 0 0-3.51ZM94.67 66a2 2 0 0 0-.23-1 2 2 0 0 0-2.71-.8l-3.68 2a2 2 0 0 0 0 3.51l3.68 2A2 2 0 0 0 94.67 70H107a2 2 0 0 0 0-4Z"/>
        </svg>
      </svg>
      <defs>
        <filter id="a">
          <feColorMatrix class="icon-fecolormatrix" values="0 0 0 0 0 0 0 0 0 0 0 0 0 0 0 0 0 0 1 0"/>
        </filter>
      </defs>
    </g>
  </g>
</svg>
