<svg xmlns="http://www.w3.org/2000/svg" color-interpolation-filters="sRGB" style="margin:auto" version="1.0" viewBox="0 0 340 250">
  <g fill="#343c3e" class="icon-text-wrapper icon-svg-group iconsvg">
    <g class="iconsvg-imagesvg" transform="translate(140 73.77136612)">
      <path fill="none" d="M0 0h60v102.45726678H0z" class="image-rect"/>
      <svg width="60" height="102.45726678" class="image-svg-svg primary" filter="url(#a)" style="overflow:visible">
        <svg xmlns="http://www.w3.org/2000/svg" xmlns:xlink="http://www.w3.org/1999/xlink" xml:space="preserve" enable-background="new 0 0 105 105" viewBox="25.06340981 2.79899478 56.92229462 97.20100403">
          <path d="M65.905 100h-.002c-5.056 0-9.584-4.49-11.591-6.875-2.065 2.27-6.677 6.646-11.873 6.646-8.226 0-13.77-10.285-16.479-30.624-3.799-28.519 5.198-45.677 13.414-55.061 3.672-4.194 7.337-6.992 9.764-8.606.652-.434 3.039-1.937 4.372-2.484.034-.02.069-.038.105-.055l.006.014c.255-.099.465-.156.606-.156.275 0 .536.082.755.225l.022.013c5.164 2.974 30.712 19.876 26.519 63.011C79.325 88.652 74.071 100 65.905 100zM54.354 90h.023c.44 0 .851.061 1.104.421.051.07 5.175 7.124 10.423 7.126 6.318 0 10.889-11.252 12.868-31.611C82.674 25.805 60.044 9.331 54.149 5.762 49.762 7.938 22.642 23.341 28.7 68.82c2.462 18.484 7.213 28.249 13.739 28.249 5.543 0 10.762-6.616 10.813-6.685.263-.343.67-.384 1.102-.384z"/>
          <path d="M47.993 88.431c-2.499 0-6.109-1.064-9.125-6.139-2.96-4.979-4.919-13.072-5.822-24.052-1.568-19.075 4.048-31.472 9.037-38.514 5.45-7.693 11.254-10.804 11.499-10.932.447-.235.986-.208 1.407.071.221.146 5.47 3.676 10.529 11.527 4.637 7.193 9.979 19.549 9.102 37.566-.54 11.069-2.233 19.229-5.034 24.25-2.861 5.131-6.452 6.208-8.961 6.208h-.001c-2.744 0-5.097-1.251-6.32-2.051-1.214.808-3.548 2.066-6.311 2.066zm6.152-76.756c-1.662 1.059-5.914 4.11-9.897 9.778-4.678 6.655-9.94 18.4-8.447 36.562 1.466 17.832 5.796 27.652 12.192 27.652 2.922 0 5.377-2.037 5.402-2.058.513-.439 1.269-.444 1.786-.011.022.018 2.518 2.054 5.442 2.054 6.371 0 10.36-9.883 11.235-27.828.839-17.208-4.205-28.972-8.583-35.81-3.714-5.8-7.593-9.142-9.13-10.339z"/>
          <path d="M53.965 68.018c-3.595 0-7.47-2.523-7.486-7.953-.012-3.93 2.063-5.966 4.398-7.325-2.309-1.27-4.398-3.193-4.398-7.12 0-3.067 1.255-4.925 2.308-5.938 1.349-1.298 3.167-2.017 5.12-2.017 3.771 0 7.59 2.728 7.59 7.945 0 3.783-2.055 5.733-4.357 7.062 2.262 1.328 4.357 3.433 4.357 7.705 0 2.277-.824 4.27-2.382 5.669-1.381 1.239-3.21 1.972-5.15 1.972zm.073-13.819c-2.995 1.411-4.805 2.625-4.796 5.844.012 3.799 2.551 5.184 4.722 5.184h.001c1.239 0 2.443-.479 3.303-1.25.958-.861 1.465-2.112 1.465-3.582-.001-3.599-1.76-4.853-4.695-6.196zm-.132-13.773c-1.234 0-2.372.44-3.203 1.241-.956.92-1.461 2.283-1.461 3.941 0 3.18 1.719 4.193 4.771 5.555 2.939-1.382 4.72-2.52 4.72-5.555-.001-3.561-2.503-5.182-4.827-5.182z"/>
          <path d="M54.354 81.477c-.342 0-.685-.127-.951-.381-.354-.336-8.73-8.349-12.896-17.46-4.566-9.986-1.605-19.608-.962-21.447-.171-3.405 1.131-9.672 7.338-10.956 5.903-1.221 5.656-7.219 5.642-7.473-.04-.76.542-1.412 1.302-1.455.759-.042 1.411.533 1.457 1.293.018.259.487 6.44 5.846 7.64 5.859 1.312 7.003 7.203 6.793 10.399.566 1.757 3.122 10.773-.388 21.052-3.26 9.548-11.85 18.036-12.214 18.393-.269.263-.618.395-.967.395zm-.258-52.45c-1.122 2.177-3.162 4.19-6.653 4.912-5.636 1.166-5.146 8.047-5.123 8.339.017.208-.014.417-.089.611-.037.095-3.682 9.818.789 19.597 3.139 6.864 9.004 13.264 11.314 15.636 2.298-2.463 8.152-9.201 10.585-16.327 3.507-10.273.333-19.431.301-19.522-.067-.191-.094-.397-.073-.6.024-.265.55-6.581-4.622-7.738-3.341-.748-5.293-2.824-6.429-4.908z"/>
          <path d="M53.943 24.727c-2.286 0-4.145-1.859-4.145-4.146 0-2.286 1.859-4.146 4.145-4.146 2.286 0 4.146 1.86 4.146 4.146 0 2.287-1.86 4.146-4.146 4.146zm0-5.527c-.762 0-1.382.62-1.382 1.382 0 .762.62 1.382 1.382 1.382.763 0 1.382-.62 1.382-1.382 0-.762-.619-1.382-1.382-1.382z"/>
        </svg>
      </svg>
      <defs>
        <filter id="a">
          <feColorMatrix class="icon-fecolormatrix" values="0 0 0 0 0 0 0 0 0 0 0 0 0 0 0 0 0 0 1 0"/>
        </filter>
      </defs>
    </g>
  </g>
</svg>
