<svg xmlns="http://www.w3.org/2000/svg" color-interpolation-filters="sRGB" style="margin:auto" version="1.0" viewBox="0 0 340 250">
  <g fill="#020d14" class="icon-text-wrapper icon-svg-group iconsvg">
    <g fill="#00539f" class="iconsvg-imagesvg icon_container" mask="url(#a)" transform="translate(113.5 68.5)">
      <path fill="none" d="M0 0h113v113H0z" class="image-rect"/>
      <svg width="113" height="113" class="image-svg-svg bn" style="overflow:visible" viewBox="0 0 60 60">
        <svg xmlns="http://www.w3.org/2000/svg" xmlns:xlink="http://www.w3.org/1999/xlink" xml:space="preserve" width="60" height="60" fill="#000" fill-rule="evenodd" clip-rule="evenodd" filter="url(#b)" style="shape-rendering:geometricprecision;text-rendering:geometricprecision;overflow:visible" viewBox="0 0 204 204">
          <g>
            <defs>
              <filter id="b">
                <feColorMatrix values="0 0 0 0 0 0 0 0 0 0.32421875 0 0 0 0 0.62109375 0 0 0 1 0"/>
              </filter>
            </defs>
            <path d="M102 0c56 0 102 46 102 102s-46 102-102 102S0 158 0 102 46 0 102 0zm0 17c-47 0-85 38-85 85s38 86 85 86 86-39 86-86-39-85-86-85z" class="fil0"/>
          </g>
        </svg>
        <g filter="url(#c)">
          <svg xmlns="http://www.w3.org/2000/svg" xmlns:xlink="http://www.w3.org/1999/xlink" width="32" height="32" x="14" y="14" class="image-svg-letter" viewBox="0 0 82.656 48.024">
            <path d="M10.872 48.024H.002v-8.57h9.79q4.61 0 6.8-.32 2.2-.33 3.35-1.33 1.59-1.23 2.2-3.53.61-2.31.61-7.27v-27h10.15v27q0 5.04-.36 7.63t-1.44 4.89q-2.73 6.12-9.93 7.85-3.46.65-10.3.65Zm53.06 0h-24.12v-8.57h21.96q5.26 0 6.99-1.01 2.52-1.51 2.52-4.53 0-3.53-2.95-5.11-1.66-.94-5.33-.94h-8.93q-8.14 0-11.74-2.95-2.23-1.87-3.49-4.68-1.26-2.81-1.26-6.05 0-5.04 2.95-9.22 2.88-4.03 9.22-4.75 2.16-.21 6.41-.21h23.83v8.56h-21.53q-4.82.08-6.41.44-3.24.79-3.24 4.89 0 3.46 2.74 4.61 1.8.86 6.05.86h7.7q5.91 0 8.79 1.01 5.11 1.73 7.05 6.05 1.51 3.46 1.51 7.42 0 4.39-2.01 7.84-2.81 4.9-8.43 5.91-2.73.43-8.28.43Z"/>
          </svg>
        </g>
      </svg>
      <defs>
        <filter id="c">
          <feColorMatrix class="icon-fecolormatrix" values="0 0 0 0 0 0 0 0 0 0.32421875 0 0 0 0 0.62109375 0 0 0 1 0"/>
        </filter>
      </defs>
      <path fill="url(#d)" d="M0 0h125v125H0z" style="pointer-events:none" transform="translate(-6 -6)"/>
    </g>
    <path d="M155.40520046 155.58559973h-1.1128v4.3656c0 .6848-.2568.856-.856.856-.1712 0-.428 0-.5992-.0856l-.2568.9416c.3424.1712.5992.1712.856.1712 1.284 0 1.9688-.428 1.9688-1.8832Zm2.9104-.0856h-1.1128v1.0272h1.1128Zm0 6.2488v-4.4512h-1.0272v4.4512Zm5.0504 0v-2.996c0-1.0272-.6848-1.5408-1.5408-1.5408-.5136 0-.9416.1712-1.1984.6848v-.5992h-1.0272v4.4512h1.0272v-2.8248c0-.5136.3424-.856.856-.856.5136 0 .7704.3424.7704.9416v2.7392Zm.7704-2.3112c0 1.3696.428 2.2256 1.712 2.2256.5136 0 .856-.1712 1.0272-.5992v.3424c0 .856-.2568 1.1984-1.1128 1.1984-.428 0-.6848-.0856-1.0272-.2568l-.428.7704c.428.2568.9416.3424 1.5408.3424 1.4552 0 2.14-.6848 2.14-2.0544v-4.1088h-.9416l-.0856.5992c-.1712-.5136-.5992-.6848-1.1128-.6848-1.284 0-1.712.856-1.712 2.2256Zm1.0272 0c0-.6848.1712-1.3696.856-1.3696.7704 0 .856.5992.856 1.3696 0 .6848-.0856 1.284-.856 1.284-.6848 0-.856-.5992-.856-1.284Zm3.5952 1.9688c.5136.3424 1.1128.428 1.8832.428 1.6264 0 2.3968-.7704 2.3112-1.8832 0-.856-.5136-1.4552-1.3696-1.712l-.856-.1712c-.5992-.1712-.7704-.3424-.7704-.856 0-.428.3424-.6848 1.1128-.6848.5136 0 .856.0856 1.284.3424l.3424-1.0272c-.428-.2568-1.1128-.3424-1.6264-.3424-1.4552 0-2.2256.6848-2.2256 1.7976 0 .856.428 1.4552 1.1984 1.6264l.9416.2568c.5992.1712.856.428.856.856 0 .5136-.3424.7704-1.284.7704-.428 0-1.0272-.0856-1.4552-.3424Zm8.988-1.8832c0-1.3696-.428-2.3112-1.8832-2.3112-1.5408 0-1.9688.9416-1.9688 2.3112s.5136 2.3112 1.9688 2.3112 1.8832-.9416 1.8832-2.3112Zm-1.0272 0c0 .6848-.1712 1.3696-.856 1.3696s-.856-.6848-.856-1.3696.0856-1.4552.856-1.4552.856.7704.856 1.4552Zm6.0776 2.2256v-2.996c0-1.0272-.5992-1.5408-1.5408-1.5408-.5136 0-.9416.1712-1.1128.6848l-.0856-.5992h-1.0272v4.4512h1.1128v-2.8248c0-.5136.2568-.856.7704-.856.5136 0 .856.3424.856.9416v2.7392Zm.7704-2.3112c0 1.3696.428 2.2256 1.7976 2.2256.5136 0 .856-.1712 1.0272-.5992v.3424c0 .856-.2568 1.1984-1.1128 1.1984-.428 0-.6848-.0856-1.1128-.2568l-.428.7704c.5136.2568.9416.3424 1.5408.3424 1.5408 0 2.14-.6848 2.14-2.0544v-4.1088h-.9416l-.0856.5992c-.1712-.5136-.5992-.6848-1.0272-.6848-1.3696 0-1.7976.856-1.7976 2.2256Zm1.1128 0c0-.6848.0856-1.3696.856-1.3696.6848 0 .856.5992.856 1.3696 0 .6848-.1712 1.284-.856 1.284s-.856-.5992-.856-1.284Z" class="tp-name iconsvg-namesvg" data-gra="path-name"/>
  </g>
  <defs>
    <linearGradient id="d" x1="0" x2="0" y1="1" y2="0">
      <stop offset="0%" stop-color="#2ebef3"/>
      <stop offset="100%" stop-color="#fffc9f"/>
    </linearGradient>
    <filter id="e" filterUnits="userSpaceOnUse">
      <feColorMatrix values="0 0 0 0 0.99609375 0 0 0 0 0.99609375 0 0 0 0 0.99609375 0 0 0 1 0"/>
    </filter>
  </defs>
  <mask id="a">
    <g fill="#00539f" class="iconsvg-imagesvg icon_container" filter="url(#e)">
      <path fill="#020d14" fill-opacity="0" stroke-width="2" d="M0 0h113v113H0z" class="image-rect"/>
      <svg width="113" height="113" class="image-svg-svg bn" style="overflow:visible" viewBox="0 0 60 60">
        <svg xmlns="http://www.w3.org/2000/svg" xmlns:xlink="http://www.w3.org/1999/xlink" xml:space="preserve" width="60" height="60" fill="#000" fill-rule="evenodd" clip-rule="evenodd" style="shape-rendering:geometricprecision;text-rendering:geometricprecision;overflow:visible" viewBox="0 0 204 204">
          <path d="M102 0c56 0 102 46 102 102s-46 102-102 102S0 158 0 102 46 0 102 0zm0 17c-47 0-85 38-85 85s38 86 85 86 86-39 86-86-39-85-86-85z" class="fil0"/>
        </svg>
        <svg xmlns="http://www.w3.org/2000/svg" xmlns:xlink="http://www.w3.org/1999/xlink" width="32" height="32" x="14" y="14" class="image-svg-letter" viewBox="0 0 82.656 48.024">
          <path d="M10.872 48.024H.002v-8.57h9.79q4.61 0 6.8-.32 2.2-.33 3.35-1.33 1.59-1.23 2.2-3.53.61-2.31.61-7.27v-27h10.15v27q0 5.04-.36 7.63t-1.44 4.89q-2.73 6.12-9.93 7.85-3.46.65-10.3.65Zm53.06 0h-24.12v-8.57h21.96q5.26 0 6.99-1.01 2.52-1.51 2.52-4.53 0-3.53-2.95-5.11-1.66-.94-5.33-.94h-8.93q-8.14 0-11.74-2.95-2.23-1.87-3.49-4.68-1.26-2.81-1.26-6.05 0-5.04 2.95-9.22 2.88-4.03 9.22-4.75 2.16-.21 6.41-.21h23.83v8.56h-21.53q-4.82.08-6.41.44-3.24.79-3.24 4.89 0 3.46 2.74 4.61 1.8.86 6.05.86h7.7q5.91 0 8.79 1.01 5.11 1.73 7.05 6.05 1.51 3.46 1.51 7.42 0 4.39-2.01 7.84-2.81 4.9-8.43 5.91-2.73.43-8.28.43Z"/>
        </svg>
      </svg>
    </g>
  </mask>
</svg>
