<svg xmlns="http://www.w3.org/2000/svg" color-interpolation-filters="sRGB" style="margin:auto" version="1.0" viewBox="0 0 340 250">
  <g fill="#020d14" class="icon-text-wrapper icon-svg-group iconsvg">
    <g fill="#00539f" class="iconsvg-imagesvg icon_container" mask="url(#a)" transform="translate(113.5 68.5)">
      <path fill="none" d="M0 0h113v113H0z" class="image-rect"/>
      <svg width="113" height="113" class="image-svg-svg bn" style="overflow:visible" viewBox="0 0 60 60">
        <svg xmlns="http://www.w3.org/2000/svg" xmlns:xlink="http://www.w3.org/1999/xlink" xml:space="preserve" width="60" height="60" fill="#000" fill-rule="evenodd" clip-rule="evenodd" filter="url(#b)" style="shape-rendering:geometricprecision;text-rendering:geometricprecision;overflow:visible" viewBox="0 0 333 333">
          <g>
            <defs>
              <filter id="b">
                <feColorMatrix values="0 0 0 0 0 0 0 0 0 0.32421875 0 0 0 0 0.62109375 0 0 0 1 0"/>
              </filter>
            </defs>
            <path d="M79 0h175c22 0 42 9 56 23 14 15 23 34 23 56v175c0 22-9 42-23 56s-34 23-56 23H79c-22 0-41-9-56-23-14-14-23-34-23-56V79c0-22 9-41 23-56C38 9 57 0 79 0zm175 16H79c-17 0-33 7-44 19-12 11-19 27-19 44v175c0 18 7 33 19 45 11 11 27 18 44 18h175c18 0 33-7 45-18 11-12 18-27 18-45V79c0-17-7-33-18-44-12-12-27-19-45-19z" class="fil0"/>
          </g>
        </svg>
        <g filter="url(#c)">
          <svg xmlns="http://www.w3.org/2000/svg" xmlns:xlink="http://www.w3.org/1999/xlink" width="40" height="40" x="10" y="10" class="image-svg-letter" viewBox="0 0 82.656 48.024">
            <path d="M10.872 48.024H.002v-8.57h9.79q4.61 0 6.8-.32 2.2-.33 3.35-1.33 1.59-1.23 2.2-3.53.61-2.31.61-7.27v-27h10.15v27q0 5.04-.36 7.63t-1.44 4.89q-2.73 6.12-9.93 7.85-3.46.65-10.3.65Zm53.06 0h-24.12v-8.57h21.96q5.26 0 6.99-1.01 2.52-1.51 2.52-4.53 0-3.53-2.95-5.11-1.66-.94-5.33-.94h-8.93q-8.14 0-11.74-2.95-2.23-1.87-3.49-4.68-1.26-2.81-1.26-6.05 0-5.04 2.95-9.22 2.88-4.03 9.22-4.75 2.16-.21 6.41-.21h23.83v8.56h-21.53q-4.82.08-6.41.44-3.24.79-3.24 4.89 0 3.46 2.74 4.61 1.8.86 6.05.86h7.7q5.91 0 8.79 1.01 5.11 1.73 7.05 6.05 1.51 3.46 1.51 7.42 0 4.39-2.01 7.84-2.81 4.9-8.43 5.91-2.73.43-8.28.43Z"/>
          </svg>
        </g>
      </svg>
      <defs>
        <filter id="c">
          <feColorMatrix class="icon-fecolormatrix" values="0 0 0 0 0 0 0 0 0 0.32421875 0 0 0 0 0.62109375 0 0 0 1 0"/>
        </filter>
      </defs>
      <path fill="url(#d)" d="M0 0h125v125H0z" style="pointer-events:none" transform="translate(-6 -6)"/>
    </g>
    <path d="M151.55190225 159.60819966h-1.4066v5.5182c0 .8656-.3246 1.082-1.082 1.082-.2164 0-.541 0-.7574-.1082l-.3246 1.1902c.4328.2164.7574.2164 1.082.2164 1.623 0 2.4886-.541 2.4886-2.3804Zm3.6788-.1082h-1.4066v1.2984h1.4066Zm0 7.8986v-5.6264h-1.2984v5.6264Zm6.3838 0v-3.787c0-1.2984-.8656-1.9476-1.9476-1.9476-.6492 0-1.1902.2164-1.5148.8656v-.7574h-1.2984v5.6264h1.2984v-3.5706c0-.6492.4328-1.082 1.082-1.082s.9738.4328.9738 1.1902v3.4624Zm.9738-2.9214c0 1.7312.541 2.8132 2.164 2.8132.6492 0 1.082-.2164 1.2984-.7574v.4328c0 1.082-.3246 1.5148-1.4066 1.5148-.541 0-.8656-.1082-1.2984-.3246l-.541.9738c.541.3246 1.1902.4328 1.9476.4328 1.8394 0 2.705-.8656 2.705-2.5968v-5.1936h-1.1902l-.1082.7574c-.2164-.6492-.7574-.8656-1.4066-.8656-1.623 0-2.164 1.082-2.164 2.8132Zm1.2984 0c0-.8656.2164-1.7312 1.082-1.7312.9738 0 1.082.7574 1.082 1.7312 0 .8656-.1082 1.623-1.082 1.623-.8656 0-1.082-.7574-1.082-1.623Zm4.5444 2.4886c.6492.4328 1.4066.541 2.3804.541 2.0558 0 3.0296-.9738 2.9214-2.3804 0-1.082-.6492-1.8394-1.7312-2.164l-1.082-.2164c-.7574-.2164-.9738-.4328-.9738-1.082 0-.541.4328-.8656 1.4066-.8656.6492 0 1.082.1082 1.623.4328l.4328-1.2984c-.541-.3246-1.4066-.4328-2.0558-.4328-1.8394 0-2.8132.8656-2.8132 2.2722 0 1.082.541 1.8394 1.5148 2.0558l1.1902.3246c.7574.2164 1.082.541 1.082 1.082 0 .6492-.4328.9738-1.623.9738-.541 0-1.2984-.1082-1.8394-.4328Zm11.361-2.3804c0-1.7312-.541-2.9214-2.3804-2.9214-1.9476 0-2.4886 1.1902-2.4886 2.9214 0 1.7312.6492 2.9214 2.4886 2.9214s2.3804-1.1902 2.3804-2.9214Zm-1.2984 0c0 .8656-.2164 1.7312-1.082 1.7312s-1.082-.8656-1.082-1.7312.1082-1.8394 1.082-1.8394c.9738 0 1.082.9738 1.082 1.8394Zm7.6822 2.8132v-3.787c0-1.2984-.7574-1.9476-1.9476-1.9476-.6492 0-1.1902.2164-1.4066.8656l-.1082-.7574h-1.2984v5.6264h1.4066v-3.5706c0-.6492.3246-1.082.9738-1.082s1.082.4328 1.082 1.1902v3.4624Zm.9738-2.9214c0 1.7312.541 2.8132 2.2722 2.8132.6492 0 1.082-.2164 1.2984-.7574v.4328c0 1.082-.3246 1.5148-1.4066 1.5148-.541 0-.8656-.1082-1.4066-.3246l-.541.9738c.6492.3246 1.1902.4328 1.9476.4328 1.9476 0 2.705-.8656 2.705-2.5968v-5.1936h-1.1902l-.1082.7574c-.2164-.6492-.7574-.8656-1.2984-.8656-1.7312 0-2.2722 1.082-2.2722 2.8132Zm1.4066 0c0-.8656.1082-1.7312 1.082-1.7312.8656 0 1.082.7574 1.082 1.7312 0 .8656-.2164 1.623-1.082 1.623s-1.082-.7574-1.082-1.623Z" class="tp-name iconsvg-namesvg" data-gra="path-name"/>
  </g>
  <defs>
    <linearGradient id="d" x1="0" x2="0" y1="1" y2="0">
      <stop offset="0%" stop-color="#2ebef3"/>
      <stop offset="100%" stop-color="#fffc9f"/>
    </linearGradient>
    <filter id="e" filterUnits="userSpaceOnUse">
      <feColorMatrix values="0 0 0 0 0.99609375 0 0 0 0 0.99609375 0 0 0 0 0.99609375 0 0 0 1 0"/>
    </filter>
  </defs>
  <mask id="a">
    <g fill="#00539f" class="iconsvg-imagesvg icon_container" filter="url(#e)">
      <path fill="#020d14" fill-opacity="0" stroke-width="2" d="M0 0h113v113H0z" class="image-rect"/>
      <svg width="113" height="113" class="image-svg-svg bn" style="overflow:visible" viewBox="0 0 60 60">
        <svg xmlns="http://www.w3.org/2000/svg" xmlns:xlink="http://www.w3.org/1999/xlink" xml:space="preserve" width="60" height="60" fill="#000" fill-rule="evenodd" clip-rule="evenodd" style="shape-rendering:geometricprecision;text-rendering:geometricprecision;overflow:visible" viewBox="0 0 333 333">
          <path d="M79 0h175c22 0 42 9 56 23 14 15 23 34 23 56v175c0 22-9 42-23 56s-34 23-56 23H79c-22 0-41-9-56-23-14-14-23-34-23-56V79c0-22 9-41 23-56C38 9 57 0 79 0zm175 16H79c-17 0-33 7-44 19-12 11-19 27-19 44v175c0 18 7 33 19 45 11 11 27 18 44 18h175c18 0 33-7 45-18 11-12 18-27 18-45V79c0-17-7-33-18-44-12-12-27-19-45-19z" class="fil0"/>
        </svg>
        <svg xmlns="http://www.w3.org/2000/svg" xmlns:xlink="http://www.w3.org/1999/xlink" width="40" height="40" x="10" y="10" class="image-svg-letter" viewBox="0 0 82.656 48.024">
          <path d="M10.872 48.024H.002v-8.57h9.79q4.61 0 6.8-.32 2.2-.33 3.35-1.33 1.59-1.23 2.2-3.53.61-2.31.61-7.27v-27h10.15v27q0 5.04-.36 7.63t-1.44 4.89q-2.73 6.12-9.93 7.85-3.46.65-10.3.65Zm53.06 0h-24.12v-8.57h21.96q5.26 0 6.99-1.01 2.52-1.51 2.52-4.53 0-3.53-2.95-5.11-1.66-.94-5.33-.94h-8.93q-8.14 0-11.74-2.95-2.23-1.87-3.49-4.68-1.26-2.81-1.26-6.05 0-5.04 2.95-9.22 2.88-4.03 9.22-4.75 2.16-.21 6.41-.21h23.83v8.56h-21.53q-4.82.08-6.41.44-3.24.79-3.24 4.89 0 3.46 2.74 4.61 1.8.86 6.05.86h7.7q5.91 0 8.79 1.01 5.11 1.73 7.05 6.05 1.51 3.46 1.51 7.42 0 4.39-2.01 7.84-2.81 4.9-8.43 5.91-2.73.43-8.28.43Z"/>
        </svg>
      </svg>
    </g>
  </mask>
</svg>
