<svg xmlns="http://www.w3.org/2000/svg" color-interpolation-filters="sRGB" style="margin:auto" version="1.0" viewBox="0 0 340 250">
  <g fill="#333" class="basesvg">
    <g fill="red" class="tp-slogan" data-gra="path-slogan">
      <path d="M84.08999634 105.72499609h36.47500229v1h-36.4750023zM209.43500138 105.72499609h36.47500229v1h-36.4750023zM129.13937363 100.78999596q1.32 0 1.36.14 0 .04-.04.14-.14.37-.19 1.03-.05.51-.05 2.11h2.49q1.12 0 1.36-.05v.94q-.19-.05-1.36-.05h-2.49q.14 1.69.52 3 1.03-1.31 1.45-2.44 1.08.52 1.13.66 0 .09-.19.19-.24.14-.33.28-.05.09-.19.28-.75 1.13-1.5 1.83.66 1.17 1.74 1.59.28 0 .37-1.36.56.61 1.08.8-.52 1.74-.98 1.74-1.46 0-2.91-2.11-1.08.79-2.34 1.4-.29-.42-.75-.7l-.1-.05q1.5-.47 2.77-1.45-.56-1.78-.61-3.66h-2.39v1.69q.65-.14 1.45-.47.24-.05.33-.09l-.05 1.08q-.23.04-.61.14-.37.04-1.12.23v2.72q.19.89-2.02 1.12 0-.51-.28-.98-.05-.09-.05-.14 1.41.14 1.46-.47v-2.02q-1.46.38-2.16.75l-.37-1.17q1.31-.18 2.53-.51v-1.88h-1.08q-1.08 0-1.31.05v-.94q.18.05 1.26.05h1.13v-1.55q.04.05-.75.24-.66.14-1.08.23-.19-.52-.52-.94 2.02-.04 4.18-.98.14.19.42.42.51.52.42.56-.05.1-.28.1-.71 0-1.5.18v1.74h2.34q0-1.88-.19-3.42Zm2.02 1.22.89-.61q.75.79 1.36 1.78l-.94.61q-.47-.94-1.31-1.78Zm11.3-1.27q1.26.37 1.26.52 0 .04-.09.09-.19.09-.24.28-.42.7-.65 1.45h1.73q1.03 0 1.6-.04-.38 6.14-.47 7.22-.14 1.31-2.58 1.4-.14-.7-.56-1.22 1.26.24 1.92-.04.33.04.47-4.18.09-1.5.14-2.39h-2.58q-.47.89-1.13 2.07-.42-.29-.84-.38v4.22q0 1.17.05 1.5h-1.08q.05-.42.05-1.13h-2.3q0 .71.05 1.22h-1.08q.05-.42.05-1.54v-5.02q0-.19-.05-.89v-.75q.7.05 1.03.05h.33q.14-.75.23-2.3 1.31.14 1.22.33 0 .09-.09.19-.1.09-.14.23-.14.33-.28.94-.1.37-.15.61h.8q.38 0 1.41-.05-.05.33-.05 1.5v.66q1.45-1.64 2.02-4.55Zm-3 3.19h-2.3v2.43h2.3v-2.43Zm2.2 2.39.8-.47q.28.37.98 1.73.19.28.24.43l-.9.46q-.14-.56-1.12-2.15Zm-2.2.75h-2.3v2.29h2.3v-2.29Zm13.26-6.1q1.22 0 1.46.19 0 .05-.1.14-.28.42-.28.94v1.64h2.02q1.12 0 1.68-.09h.14v1.03h-.09q-.75-.1-1.73-.1h-2.02v2.16h1.59q.99 0 1.55-.09h.09v1.07h-.09q-.56-.09-1.55-.09h-1.59v2.53h2.63q.89 0 1.59-.09h.14v1.03h-.14q-.61-.09-1.59-.09h-6.71q-.84 0-1.64.09h-.14v-1.03h.19q.75.09 1.59.09h3.1v-2.53h-1.46q-.84 0-1.54.09h-.14v-1.07h.14q.75.09 1.54.09h1.46v-2.16h-2.82q-.7 1.22-1.07 1.83-.29-.14-.8-.28l-.24-.09q1.64-1.74 2.07-4.32 1.26.29 1.36.52 0 .05-.14.19-.43.47-.75 1.31h2.39v-1.73q0-.52-.1-1.04v-.14Zm15.99 0q.47.71.56 1.13h-.14q-.33-.05-.66 0-.14 0-.75.09-.7.1-1.03.14v1.78h1.92q.94 0 1.55-.09h.09v1.13h-.09q-.66-.1-1.55-.1h-1.92v1.55h1.17q.89 0 1.27-.09-.1.37-.1 1.4v1.69q.05.84.1 1.5v.33h-1.13q.1-.19.1-.94h-3.75q0 .8.09.98h-1.17v-.23q.09-.66.09-1.36v-1.92q0-.94-.14-1.45.38.09 1.36.09h1.13v-1.5h-1.6q-.79 0-1.4.09h-.24v-1.17h.14q.61.09 1.46.09h1.64v-1.64q-.94.14-2.35.33-.14-.33-.47-.79l-.09-.19q3.09.04 5.91-.85Zm-8.53 1.04.65-.9q.61.33 1.92 1.27l-.65.89q-.94-.8-1.92-1.26Zm-.61 2.9.51-.89q1.13.42 2.06 1.03l-.56.99q-.65-.57-2.01-1.13Zm1.54 1.55 1.03.51q-.14.61-.37 1.55-.28 1.17-.52 1.92-.09.19-.09.66-.05.33-.09.37-.1.1-1.13-.79.75-1.64 1.17-4.22Zm6.94 3.23v-2.2h-3.7v2.2h3.7Zm9.09-8.9q1.32 0 1.36.14 0 .04-.04.14-.14.37-.19 1.03-.05.51-.05 2.11h2.49q1.12 0 1.36-.05v.94q-.19-.05-1.36-.05h-2.49q.14 1.69.52 3 1.03-1.31 1.45-2.44 1.08.52 1.13.66 0 .09-.19.19-.24.14-.33.28-.05.09-.19.28-.75 1.13-1.5 1.83.66 1.17 1.74 1.59.28 0 .37-1.36.56.61 1.08.8-.52 1.74-.98 1.74-1.46 0-2.91-2.11-1.08.79-2.34 1.4-.29-.42-.75-.7l-.1-.05q1.5-.47 2.77-1.45-.56-1.78-.61-3.66h-2.39v1.69q.65-.14 1.45-.47.24-.05.33-.09l-.05 1.08q-.23.04-.61.14-.37.04-1.12.23v2.72q.19.89-2.02 1.12 0-.51-.28-.98-.05-.09-.05-.14 1.41.14 1.46-.47v-2.02q-1.46.38-2.16.75l-.37-1.17q1.31-.18 2.53-.51v-1.88h-1.08q-1.08 0-1.31.05v-.94q.18.05 1.26.05h1.13v-1.55q.04.05-.75.24-.66.14-1.08.23-.19-.52-.52-.94 2.02-.04 4.18-.98.14.19.42.42.51.52.42.56-.05.1-.28.1-.71 0-1.5.18v1.74h2.34q0-1.88-.19-3.42Zm2.02 1.22.89-.61q.75.79 1.36 1.78l-.94.61q-.47-.94-1.31-1.78Zm6.47-1.27q1.17.37 1.17.61 0 .09-.14.19-.14.14-.19.28-.28.79-.7 1.59v5.91q0 1.55.05 2.25h-.94q0-.24.05-.89.04-.8.04-1.32v-4.54l-.98 1.83-.75-.8q1.73-1.92 2.39-5.11Zm5.72.14q1.31.23 1.31.42 0 .05-.14.19-.14.19-.24.37-.18.47-.37.94-.14.33-.23.56h1.07q.8 0 1.64-.09v.99q-.28-.05-.93-.05-.14 3.56-1.08 4.97.94.98 1.97 1.4-.52.33-.94.89-.84-.65-1.59-1.54-.85.89-2.25 1.78-.29-.38-.89-.75 1.64-.47 2.62-1.74-.7-1.45-.89-3.32l-.14.28q-.28-.28-.84-.47 1.12-1.45 1.92-4.83Zm1.22 3.33h-1.22q-.33.56-.75 1.4l.7-.09q-.05 1.13.52 2.91.65-1.74.75-4.22Zm-3.43 2.58h-1.73v2.06h1.73v-2.06Zm.89-.71q-.04.38-.04 1.32v1.26q0 1.08.09 1.5h-.98q0-.19.04-.7h-1.73q0 .8.05 1.03h-.99q.05-.47.1-1.83v-.84q-.05-.94-.1-1.74.56.1 1.22.1h.14v-1.78h-.37q-.99 0-1.46.04v-.89q.43.05 1.46.05h.37v-1.78q0-.42-.09-.94 1.12 0 1.12.19 0 .09-.04.23-.14.28-.14.52v1.78h.37q.33 0 .66-.05h.37v.89q-.23-.04-1.03-.04h-.37v1.78h.18q.61 0 1.17-.1Zm9.94-4.78 1.03-.56q.66.98.94 1.64l-1.12.47q-.33-.84-.85-1.55Zm-3.7 2.67v-1.07q1.22.09 2.01.09h5.25q1.18 0 2.35-.09v1.07q-.99-.04-2.35-.09h-1.96v2.53h2.39q.93-.05 1.26-.05v1.04q-.94-.1-1.92-.1h-1.73v3.05h2.29q1.88 0 2.58-.09v1.03q-1.12-.05-2.53-.1h-5.81q-1.27 0-2.35.1v-1.03q.99.04 2.39.09h2.39v-3.05h-1.82q-1.08 0-1.93.1v-1.08q1.08.09 1.88.09h1.87v-2.53h-2.29q-1.08 0-1.97.09Z"/>
    </g>
  </g>
</svg>
