<svg xmlns="http://www.w3.org/2000/svg" color-interpolation-filters="sRGB" style="margin:auto" version="1.0" viewBox="0 0 340 250">
  <g fill="#333" class="basesvg">
    <g fill="red" class="tp-slogan" data-gra="path-slogan">
      <path d="M84.08999634 105.7269969h36.48000336v1H84.08999634zM209.4300003 105.7269969h36.48000337v1H209.4300003zM133.8619997 103.42299684l-.75-2.25h-1.39l.73 2.25Zm-1.82 5.54c.95-.93 1.68-2.08 2.14-3.47h-1.48c-.22.68-.59 1.37-1.12 1.99-.15-.71-.27-1.51-.36-2.45h3.08v-1.25h-3.18c-.02-.24-.04-.49-.05-.74l-.13-2.22h-1.44l.15 2.27c.01.24.04.47.05.69h-2.36v-1.2c.48-.06.93-.13 1.32-.24v-1.3c-.8.24-1.77.34-2.61.34h-2l.12 1.28h1.73v1.12h-2.3l.14 1.25h2.16v1.59l-2.33.39.26 1.26 2.07-.37v1.96c0 .33-.16.5-.41.52-.47.05-.94 0-1.38-.08l.32 1.27c.41.06.93.11 1.48.06.93-.08 1.43-.61 1.43-1.62v-2.37l1.66-.3v-1.26l-1.66.28v-1.33h2.48c.14 1.43.34 2.59.58 3.52-.7.5-1.55.91-2.57 1.2l.41 1.34c.96-.27 1.83-.67 2.61-1.19.09.21.18.4.29.57.6 1.01 1.32 1.49 3.06.92l.28-1.52c-1.22.49-1.8.31-2.18-.36-.09-.17-.18-.36-.26-.55Zm10.61-.88h1.39l-.88-3.02h-1.39Zm.56-5.96c.12-.42.18-.86.22-1.29h-1.36c-.11 1.11-.62 2.4-1.41 3.3l.46 1.62c.72-.8 1.28-1.61 1.66-2.43h2.1c.1 0 .16.03.17.16.01 1.83-.01 4.64-.12 6.34-.03.26-.16.4-.42.42-.63.08-1.29.04-1.91-.1l.31 1.19c.71.13 1.48.18 2.15.09.72-.1 1.12-.54 1.19-1.31.17-1.78.17-5.27.09-7.12-.02-.72-.32-.87-.92-.87Zm-3.99 5.05v2.58c0 .11-.08.18-.18.18h-1.35c-.11 0-.18-.07-.18-.18v-2.58Zm0-1.18h-1.71v-2.29c0-.11.07-.18.18-.18h1.35c.1 0 .18.07.18.18Zm-.46-3.69.29-1.48h-1.31l-.28 1.48h-.36c-.62 0-.96.33-.96.96v6.93c0 .63.34.96.96.96h2.52c.63 0 .96-.33.96-.96v-6.93c0-.63-.33-.96-.96-.96Zm15.01 7.62v-2.72h3.69v-1.28h-3.69v-2.3h4.06v-1.29h-4.06v-1.5h-1.51v1.5h-1.91c.13-.38.23-.8.29-1.26h-1.49c-.17 1.01-.63 2.01-1.75 2.95l.7 1.41c.61-.53 1.18-1.11 1.64-1.81h2.52v2.3h-3.88l.12 1.28h3.76v2.72h-4.69l.14 1.29h10.56v-1.29Zm6.03 1.69h1.54c.63-1.65 1.01-3.28 1.25-4.92h-1.44c-.26 1.64-.69 3.27-1.35 4.92Zm2.55-5.91v-1.29l-2.66-.84v1.29Zm.41-2.76v-1.29l-2.66-.84v1.29Zm2.33 4.95h3.3c.11 0 .18.07.18.18v1.95c0 .11-.07.18-.18.18h-3.3c-.11 0-.18-.07-.18-.18v-1.95c0-.11.07-.18.18-.18Zm2.37-1.2v-1.53h2.97v-1.2h-2.97v-1.41c.89-.05 1.76-.16 2.61-.37v-1.25c-1.27.33-2.55.45-3.96.45h-2.8l.19 1.2h2.52v1.38h-2.94l.2 1.2h2.74v1.53h-1.59c-.64 0-.99.33-.99.96v2.79c0 .63.35.96.99.96h4.63c.64 0 .97-.33.97-.96v-2.79c0-.63-.33-.96-.97-.96Zm14.4-3.27-.75-2.25h-1.39l.73 2.25Zm-1.82 5.54c.95-.93 1.68-2.08 2.14-3.47h-1.48c-.22.68-.59 1.37-1.12 1.99-.15-.71-.27-1.51-.36-2.45h3.08v-1.25h-3.18c-.02-.24-.04-.49-.05-.74l-.13-2.22h-1.44l.15 2.27c.01.24.04.47.05.69h-2.36v-1.2c.48-.06.93-.13 1.32-.24v-1.3c-.8.24-1.77.34-2.61.34h-2l.12 1.28h1.73v1.12h-2.3l.14 1.25h2.16v1.59l-2.33.39.26 1.26 2.07-.37v1.96c0 .33-.16.5-.41.52-.47.05-.94 0-1.38-.08l.32 1.27c.41.06.93.11 1.48.06.93-.08 1.43-.61 1.43-1.62v-2.37l1.66-.3v-1.26l-1.66.28v-1.33h2.48c.14 1.43.34 2.59.58 3.52-.7.5-1.55.91-2.57 1.2l.41 1.34c.96-.27 1.83-.67 2.61-1.19.09.21.18.4.29.57.6 1.01 1.32 1.49 3.06.92l.28-1.52c-1.22.49-1.8.31-2.18-.36-.09-.17-.18-.36-.26-.55Zm7.61 1.02v-2.91c0-.12.06-.18.18-.18h.59c.12 0 .18.06.18.18v2.91c0 .12-.06.18-.18.18h-.59c-.12 0-.18-.06-.18-.18Zm6.27-6.3h.4v-1.16h-2.17c.12-.57.18-1.15.19-1.7h-1.33c-.1 1.45-.47 3.06-1.25 4.3l.4 1.42c.19-.21.37-.43.54-.67.12 1.03.38 1.91.79 2.75-.39.54-.87 1.03-1.49 1.56l.47 1.48c.72-.58 1.31-1.17 1.77-1.8.42.58.93 1.16 1.53 1.77l.47-1.59c-.48-.5-.89-.95-1.24-1.43.61-1.29.89-2.83.92-4.93Zm-1.28 0c-.01 1.46-.14 2.54-.42 3.43-.25-.75-.38-1.62-.4-2.74h-.26c.1-.23.19-.45.28-.69Zm-3.84 2.01v-1.76h1.42v-1.2h-1.42v-1.91h-1.36v1.91h-1.41l.09 1.2h1.32v1.76h-.16c-.65 0-.96.31-.96.96v3.75c0 .64.31.96.96.96h1.69c.65 0 .96-.32.96-.96v-3.75c0-.65-.31-.96-.96-.96Zm-4.56-.72c1.09-.99 2-2.48 2.21-4.15h-1.38c-.24 1.37-.93 2.64-2.15 3.74l.44 1.29h.9v5.77h1.38v-5.81c0-.54-.25-.84-.79-.84Zm16.14-2.46h1.46v-1.73h-1.46Zm1.46 7.43v-2.57h3.68v-1.25h-3.68v-2.14h4.11v-1.25h-9.66l.12 1.25h3.97v2.14h-3.66l.12 1.25h3.54v2.57h-4.57l.12 1.25h10.5v-1.25Z"/>
    </g>
  </g>
</svg>
