<svg xmlns="http://www.w3.org/2000/svg" color-interpolation-filters="sRGB" style="margin:auto" version="1.0" viewBox="0 0 340 250">
  <g fill="#feffff" class="linesvg">
    <path d="M60.88674927 89.3199997h218.22650146v5H60.88674927z"/>
    <g>
      <path d="M82.01999449 122.30999878h-12.89v16.97h-5.37v-39.32h18.26q13.1 0 13.1 10.53 0 6.45-5.58 9.45 4.72 1.29 4.72 7.52l.43 7.09q-.21 3.01 1.94 3.87v.86h-6.66q-.65-2.79-.86-9.88.21-7.09-7.09-7.09Zm.43-18.05h-13.32v13.54h12.46q7.95 0 7.95-6.88 0-6.66-7.09-6.66Zm39.31 26h4.73q-.86 4.94-5.16 7.95-2.36 1.5-7.73 1.5-12.25-.43-12.89-13.97.43-15.68 13.75-16.11 12.25.22 12.46 16.97h-21.05q0 9.46 8.37 9.46 6.02-.43 7.52-5.8Zm-15.89-7.52h16.11q-.65-8.6-8.16-8.6-7.09.65-7.95 8.6Zm45.76-22.78h4.72v39.32h-4.51v-3.87q-2.58 4.3-8.16 4.3-12.03-.43-12.68-15.68.65-13.75 12.03-14.4 4.52 0 8.17 4.3.21.43.43.64V99.95999878Zm-15.69 24.93q.43 10.74 7.74 11.17 7.73-.86 7.95-9.67 0-12.25-7.74-12.25-8.16 0-7.95 10.75Zm46.84 5.37h4.73q-.86 4.94-5.16 7.95-2.36 1.5-7.73 1.5-12.25-.43-12.89-13.97.43-15.68 13.75-16.11 12.24.22 12.46 16.97h-21.06q0 9.46 8.38 9.46 6.02-.43 7.52-5.8Zm-15.9-7.52h16.11q-.64-8.6-8.16-8.6-7.09.65-7.95 8.6Zm37.6-12.25v4.08h-4.94v24.71h-4.73v-24.71h-3.87v-4.08h3.87v-4.73q0-6.44 7.31-6.44 1.29 0 2.36.21v4.09h-2.15q-2.79 0-2.79 3.43v3.44h4.94Zm4.51 0h4.94v28.79h-4.94v-28.79Zm4.94-10.53v5.37h-4.94v-5.37h4.94Zm30.3 19.77v19.55h-4.73v-17.62q.43-7.95-6.23-7.52-7.31.43-7.52 9.46v15.68h-4.94v-28.79h4.72v4.08q3.44-4.94 8.81-4.94 9.67.22 9.89 10.1Zm26.85 10.53h4.73q-.86 4.94-5.16 7.95-2.36 1.5-7.73 1.5-12.25-.43-12.89-13.97.43-15.68 13.75-16.11 12.24.22 12.46 16.97h-21.06q0 9.46 8.38 9.46 6.02-.43 7.52-5.8Zm-15.9-7.52h16.12q-.65-8.6-8.17-8.6-7.09.65-7.95 8.6Z" class="tp-name" data-gra="path-name"/>
      <g class="tp-slogan" data-gra="path-slogan" mask="url(#a)" transform="translate(60.88674927 145.70999908)">
        <path d="M0 0h218.22649493v14.97000027H0z" class="i-icon-bg" data-gra="graph-name-bg"/>
        <path fill="#020202" d="M15.24262277 2.05q1.32 0 1.36.14 0 .04-.04.14-.14.37-.19 1.03-.05.51-.05 2.11h2.49q1.12 0 1.36-.05v.94q-.19-.05-1.36-.05h-2.49q.14 1.69.52 3 1.03-1.31 1.45-2.44 1.08.52 1.13.66 0 .09-.19.19-.24.14-.33.28-.05.09-.19.28-.75 1.13-1.5 1.83.66 1.17 1.74 1.59.28 0 .37-1.36.56.61 1.08.8-.52 1.74-.98 1.74-1.46 0-2.91-2.11-1.08.79-2.34 1.4-.29-.42-.75-.7l-.1-.05q1.5-.47 2.77-1.45-.56-1.78-.61-3.66h-2.39V8q.65-.14 1.45-.47.24-.05.33-.09l-.05 1.08q-.23.04-.61.14-.37.04-1.12.23v2.72q.19.89-2.02 1.12 0-.51-.28-.98-.05-.09-.05-.14 1.41.14 1.46-.47V9.12q-1.46.38-2.16.75l-.37-1.17q1.31-.18 2.53-.51V6.31h-1.08q-1.08 0-1.31.05v-.94q.18.05 1.26.05h1.13V3.92q.04.05-.75.24-.66.14-1.08.23-.19-.52-.52-.94 2.02-.04 4.18-.98.14.19.42.42.51.52.42.56-.05.1-.28.1-.71 0-1.5.18v1.74h2.34q0-1.88-.19-3.42Zm2.02 1.22.89-.61q.75.79 1.36 1.78l-.94.61q-.47-.94-1.31-1.78Zm30.63-1.27q1.27.37 1.27.52 0 .04-.1.09-.18.09-.23.28-.42.7-.66 1.45h1.74q1.03 0 1.59-.04-.37 6.14-.47 7.22-.14 1.31-2.57 1.4-.15-.7-.57-1.22 1.27.24 1.92-.04.33.04.47-4.18.1-1.5.14-2.39h-2.57q-.47.89-1.13 2.07-.42-.29-.84-.38V11q0 1.17.04 1.5h-1.07q.04-.42.04-1.13h-2.29q0 .71.04 1.22h-1.08q.05-.42.05-1.54V6.03q0-.19-.05-.89v-.75q.71.05 1.04.05h.32q.14-.75.24-2.3 1.31.14 1.22.33 0 .09-.1.19-.09.09-.14.23-.14.33-.28.94-.09.37-.14.61h.8q.37 0 1.4-.05-.04.33-.04 1.5v.66q1.45-1.64 2.01-4.55Zm-3 3.19h-2.29v2.43h2.29V5.19Zm2.21 2.39.79-.47q.28.37.99 1.73.18.28.23.43l-.89.46q-.14-.56-1.12-2.15Zm-2.21.75h-2.29v2.29h2.29V8.33Zm32.6-6.1q1.22 0 1.46.19 0 .05-.1.14-.28.42-.28.94v1.64h2.02q1.12 0 1.69-.09h.14v1.03h-.1q-.75-.1-1.73-.1h-2.02v2.16h1.6q.98 0 1.54-.09h.1v1.07h-.1q-.56-.09-1.54-.09h-1.6v2.53h2.63q.89 0 1.59-.09h.14v1.03h-.14q-.61-.09-1.59-.09h-6.71q-.84 0-1.64.09h-.14v-1.03h.19q.75.09 1.59.09h3.1V9.03h-1.45q-.85 0-1.55.09h-.14V8.05h.14q.75.09 1.55.09h1.45V5.98h-2.81q-.71 1.22-1.08 1.83-.28-.14-.8-.28l-.23-.09q1.64-1.74 2.06-4.32 1.26.29 1.36.52 0 .05-.14.19-.42.47-.75 1.31h2.39V3.41q0-.52-.1-1.04v-.14Zm35.33 0q.46.71.56 1.13h-.14q-.33-.05-.66 0-.14 0-.75.09-.7.1-1.03.14v1.78h1.92q.94 0 1.55-.09h.09v1.13h-.09q-.66-.1-1.55-.1h-1.92v1.55h1.17q.89 0 1.27-.09-.1.37-.1 1.4v1.69q.05.84.1 1.5v.33h-1.13q.1-.19.1-.94h-3.75q0 .8.09.98h-1.17v-.23q.09-.66.09-1.36V9.22q0-.94-.14-1.45.38.09 1.36.09h1.13v-1.5h-1.6q-.79 0-1.4.09h-.24V5.28h.14q.61.09 1.46.09h1.64V3.73q-.94.14-2.35.33-.14-.33-.47-.79l-.09-.19q3.09.04 5.91-.85Zm-8.54 1.04.66-.9q.61.33 1.92 1.27l-.65.89q-.94-.8-1.93-1.26Zm-.6 2.9.51-.89q1.13.42 2.06 1.03l-.56.99q-.66-.57-2.01-1.13Zm1.54 1.55 1.03.51q-.14.61-.37 1.55-.28 1.17-.52 1.92-.09.19-.09.66-.05.33-.09.37-.1.1-1.13-.79.75-1.64 1.17-4.22Zm6.94 3.23v-2.2h-3.7v2.2h3.7Zm28.43-8.9q1.31 0 1.36.14 0 .04-.05.14-.14.37-.19 1.03-.04.51-.04 2.11h2.48q1.13 0 1.36-.05v.94q-.19-.05-1.36-.05h-2.48q.14 1.69.51 3 1.03-1.31 1.46-2.44 1.07.52 1.12.66 0 .09-.19.19-.23.14-.32.28-.05.09-.19.28-.75 1.13-1.5 1.83.65 1.17 1.73 1.59.28 0 .38-1.36.56.61 1.08.8-.52 1.74-.99 1.74-1.45 0-2.9-2.11-1.08.79-2.35 1.4-.28-.42-.75-.7l-.09-.05q1.5-.47 2.76-1.45-.56-1.78-.61-3.66h-2.39V8q.66-.14 1.46-.47.23-.05.32-.09l-.04 1.08q-.24.04-.61.14-.38.04-1.13.23v2.72q.19.89-2.01 1.12 0-.51-.28-.98-.05-.09-.05-.14 1.41.14 1.45-.47V9.12q-1.45.38-2.15.75l-.38-1.17q1.31-.18 2.53-.51V6.31h-1.08q-1.07 0-1.31.05v-.94q.19.05 1.27.05h1.12V3.92q.05.05-.75.24-.65.14-1.08.23-.18-.52-.51-.94 2.01-.04 4.17-.98.14.19.42.42.52.52.42.56-.04.1-.28.1-.7 0-1.5.18v1.74h2.35q0-1.88-.19-3.42Zm2.02 1.22.89-.61q.75.79 1.36 1.78l-.94.61q-.47-.94-1.31-1.78Zm25.8-1.27q1.17.37 1.17.61 0 .09-.14.19-.14.14-.19.28-.28.79-.7 1.59v5.91q0 1.55.05 2.25h-.94q0-.24.05-.89.04-.8.04-1.32V6.08l-.98 1.83-.75-.8q1.73-1.92 2.39-5.11Zm5.72.14q1.31.23 1.31.42 0 .05-.14.19-.14.19-.23.37l-.38.94q-.14.33-.23.56h1.08q.79 0 1.64-.09v.99q-.29-.05-.94-.05-.14 3.56-1.08 4.97.94.98 1.97 1.4-.52.33-.94.89-.84-.65-1.59-1.54-.85.89-2.25 1.78-.28-.38-.89-.75 1.64-.47 2.62-1.74-.7-1.45-.89-3.32l-.14.28q-.28-.28-.84-.47 1.12-1.45 1.92-4.83Zm1.22 3.33h-1.22q-.33.56-.75 1.4l.7-.09q-.04 1.13.52 2.91.65-1.74.75-4.22Zm-3.42 2.58h-1.74v2.06h1.74V8.05Zm.89-.71q-.05.38-.05 1.32v1.26q0 1.08.09 1.5h-.98q0-.19.05-.7h-1.74q0 .8.05 1.03h-.99q.05-.47.1-1.83v-.84q-.05-.94-.1-1.74.57.1 1.22.1h.14V5.66h-.37q-.99 0-1.45.04v-.89q.42.05 1.45.05h.37V3.08q0-.42-.09-.94 1.12 0 1.12.19 0 .09-.04.23-.14.28-.14.52v1.78h.37q.33 0 .66-.05h.37v.89q-.23-.04-1.03-.04h-.37v1.78h.18q.61 0 1.18-.1Zm29.27-4.78 1.03-.56q.66.98.94 1.64l-1.13.47q-.32-.84-.84-1.55Zm-3.7 2.67V4.16q1.22.09 2.01.09h5.25q1.18 0 2.35-.09v1.07q-.99-.04-2.35-.09h-1.97v2.53h2.4q.93-.05 1.26-.05v1.04q-.94-.1-1.92-.1h-1.74v3.05h2.3q1.88 0 2.58-.09v1.03q-1.13-.05-2.53-.1h-5.81q-1.27 0-2.35.1v-1.03q.99.04 2.39.09h2.39V8.56h-1.82q-1.08 0-1.93.1V7.58q1.08.09 1.88.09h1.87V5.14h-2.29q-1.08 0-1.97.09Z"/>
      </g>
    </g>
  </g>
  <mask id="a">
    <path fill="#fff" stroke-width="2" d="M0 0h218.22649493v14.97000027H0z" class="i-icon-bg" data-gra="graph-name-bg"/>
    <path d="M15.24262277 2.05q1.32 0 1.36.14 0 .04-.04.14-.14.37-.19 1.03-.05.51-.05 2.11h2.49q1.12 0 1.36-.05v.94q-.19-.05-1.36-.05h-2.49q.14 1.69.52 3 1.03-1.31 1.45-2.44 1.08.52 1.13.66 0 .09-.19.19-.24.14-.33.28-.05.09-.19.28-.75 1.13-1.5 1.83.66 1.17 1.74 1.59.28 0 .37-1.36.56.61 1.08.8-.52 1.74-.98 1.74-1.46 0-2.91-2.11-1.08.79-2.34 1.4-.29-.42-.75-.7l-.1-.05q1.5-.47 2.77-1.45-.56-1.78-.61-3.66h-2.39V8q.65-.14 1.45-.47.24-.05.33-.09l-.05 1.08q-.23.04-.61.14-.37.04-1.12.23v2.72q.19.89-2.02 1.12 0-.51-.28-.98-.05-.09-.05-.14 1.41.14 1.46-.47V9.12q-1.46.38-2.16.75l-.37-1.17q1.31-.18 2.53-.51V6.31h-1.08q-1.08 0-1.31.05v-.94q.18.05 1.26.05h1.13V3.92q.04.05-.75.24-.66.14-1.08.23-.19-.52-.52-.94 2.02-.04 4.18-.98.14.19.42.42.51.52.42.56-.05.1-.28.1-.71 0-1.5.18v1.74h2.34q0-1.88-.19-3.42Zm2.02 1.22.89-.61q.75.79 1.36 1.78l-.94.61q-.47-.94-1.31-1.78Zm30.63-1.27q1.27.37 1.27.52 0 .04-.1.09-.18.09-.23.28-.42.7-.66 1.45h1.74q1.03 0 1.59-.04-.37 6.14-.47 7.22-.14 1.31-2.57 1.4-.15-.7-.57-1.22 1.27.24 1.92-.04.33.04.47-4.18.1-1.5.14-2.39h-2.57q-.47.89-1.13 2.07-.42-.29-.84-.38V11q0 1.17.04 1.5h-1.07q.04-.42.04-1.13h-2.29q0 .71.04 1.22h-1.08q.05-.42.05-1.54V6.03q0-.19-.05-.89v-.75q.71.05 1.04.05h.32q.14-.75.24-2.3 1.31.14 1.22.33 0 .09-.1.19-.09.09-.14.23-.14.33-.28.94-.09.37-.14.61h.8q.37 0 1.4-.05-.04.33-.04 1.5v.66q1.45-1.64 2.01-4.55Zm-3 3.19h-2.29v2.43h2.29V5.19Zm2.21 2.39.79-.47q.28.37.99 1.73.18.28.23.43l-.89.46q-.14-.56-1.12-2.15Zm-2.21.75h-2.29v2.29h2.29V8.33Zm32.6-6.1q1.22 0 1.46.19 0 .05-.1.14-.28.42-.28.94v1.64h2.02q1.12 0 1.69-.09h.14v1.03h-.1q-.75-.1-1.73-.1h-2.02v2.16h1.6q.98 0 1.54-.09h.1v1.07h-.1q-.56-.09-1.54-.09h-1.6v2.53h2.63q.89 0 1.59-.09h.14v1.03h-.14q-.61-.09-1.59-.09h-6.71q-.84 0-1.64.09h-.14v-1.03h.19q.75.09 1.59.09h3.1V9.03h-1.45q-.85 0-1.55.09h-.14V8.05h.14q.75.09 1.55.09h1.45V5.98h-2.81q-.71 1.22-1.08 1.83-.28-.14-.8-.28l-.23-.09q1.64-1.74 2.06-4.32 1.26.29 1.36.52 0 .05-.14.19-.42.47-.75 1.31h2.39V3.41q0-.52-.1-1.04v-.14Zm35.33 0q.46.71.56 1.13h-.14q-.33-.05-.66 0-.14 0-.75.09-.7.1-1.03.14v1.78h1.92q.94 0 1.55-.09h.09v1.13h-.09q-.66-.1-1.55-.1h-1.92v1.55h1.17q.89 0 1.27-.09-.1.37-.1 1.4v1.69q.05.84.1 1.5v.33h-1.13q.1-.19.1-.94h-3.75q0 .8.09.98h-1.17v-.23q.09-.66.09-1.36V9.22q0-.94-.14-1.45.38.09 1.36.09h1.13v-1.5h-1.6q-.79 0-1.4.09h-.24V5.28h.14q.61.09 1.46.09h1.64V3.73q-.94.14-2.35.33-.14-.33-.47-.79l-.09-.19q3.09.04 5.91-.85Zm-8.54 1.04.66-.9q.61.33 1.92 1.27l-.65.89q-.94-.8-1.93-1.26Zm-.6 2.9.51-.89q1.13.42 2.06 1.03l-.56.99q-.66-.57-2.01-1.13Zm1.54 1.55 1.03.51q-.14.61-.37 1.55-.28 1.17-.52 1.92-.09.19-.09.66-.05.33-.09.37-.1.1-1.13-.79.75-1.64 1.17-4.22Zm6.94 3.23v-2.2h-3.7v2.2h3.7Zm28.43-8.9q1.31 0 1.36.14 0 .04-.05.14-.14.37-.19 1.03-.04.51-.04 2.11h2.48q1.13 0 1.36-.05v.94q-.19-.05-1.36-.05h-2.48q.14 1.69.51 3 1.03-1.31 1.46-2.44 1.07.52 1.12.66 0 .09-.19.19-.23.14-.32.28-.05.09-.19.28-.75 1.13-1.5 1.83.65 1.17 1.73 1.59.28 0 .38-1.36.56.61 1.08.8-.52 1.74-.99 1.74-1.45 0-2.9-2.11-1.08.79-2.35 1.4-.28-.42-.75-.7l-.09-.05q1.5-.47 2.76-1.45-.56-1.78-.61-3.66h-2.39V8q.66-.14 1.46-.47.23-.05.32-.09l-.04 1.08q-.24.04-.61.14-.38.04-1.13.23v2.72q.19.89-2.01 1.12 0-.51-.28-.98-.05-.09-.05-.14 1.41.14 1.45-.47V9.12q-1.45.38-2.15.75l-.38-1.17q1.31-.18 2.53-.51V6.31h-1.08q-1.07 0-1.31.05v-.94q.19.05 1.27.05h1.12V3.92q.05.05-.75.24-.65.14-1.08.23-.18-.52-.51-.94 2.01-.04 4.17-.98.14.19.42.42.52.52.42.56-.04.1-.28.1-.7 0-1.5.18v1.74h2.35q0-1.88-.19-3.42Zm2.02 1.22.89-.61q.75.79 1.36 1.78l-.94.61q-.47-.94-1.31-1.78Zm25.8-1.27q1.17.37 1.17.61 0 .09-.14.19-.14.14-.19.28-.28.79-.7 1.59v5.91q0 1.55.05 2.25h-.94q0-.24.05-.89.04-.8.04-1.32V6.08l-.98 1.83-.75-.8q1.73-1.92 2.39-5.11Zm5.72.14q1.31.23 1.31.42 0 .05-.14.19-.14.19-.23.37l-.38.94q-.14.33-.23.56h1.08q.79 0 1.64-.09v.99q-.29-.05-.94-.05-.14 3.56-1.08 4.97.94.98 1.97 1.4-.52.33-.94.89-.84-.65-1.59-1.54-.85.89-2.25 1.78-.28-.38-.89-.75 1.64-.47 2.62-1.74-.7-1.45-.89-3.32l-.14.28q-.28-.28-.84-.47 1.12-1.45 1.92-4.83Zm1.22 3.33h-1.22q-.33.56-.75 1.4l.7-.09q-.04 1.13.52 2.91.65-1.74.75-4.22Zm-3.42 2.58h-1.74v2.06h1.74V8.05Zm.89-.71q-.05.38-.05 1.32v1.26q0 1.08.09 1.5h-.98q0-.19.05-.7h-1.74q0 .8.05 1.03h-.99q.05-.47.1-1.83v-.84q-.05-.94-.1-1.74.57.1 1.22.1h.14V5.66h-.37q-.99 0-1.45.04v-.89q.42.05 1.45.05h.37V3.08q0-.42-.09-.94 1.12 0 1.12.19 0 .09-.04.23-.14.28-.14.52v1.78h.37q.33 0 .66-.05h.37v.89q-.23-.04-1.03-.04h-.37v1.78h.18q.61 0 1.18-.1Zm29.27-4.78 1.03-.56q.66.98.94 1.64l-1.13.47q-.32-.84-.84-1.55Zm-3.7 2.67V4.16q1.22.09 2.01.09h5.25q1.18 0 2.35-.09v1.07q-.99-.04-2.35-.09h-1.97v2.53h2.4q.93-.05 1.26-.05v1.04q-.94-.1-1.92-.1h-1.74v3.05h2.3q1.88 0 2.58-.09v1.03q-1.13-.05-2.53-.1h-5.81q-1.27 0-2.35.1v-1.03q.99.04 2.39.09h2.39V8.56h-1.82q-1.08 0-1.93.1V7.58q1.08.09 1.88.09h1.87V5.14h-2.29q-1.08 0-1.97.09Z"/>
  </mask>
</svg>
