<svg xmlns="http://www.w3.org/2000/svg" color-interpolation-filters="sRGB" style="margin:auto" version="1.0" viewBox="0 0 340 250">
  <g class="linesvg">
    <g class="tp-name">
      <g mask="url(#a)" transform="translate(120.55599976 89.37799835)">
        <path stroke="#000" stroke-width="2" d="M0 0h48.944v48.944H0z" data-gra="graph-name"/>
        <path fill="#fff" d="M41.82650018 45.334h-10.919l-9.943-15.433h-4.575v15.433h-9.272V3h14.396q4.27 0 7.3566.732 3.0744.732 5.0874 2.318t2.9646 4.148q.9394 2.562.9394 6.222 0 5.307-1.9154 8.296-1.9276 2.989-6.0146 4.209l11.895 16.409Zm-25.437-22.326h3.721q2.318 0 3.965-.2806 1.647-.2684 2.6596-1.0004 1.0004-.732 1.464-2.013.4514-1.281.4514-3.294 0-1.891-.4514-3.0866-.4636-1.1834-1.464-1.8544-1.0126-.671-2.6596-.915-1.647-.244-3.965-.244h-3.721v12.688Z" data-gra="path-name"/>
      </g>
      <path fill="none" stroke="#000" stroke-width="2" d="M170.49999976 89.37799835h48.944v48.944h-48.944z"/>
      <path d="M210.16099963 115.61899835q0 1.403-.0854 2.6474-.0976 1.2566-.2196 1.9276l-21.228 1.342q.244 3.538 2.379 5.185 2.135 1.647 6.527 1.647 1.525 0 3.111-.2196 1.586-.2074 3.05-.5124 1.464-.305 2.7206-.732 1.2444-.427 2.0374-.854v6.954q-.732.427-1.9764.854-1.2566.427-2.9036.732t-3.6234.5246q-1.9886.2074-4.1236.2074-3.782 0-6.771-.793t-5.0264-2.745q-2.0496-1.952-3.1476-5.246-1.098-3.294-1.098-8.296 0-5.002 1.098-8.296 1.098-3.294 3.172-5.246 2.074-1.952 5.124-2.745 3.05-.793 6.893-.793 4.27 0 7.015 1.0614 2.745 1.0736 4.331 2.989 1.586 1.9276 2.1716 4.575.5734 2.6596.5734 5.8316Zm-21.533-.244 13.481-1.037q0-1.342-.2074-2.5376-.2196-1.1834-.854-2.074-.6466-.8784-1.83-1.403-1.1956-.5124-3.1476-.5124-2.074 0-3.4404.4514-1.3786.4636-2.2326 1.3786-.854.915-1.281 2.3424-.427 1.4396-.488 3.3916Z" data-gra="path-name"/>
    </g>
    <path fill-rule="evenodd" d="m191.44999924 149.4219986 6 5.6-1.8-6.7 1.1-.3 2.2 8.3-1.3.3-6-5.5 1.8 6.7-1.1.3-2.2-8.3 1.3-.4Zm-48.2 6.4 5 1.3-.3 1-6.1-1.6 2.2-8.3 6 1.6-.3 1-4.9-1.3-.6 2.6 4.5 1.2-.3 1-4.5-1.2-.7 2.7Zm22.7 3.7 5.2.1v1l-6.3-.1.1-8.6 6.3.1-.1 1-5-.1-.1 2.7 4.7.1v1l-4.7-.1-.1 2.9Zm38.7-6.3 4.8-1.9.4.9-5.9 2.4-3.2-8 5.8-2.3.4.9-4.7 1.9 1 2.5 4.3-1.8.4 1-4.3 1.7 1 2.7Zm-69-2.7-2.6-1.1-1.4 3.5-1.1-.5 3.2-7.9 3.7 1.4a2.3 2.3 0 0 1 1.8 3.2 2.2 2.2 0 0 1-1.9 1.5 1.5 1.5 0 0 1 .4 1.9l-.5 1.5a1.6 1.6 0 0 0-.1.1.7.7 0 0 0 .2.8l-.1.2-1.4-.6a12.8 12.8 0 0 1 .7-2 2.9 2.9 0 0 0 0-.1 1.3 1.3 0 0 0-.9-1.9Zm45.4 5.6-4.2.4.4 3.8-1.2.1-.8-8.5 6-.6.1 1-4.8.5.2 2.6 4.2-.4.1 1.1Zm-24.8 3.5-3.5-.5 1.2-8.5 3.5.5a3.7 3.7 0 0 1 3 4.7 3.8 3.8 0 0 1-4.2 3.8Zm.9-7.6-2.2-.3-.9 6.6 2.3.3a2.8 2.8 0 0 0 2.9-2.9 2.8 2.8 0 0 0-2.1-3.7Zm27.6-1.2 1.2-.2 1.4 8.4-1.1.2-1.5-8.4Zm-56.9-3.5-.5.8-5.3-2.8.4-.8 5.4 2.8Zm89.6-2.8.5.8-5.4 2.8-.4-.8 5.3-2.8Zm-80.3 2.3-2.7-1-1.1 2.7 2.6 1a1.4 1.4 0 0 0 2.1-.8 1.3 1.3 0 0 0-.9-1.9Z" class="tp-slogan" data-gra="path-slogan"/>
  </g>
  <mask id="a">
    <path fill="#fff" stroke="#fff" stroke-width="2" d="M0 0h48.944v48.944H0z" data-gra="graph-name"/>
    <path d="M41.82650018 45.334h-10.919l-9.943-15.433h-4.575v15.433h-9.272V3h14.396q4.27 0 7.3566.732 3.0744.732 5.0874 2.318t2.9646 4.148q.9394 2.562.9394 6.222 0 5.307-1.9154 8.296-1.9276 2.989-6.0146 4.209l11.895 16.409Zm-25.437-22.326h3.721q2.318 0 3.965-.2806 1.647-.2684 2.6596-1.0004 1.0004-.732 1.464-2.013.4514-1.281.4514-3.294 0-1.891-.4514-3.0866-.4636-1.1834-1.464-1.8544-1.0126-.671-2.6596-.915-1.647-.244-3.965-.244h-3.721v12.688Z" data-gra="path-name"/>
  </mask>
</svg>
