<svg xmlns="http://www.w3.org/2000/svg" color-interpolation-filters="sRGB" style="margin:auto" version="1.0" viewBox="0 0 340 250">
  <g fill="#333" class="basesvg">
    <path d="M110.83999863 128.03699959q.5.75.5 1.45 0 .96-.77 1.59-.77.62-1.81.62-.67 0-1.27-.31-.61-.31-1.02-.94l-5.54-8.41q-.84-1.33-1.77-1.87-.94-.54-2.44-.54h-4.08v9.32q0 1.25-.71 1.98-.7.73-1.91.73t-1.94-.73q-.73-.73-.73-1.98v-24.35q0-1.21.69-1.88.69-.66 1.9-.66h10.4q5 0 7.6 2.22 2.61 2.23 2.61 6.44 0 3.41-1.94 5.6-1.94 2.18-5.48 2.81 1.21.29 2.13 1.04.91.75 1.79 2.08l3.79 5.79Zm-11.24-12.53q3.03 0 4.45-1.15 1.42-1.14 1.42-3.52 0-2.41-1.42-3.52-1.42-1.1-4.45-1.1h-7v9.29h7Zm32.35 10.32q.7 0 1.14.54.44.54.44 1.46 0 1.29-1.54 2.16-1.42.8-3.21 1.27-1.79.48-3.41.48-4.91 0-7.79-2.83-2.87-2.83-2.87-7.74 0-3.13 1.25-5.54t3.52-3.75q2.27-1.33 5.14-1.33 2.75 0 4.79 1.21t3.16 3.41q1.13 2.21 1.13 5.21 0 1.79-1.59 1.79h-12.28q.25 2.87 1.62 4.22 1.38 1.36 4 1.36 1.33 0 2.35-.34 1.02-.33 2.31-.91 1.25-.67 1.84-.67Zm-7.21-11.62q-2.12 0-3.39 1.34-1.27 1.33-1.52 3.83h9.41q-.08-2.54-1.25-3.85-1.16-1.32-3.25-1.32Zm30.19-12.36q1.17 0 1.91.66.75.67.75 1.75v24.9q0 1.13-.7 1.79-.71.67-1.88.67-1.16 0-1.87-.67-.71-.66-.71-1.79v-1.04q-.91 1.71-2.64 2.67-1.73.95-3.94.95-2.62 0-4.68-1.33-2.06-1.33-3.21-3.77-1.14-2.43-1.14-5.6 0-3.16 1.14-5.53 1.15-2.38 3.19-3.67t4.7-1.29q2.21 0 3.92.92 1.7.91 2.62 2.58v-9.87q0-1.04.69-1.69.68-.64 1.85-.64Zm-7.7 25.85q2.5 0 3.85-1.7 1.35-1.71 1.35-4.87 0-3.17-1.35-4.85-1.35-1.69-3.81-1.69-2.5 0-3.87 1.66-1.38 1.67-1.38 4.79 0 3.17 1.38 4.92 1.37 1.74 3.83 1.74Zm31.85-1.87q.71 0 1.14.54.44.54.44 1.46 0 1.29-1.54 2.16-1.42.8-3.21 1.27-1.79.48-3.41.48-4.91 0-7.79-2.83-2.87-2.83-2.87-7.74 0-3.13 1.25-5.54t3.52-3.75q2.27-1.33 5.14-1.33 2.75 0 4.79 1.21t3.16 3.41q1.13 2.21 1.13 5.21 0 1.79-1.58 1.79h-12.29q.25 2.87 1.63 4.22 1.37 1.36 3.99 1.36 1.34 0 2.36-.34 1.02-.33 2.31-.91 1.25-.67 1.83-.67Zm-7.2-11.62q-2.13 0-3.4 1.34-1.27 1.33-1.52 3.83h9.41q-.08-2.54-1.25-3.85-1.16-1.32-3.24-1.32Zm30.56-7.28q-1.42 0-2.25-.77-.83-.77-.83-2.02t.83-2q.83-.75 2.25-.75 1.37 0 2.22.75.86.75.86 2t-.86 2.02q-.85.77-2.22.77Zm.25 4.12q2.33 0 2.33 1.96v16.15q0 1.21-.73 1.85-.73.65-1.85.65-1.13 0-1.88-.65-.75-.64-.75-1.85v-14.2h-8.24v14.2q0 1.21-.73 1.83-.73.63-1.85.63-1.13 0-1.88-.63-.75-.62-.75-1.83v-14.2h-2.08q-2.33 0-2.33-1.95 0-1.96 2.33-1.96h2.08v-.21q0-3.87 2.07-6.14 2.06-2.27 5.8-2.6l.96-.09q.21-.04.63-.04 2.2 0 2.2 1.88 0 .91-.5 1.41-.5.5-1.37.59l-.92.08q-1.91.17-2.79 1.19-.87 1.02-.87 2.97v.96h11.12Zm19.57-.5q3.66 0 5.45 2.08t1.79 6.29v10.24q0 1.17-.69 1.83-.68.67-1.89.67t-1.92-.67q-.7-.66-.7-1.83v-9.95q0-2.37-.9-3.46-.9-1.08-2.81-1.08-2.25 0-3.6 1.42-1.35 1.41-1.35 3.79v9.28q0 1.17-.71 1.83-.71.67-1.92.67t-1.89-.67q-.69-.66-.69-1.83v-16.11q0-1.08.71-1.75.71-.67 1.91-.67 1.09 0 1.77.65.69.64.69 1.69v1.12q1.04-1.71 2.79-2.62 1.75-.92 3.96-.92Zm28.64 15.28q.71 0 1.15.54.43.54.43 1.46 0 1.29-1.54 2.16-1.41.8-3.2 1.27-1.79.48-3.42.48-4.91 0-7.78-2.83-2.88-2.83-2.88-7.74 0-3.13 1.25-5.54t3.52-3.75q2.27-1.33 5.14-1.33 2.75 0 4.79 1.21t3.17 3.41q1.12 2.21 1.12 5.21 0 1.79-1.58 1.79h-12.29q.25 2.87 1.63 4.22 1.37 1.36 4 1.36 1.33 0 2.35-.34 1.02-.33 2.31-.91 1.25-.67 1.83-.67Zm-7.2-11.62q-2.13 0-3.4 1.34-1.27 1.33-1.52 3.83h9.41q-.08-2.54-1.24-3.85-1.17-1.32-3.25-1.32Z" class="tp-name" data-gra="path-name"/>
    <path fill="#000" d="m138.86199993 140.37299951-.75-2.25h-1.39l.73 2.25Zm-1.82 5.54c.95-.93 1.68-2.08 2.14-3.47h-1.48c-.22.68-.59 1.37-1.12 1.99-.15-.71-.27-1.51-.36-2.45h3.08v-1.25h-3.18c-.02-.24-.04-.49-.05-.74l-.13-2.22h-1.44l.15 2.27c.01.24.04.47.05.69h-2.36v-1.2c.48-.06.93-.13 1.32-.24v-1.3c-.8.24-1.77.34-2.61.34h-2l.12 1.28h1.73v1.12h-2.3l.14 1.25h2.16v1.59l-2.33.39.26 1.26 2.07-.37v1.96c0 .33-.16.5-.41.52-.47.05-.94 0-1.38-.08l.32 1.27c.41.06.93.11 1.48.06.93-.08 1.43-.61 1.43-1.62v-2.37l1.66-.3v-1.26l-1.66.28v-1.33h2.48c.14 1.43.34 2.59.58 3.52-.7.5-1.55.91-2.57 1.2l.41 1.34c.96-.27 1.83-.67 2.61-1.19.09.21.18.4.29.57.6 1.01 1.32 1.49 3.06.92l.28-1.52c-1.22.49-1.8.31-2.18-.36-.09-.17-.18-.36-.26-.55Zm10.61-.88h1.39l-.88-3.02h-1.39Zm.56-5.96c.12-.42.18-.86.22-1.29h-1.36c-.11 1.11-.62 2.4-1.41 3.3l.46 1.62c.72-.8 1.28-1.61 1.66-2.43h2.1c.1 0 .16.03.17.16.01 1.83-.01 4.64-.12 6.34-.03.26-.16.4-.42.42-.63.08-1.29.04-1.91-.1l.31 1.19c.71.13 1.48.18 2.15.09.72-.1 1.12-.54 1.19-1.31.17-1.78.17-5.27.09-7.12-.02-.72-.32-.87-.92-.87Zm-3.99 5.05v2.58c0 .11-.08.18-.18.18h-1.35c-.11 0-.18-.07-.18-.18v-2.58Zm0-1.18h-1.71v-2.29c0-.11.07-.18.18-.18h1.35c.1 0 .18.07.18.18Zm-.46-3.69.29-1.48h-1.31l-.28 1.48h-.36c-.62 0-.96.33-.96.96v6.93c0 .63.34.96.96.96h2.52c.63 0 .96-.33.96-.96v-6.93c0-.63-.33-.96-.96-.96Zm15.01 7.62v-2.72h3.69v-1.28h-3.69v-2.3h4.06v-1.29h-4.06v-1.5h-1.51v1.5h-1.91c.13-.38.23-.8.29-1.26h-1.49c-.17 1.01-.63 2.01-1.75 2.95l.7 1.41c.61-.53 1.18-1.11 1.64-1.81h2.52v2.3h-3.88l.12 1.28h3.76v2.72h-4.69l.14 1.29h10.56v-1.29Zm6.03 1.69h1.54c.63-1.65 1.01-3.28 1.25-4.92h-1.44c-.26 1.64-.69 3.27-1.35 4.92Zm2.55-5.91v-1.29l-2.66-.84v1.29Zm.41-2.76v-1.29l-2.66-.84v1.29Zm2.33 4.95h3.3c.11 0 .18.07.18.18v1.95c0 .11-.07.18-.18.18h-3.3c-.11 0-.18-.07-.18-.18v-1.95c0-.11.07-.18.18-.18Zm2.37-1.2v-1.53h2.97v-1.2h-2.97v-1.41c.89-.05 1.76-.16 2.61-.37v-1.25c-1.27.33-2.55.45-3.96.45h-2.8l.19 1.2h2.52v1.38h-2.94l.2 1.2h2.74v1.53h-1.59c-.64 0-.99.33-.99.96v2.79c0 .63.35.96.99.96h4.63c.64 0 .97-.33.97-.96v-2.79c0-.63-.33-.96-.97-.96Zm14.4-3.27-.75-2.25h-1.39l.73 2.25Zm-1.82 5.54c.95-.93 1.68-2.08 2.14-3.47h-1.48c-.22.68-.59 1.37-1.12 1.99-.15-.71-.27-1.51-.36-2.45h3.08v-1.25h-3.18c-.02-.24-.04-.49-.05-.74l-.13-2.22h-1.44l.15 2.27c.01.24.04.47.05.69h-2.36v-1.2c.48-.06.93-.13 1.32-.24v-1.3c-.8.24-1.77.34-2.61.34h-2l.12 1.28h1.73v1.12h-2.3l.14 1.25h2.16v1.59l-2.33.39.26 1.26 2.07-.37v1.96c0 .33-.16.5-.41.52-.47.05-.94 0-1.38-.08l.32 1.27c.41.06.93.11 1.48.06.93-.08 1.43-.61 1.43-1.62v-2.37l1.66-.3v-1.26l-1.66.28v-1.33h2.48c.14 1.43.34 2.59.58 3.52-.7.5-1.55.91-2.57 1.2l.41 1.34c.96-.27 1.83-.67 2.61-1.19.09.21.18.4.29.57.6 1.01 1.32 1.49 3.06.92l.28-1.52c-1.22.49-1.8.31-2.18-.36-.09-.17-.18-.36-.26-.55Zm7.61 1.02v-2.91c0-.12.06-.18.18-.18h.59c.12 0 .18.06.18.18v2.91c0 .12-.06.18-.18.18h-.59c-.12 0-.18-.06-.18-.18Zm6.27-6.3h.4v-1.16h-2.17c.12-.57.18-1.15.19-1.7h-1.33c-.1 1.45-.47 3.06-1.25 4.3l.4 1.42c.19-.21.37-.43.54-.67.12 1.03.38 1.91.79 2.75-.39.54-.87 1.03-1.49 1.56l.47 1.48c.72-.58 1.31-1.17 1.77-1.8.42.58.93 1.16 1.53 1.77l.47-1.59c-.48-.5-.89-.95-1.24-1.43.61-1.29.89-2.83.92-4.93Zm-1.28 0c-.01 1.46-.14 2.54-.42 3.43-.25-.75-.38-1.62-.4-2.74h-.26c.1-.23.19-.45.28-.69Zm-3.84 2.01v-1.76h1.42v-1.2h-1.42v-1.91h-1.36v1.91h-1.41l.09 1.2h1.32v1.76h-.16c-.65 0-.96.31-.96.96v3.75c0 .64.31.96.96.96h1.69c.65 0 .96-.32.96-.96v-3.75c0-.65-.31-.96-.96-.96Zm-4.56-.72c1.09-.99 2-2.48 2.21-4.15h-1.38c-.24 1.37-.93 2.64-2.15 3.74l.44 1.29h.9v5.77h1.38v-5.81c0-.54-.25-.84-.79-.84Zm16.14-2.46h1.46v-1.73h-1.46Zm1.46 7.43v-2.57h3.68v-1.25h-3.68v-2.14h4.11v-1.25h-9.66l.12 1.25h3.97v2.14h-3.66l.12 1.25h3.54v2.57h-4.57l.12 1.25h10.5v-1.25Z" class="tp-slogan" data-gra="path-slogan"/>
  </g>
</svg>
