<svg xmlns="http://www.w3.org/2000/svg" color-interpolation-filters="sRGB" style="margin:auto" version="1.0" viewBox="0 0 340 250">
  <g fill="#333" class="basesvg">
    <path d="M108.49999638 128.42999672q.52.78.52 1.52 0 .99-.8 1.64-.8.65-1.89.65-.69 0-1.32-.32-.62-.33-1.06-.98l-5.75-8.74q-.87-1.38-1.84-1.95-.97-.56-2.53-.56h-4.24v9.7q0 1.29-.74 2.05-.74.76-1.99.76-1.26 0-2.01-.76-.76-.76-.76-2.05v-25.32q0-1.26.71-1.95.72-.69 1.97-.69h10.82q5.2 0 7.9 2.31 2.71 2.32 2.71 6.69 0 3.55-2.02 5.82-2.01 2.27-5.69 2.92 1.26.31 2.21 1.08.95.78 1.86 2.17l3.94 6.01Zm-11.69-13.02q3.16 0 4.63-1.19 1.48-1.19 1.48-3.66 0-2.51-1.48-3.66-1.47-1.14-4.63-1.14h-7.27v9.65h7.27Zm33.63 10.73q.74 0 1.19.56.46.57.46 1.52 0 1.34-1.6 2.25-1.48.82-3.34 1.32-1.86.5-3.55.5-5.1 0-8.09-2.95-2.99-2.94-2.99-8.05 0-3.24 1.3-5.75t3.66-3.9q2.36-1.38 5.34-1.38 2.86 0 4.98 1.25 2.12 1.26 3.29 3.55t1.17 5.41q0 1.86-1.65 1.86h-12.76q.26 2.99 1.69 4.39 1.42 1.41 4.15 1.41 1.39 0 2.45-.34 1.06-.35 2.4-.96 1.3-.69 1.9-.69Zm-7.49-12.07q-2.2 0-3.52 1.38-1.32 1.39-1.58 3.98h9.78q-.09-2.64-1.3-4-1.21-1.36-3.38-1.36Zm31.38-12.86q1.21 0 1.99.69.78.7.78 1.82v25.88q0 1.17-.73 1.86-.74.7-1.95.7t-1.95-.7q-.73-.69-.73-1.86v-1.08q-.96 1.78-2.75 2.77-1.8 1-4.09 1-2.73 0-4.87-1.39-2.14-1.38-3.33-3.92-1.19-2.53-1.19-5.82 0-3.29 1.19-5.75 1.19-2.47 3.31-3.81 2.12-1.34 4.89-1.34 2.29 0 4.07.95 1.77.95 2.72 2.68v-10.25q0-1.09.72-1.76.71-.67 1.92-.67Zm-8 26.88q2.59 0 4-1.78 1.41-1.77 1.41-5.06 0-3.29-1.41-5.04t-3.96-1.75q-2.6 0-4.03 1.73-1.42 1.73-1.42 4.97 0 3.29 1.42 5.11 1.43 1.82 3.99 1.82Zm33.1-1.95q.74 0 1.19.56.46.57.46 1.52 0 1.34-1.6 2.25-1.47.82-3.33 1.32-1.87.5-3.55.5-5.11 0-8.1-2.95-2.98-2.94-2.98-8.05 0-3.24 1.29-5.75 1.3-2.51 3.66-3.9 2.36-1.38 5.35-1.38 2.85 0 4.97 1.25 2.12 1.26 3.29 3.55t1.17 5.41q0 1.86-1.64 1.86h-12.77q.26 2.99 1.69 4.39 1.43 1.41 4.15 1.41 1.39 0 2.45-.34 1.06-.35 2.4-.96 1.3-.69 1.9-.69Zm-7.48-12.07q-2.21 0-3.53 1.38-1.32 1.39-1.58 3.98h9.78q-.09-2.64-1.3-4-1.21-1.36-3.37-1.36Zm31.76-7.58q-1.47 0-2.33-.8-.87-.8-.87-2.1t.87-2.08q.86-.77 2.33-.77 1.43 0 2.32.77.89.78.89 2.08t-.89 2.1q-.89.8-2.32.8Zm.26 4.29q2.43 0 2.43 2.03v16.79q0 1.26-.76 1.93-.76.67-1.93.67-1.16 0-1.94-.67t-.78-1.93v-14.76h-8.57v14.76q0 1.26-.76 1.91-.76.65-1.93.65-1.16 0-1.94-.65t-.78-1.91v-14.76h-2.17q-2.42 0-2.42-2.03t2.42-2.03h2.17v-.22q0-4.03 2.14-6.38 2.14-2.36 6.04-2.71l.99-.09q.22-.04.65-.04 2.3 0 2.3 1.95 0 .95-.52 1.47t-1.43.61l-.95.08q-1.99.18-2.9 1.24-.91 1.06-.91 3.09v1h11.55Zm20.35-.52q3.8 0 5.66 2.16 1.87 2.16 1.87 6.54v10.64q0 1.21-.72 1.91-.71.69-1.97.69-1.25 0-1.99-.69-.73-.7-.73-1.91v-10.34q0-2.47-.93-3.59-.94-1.13-2.93-1.13-2.33 0-3.74 1.47-1.41 1.47-1.41 3.94v9.65q0 1.21-.73 1.91-.74.69-1.99.69-1.26 0-1.97-.69-.72-.7-.72-1.91v-16.75q0-1.12.74-1.81.74-.7 1.99-.7 1.13 0 1.84.67.71.68.71 1.76v1.17q1.09-1.78 2.9-2.73 1.82-.95 4.12-.95Zm29.77 15.88q.74 0 1.19.56.46.57.46 1.52 0 1.34-1.61 2.25-1.47.82-3.33 1.32-1.86.5-3.55.5-5.1 0-8.09-2.95-2.99-2.94-2.99-8.05 0-3.24 1.3-5.75t3.66-3.9q2.36-1.38 5.34-1.38 2.86 0 4.98 1.25 2.12 1.26 3.29 3.55t1.17 5.41q0 1.86-1.65 1.86h-12.76q.26 2.99 1.69 4.39 1.42 1.41 4.15 1.41 1.38 0 2.45-.34 1.06-.35 2.4-.96 1.3-.69 1.9-.69Zm-7.49-12.07q-2.2 0-3.52 1.38-1.32 1.39-1.58 3.98h9.78q-.09-2.64-1.3-4-1.21-1.36-3.38-1.36Z" class="tp-name" data-gra="path-name"/>
    <g fill="red" class="tp-slogan" data-gra="path-slogan">
      <path d="M89.08999634 143.27499723h36.47500229v1h-36.4750023zM214.43500138 143.27499723h36.47500229v1h-36.4750023zM134.13937363 138.3399971q1.32 0 1.36.14 0 .04-.04.14-.14.37-.19 1.03-.05.51-.05 2.11h2.49q1.12 0 1.36-.05v.94q-.19-.05-1.36-.05h-2.49q.14 1.69.52 3 1.03-1.31 1.45-2.44 1.08.52 1.13.66 0 .09-.19.19-.24.14-.33.28-.05.09-.19.28-.75 1.13-1.5 1.83.66 1.17 1.74 1.59.28 0 .37-1.36.56.61 1.08.8-.52 1.74-.98 1.74-1.46 0-2.91-2.11-1.08.79-2.34 1.4-.29-.42-.75-.7l-.1-.05q1.5-.47 2.77-1.45-.56-1.78-.61-3.66h-2.39v1.69q.65-.14 1.45-.47.24-.05.33-.09l-.05 1.08q-.23.04-.61.14-.37.04-1.12.23v2.72q.19.89-2.02 1.12 0-.51-.28-.98-.05-.09-.05-.14 1.41.14 1.46-.47v-2.02q-1.46.38-2.16.75l-.37-1.17q1.31-.18 2.53-.51v-1.88h-1.08q-1.08 0-1.31.05v-.94q.18.05 1.26.05h1.13v-1.55q.04.05-.75.24-.66.14-1.08.23-.19-.52-.52-.94 2.02-.04 4.18-.98.14.19.42.42.51.52.42.56-.05.1-.28.1-.71 0-1.5.18v1.74h2.34q0-1.88-.19-3.42Zm2.02 1.22.89-.61q.75.79 1.36 1.78l-.94.61q-.47-.94-1.31-1.78Zm11.3-1.27q1.26.37 1.26.52 0 .04-.09.09-.19.09-.24.28-.42.7-.65 1.45h1.73q1.03 0 1.6-.04-.38 6.14-.47 7.22-.14 1.31-2.58 1.4-.14-.7-.56-1.22 1.26.24 1.92-.04.33.04.47-4.18.09-1.5.14-2.39h-2.58q-.47.89-1.13 2.07-.42-.29-.84-.38v4.22q0 1.17.05 1.5h-1.08q.05-.42.05-1.13h-2.3q0 .71.05 1.22h-1.08q.05-.42.05-1.54v-5.02q0-.19-.05-.89v-.75q.7.05 1.03.05h.33q.14-.75.23-2.3 1.31.14 1.22.33 0 .09-.09.19-.1.09-.14.23-.14.33-.28.94-.1.37-.15.61h.8q.38 0 1.41-.05-.05.33-.05 1.5v.66q1.45-1.64 2.02-4.55Zm-3 3.19h-2.3v2.43h2.3v-2.43Zm2.2 2.39.8-.47q.28.37.98 1.73.19.28.24.43l-.9.46q-.14-.56-1.12-2.15Zm-2.2.75h-2.3v2.29h2.3v-2.29Zm13.26-6.1q1.22 0 1.46.19 0 .05-.1.14-.28.42-.28.94v1.64h2.02q1.12 0 1.68-.09h.14v1.03h-.09q-.75-.1-1.73-.1h-2.02v2.16h1.59q.99 0 1.55-.09h.09v1.07h-.09q-.56-.09-1.55-.09h-1.59v2.53h2.63q.89 0 1.59-.09h.14v1.03h-.14q-.61-.09-1.59-.09h-6.71q-.84 0-1.64.09h-.14v-1.03h.19q.75.09 1.59.09h3.1v-2.53h-1.46q-.84 0-1.54.09h-.14v-1.07h.14q.75.09 1.54.09h1.46v-2.16h-2.82q-.7 1.22-1.07 1.83-.29-.14-.8-.28l-.24-.09q1.64-1.74 2.07-4.32 1.26.29 1.36.52 0 .05-.14.19-.43.47-.75 1.31h2.39v-1.73q0-.52-.1-1.04v-.14Zm15.99 0q.47.71.56 1.13h-.14q-.33-.05-.66 0-.14 0-.75.09-.7.1-1.03.14v1.78h1.92q.94 0 1.55-.09h.09v1.13h-.09q-.66-.1-1.55-.1h-1.92v1.55h1.17q.89 0 1.27-.09-.1.37-.1 1.4v1.69q.05.84.1 1.5v.33h-1.13q.1-.19.1-.94h-3.75q0 .8.09.98h-1.17v-.23q.09-.66.09-1.36v-1.92q0-.94-.14-1.45.38.09 1.36.09h1.13v-1.5h-1.6q-.79 0-1.4.09h-.24v-1.17h.14q.61.09 1.46.09h1.64v-1.64q-.94.14-2.35.33-.14-.33-.47-.79l-.09-.19q3.09.04 5.91-.85Zm-8.53 1.04.65-.9q.61.33 1.92 1.27l-.65.89q-.94-.8-1.92-1.26Zm-.61 2.9.51-.89q1.13.42 2.06 1.03l-.56.99q-.65-.57-2.01-1.13Zm1.54 1.55 1.03.51q-.14.61-.37 1.55-.28 1.17-.52 1.92-.09.19-.09.66-.05.33-.09.37-.1.1-1.13-.79.75-1.64 1.17-4.22Zm6.94 3.23v-2.2h-3.7v2.2h3.7Zm9.09-8.9q1.32 0 1.36.14 0 .04-.04.14-.14.37-.19 1.03-.05.51-.05 2.11h2.49q1.12 0 1.36-.05v.94q-.19-.05-1.36-.05h-2.49q.14 1.69.52 3 1.03-1.31 1.45-2.44 1.08.52 1.13.66 0 .09-.19.19-.24.14-.33.28-.05.09-.19.28-.75 1.13-1.5 1.83.66 1.17 1.74 1.59.28 0 .37-1.36.56.61 1.08.8-.52 1.74-.98 1.74-1.46 0-2.91-2.11-1.08.79-2.34 1.4-.29-.42-.75-.7l-.1-.05q1.5-.47 2.77-1.45-.56-1.78-.61-3.66h-2.39v1.69q.65-.14 1.45-.47.24-.05.33-.09l-.05 1.08q-.23.04-.61.14-.37.04-1.12.23v2.72q.19.89-2.02 1.12 0-.51-.28-.98-.05-.09-.05-.14 1.41.14 1.46-.47v-2.02q-1.46.38-2.16.75l-.37-1.17q1.31-.18 2.53-.51v-1.88h-1.08q-1.08 0-1.31.05v-.94q.18.05 1.26.05h1.13v-1.55q.04.05-.75.24-.66.14-1.08.23-.19-.52-.52-.94 2.02-.04 4.18-.98.14.19.42.42.51.52.42.56-.05.1-.28.1-.71 0-1.5.18v1.74h2.34q0-1.88-.19-3.42Zm2.02 1.22.89-.61q.75.79 1.36 1.78l-.94.61q-.47-.94-1.31-1.78Zm6.47-1.27q1.17.37 1.17.61 0 .09-.14.19-.14.14-.19.28-.28.79-.7 1.59v5.91q0 1.55.05 2.25h-.94q0-.24.05-.89.04-.8.04-1.32v-4.54l-.98 1.83-.75-.8q1.73-1.92 2.39-5.11Zm5.72.14q1.31.23 1.31.42 0 .05-.14.19-.14.19-.24.37-.18.47-.37.94-.14.33-.23.56h1.07q.8 0 1.64-.09v.99q-.28-.05-.93-.05-.14 3.56-1.08 4.97.94.98 1.97 1.4-.52.33-.94.89-.84-.65-1.59-1.54-.85.89-2.25 1.78-.29-.38-.89-.75 1.64-.47 2.62-1.74-.7-1.45-.89-3.32l-.14.28q-.28-.28-.84-.47 1.12-1.45 1.92-4.83Zm1.22 3.33h-1.22q-.33.56-.75 1.4l.7-.09q-.05 1.13.52 2.91.65-1.74.75-4.22Zm-3.43 2.58h-1.73v2.06h1.73v-2.06Zm.89-.71q-.04.38-.04 1.32v1.26q0 1.08.09 1.5h-.98q0-.19.04-.7h-1.73q0 .8.05 1.03h-.99q.05-.47.1-1.83v-.84q-.05-.94-.1-1.74.56.1 1.22.1h.14v-1.78h-.37q-.99 0-1.46.04v-.89q.43.05 1.46.05h.37v-1.78q0-.42-.09-.94 1.12 0 1.12.19 0 .09-.04.23-.14.28-.14.52v1.78h.37q.33 0 .66-.05h.37v.89q-.23-.04-1.03-.04h-.37v1.78h.18q.61 0 1.17-.1Zm9.94-4.78 1.03-.56q.66.98.94 1.64l-1.12.47q-.33-.84-.85-1.55Zm-3.7 2.67v-1.07q1.22.09 2.01.09h5.25q1.18 0 2.35-.09v1.07q-.99-.04-2.35-.09h-1.96v2.53h2.39q.93-.05 1.26-.05v1.04q-.94-.1-1.92-.1h-1.73v3.05h2.29q1.88 0 2.58-.09v1.03q-1.12-.05-2.53-.1h-5.81q-1.27 0-2.35.1v-1.03q.99.04 2.39.09h2.39v-3.05h-1.82q-1.08 0-1.93.1v-1.08q1.08.09 1.88.09h1.87v-2.53h-2.29q-1.08 0-1.97.09Z"/>
    </g>
  </g>
</svg>
