<svg xmlns="http://www.w3.org/2000/svg" color-interpolation-filters="sRGB" style="margin:auto" version="1.0" viewBox="0 0 340 250">
  <g fill="#333" class="icon-text-wrapper icon-svg-group iconsvg">
    <g class="iconsvg-imagesvg" transform="translate(140 78.29667664)">
      <path fill="none" d="M0 0h60v54.85664131H0z" class="image-rect"/>
      <svg width="60" height="54.85664131" class="image-svg-svg primary" style="overflow:visible">
        <svg xmlns="http://www.w3.org/2000/svg" viewBox="0 0 59.26000214 54.18000031">
          <path d="M38.56 12a3 3 0 0 1 0 6H0V0h39.13a15 15 0 1 1 0 30.09H6v18.09h6v-12h14.77l11.23 12h7.44l-11.26-12h8.22l16.86 18H35.42l-11.25-12H18v12H0V24.09h39.13a9 9 0 1 0 0-18.09H6v6z"/>
        </svg>
      </svg>
    </g>
    <path d="M108.49999638 167.84332108q.52.78.52 1.52 0 .99-.8 1.64-.8.65-1.89.65-.69 0-1.32-.32-.62-.33-1.06-.98l-5.75-8.74q-.87-1.38-1.84-1.95-.97-.56-2.53-.56h-4.24v9.7q0 1.29-.74 2.05-.74.76-1.99.76-1.26 0-2.01-.76-.76-.76-.76-2.05v-25.32q0-1.26.71-1.95.72-.69 1.97-.69h10.82q5.2 0 7.9 2.31 2.71 2.32 2.71 6.69 0 3.55-2.02 5.82-2.01 2.27-5.69 2.92 1.26.31 2.21 1.08.95.78 1.86 2.17l3.94 6.01Zm-11.69-13.02q3.16 0 4.63-1.19 1.48-1.19 1.48-3.66 0-2.51-1.48-3.66-1.47-1.14-4.63-1.14h-7.27v9.65h7.27Zm33.63 10.73q.74 0 1.19.56.46.57.46 1.52 0 1.34-1.6 2.25-1.48.82-3.34 1.32-1.86.5-3.55.5-5.1 0-8.09-2.95-2.99-2.94-2.99-8.05 0-3.24 1.3-5.75t3.66-3.9q2.36-1.38 5.34-1.38 2.86 0 4.98 1.25 2.12 1.26 3.29 3.55t1.17 5.41q0 1.86-1.65 1.86h-12.76q.26 2.99 1.69 4.39 1.42 1.41 4.15 1.41 1.39 0 2.45-.34 1.06-.35 2.4-.96 1.3-.69 1.9-.69Zm-7.49-12.07q-2.2 0-3.52 1.38-1.32 1.39-1.58 3.98h9.78q-.09-2.64-1.3-4-1.21-1.36-3.38-1.36Zm31.38-12.86q1.21 0 1.99.69.78.7.78 1.82v25.88q0 1.17-.73 1.86-.74.7-1.95.7t-1.95-.7q-.73-.69-.73-1.86v-1.08q-.96 1.78-2.75 2.77-1.8 1-4.09 1-2.73 0-4.87-1.39-2.14-1.38-3.33-3.92-1.19-2.53-1.19-5.82 0-3.29 1.19-5.75 1.19-2.47 3.31-3.81 2.12-1.34 4.89-1.34 2.29 0 4.07.95 1.77.95 2.72 2.68v-10.25q0-1.09.72-1.76.71-.67 1.92-.67Zm-8 26.88q2.59 0 4-1.78 1.41-1.77 1.41-5.06 0-3.29-1.41-5.04t-3.96-1.75q-2.6 0-4.03 1.73-1.42 1.73-1.42 4.97 0 3.29 1.42 5.11 1.43 1.82 3.99 1.82Zm33.1-1.95q.74 0 1.19.56.46.57.46 1.52 0 1.34-1.6 2.25-1.47.82-3.33 1.32-1.87.5-3.55.5-5.11 0-8.1-2.95-2.98-2.94-2.98-8.05 0-3.24 1.29-5.75 1.3-2.51 3.66-3.9 2.36-1.38 5.35-1.38 2.85 0 4.97 1.25 2.12 1.26 3.29 3.55t1.17 5.41q0 1.86-1.64 1.86h-12.77q.26 2.99 1.69 4.39 1.43 1.41 4.15 1.41 1.39 0 2.45-.34 1.06-.35 2.4-.96 1.3-.69 1.9-.69Zm-7.48-12.07q-2.21 0-3.53 1.38-1.32 1.39-1.58 3.98h9.78q-.09-2.64-1.3-4-1.21-1.36-3.37-1.36Zm31.76-7.58q-1.47 0-2.33-.8-.87-.8-.87-2.1t.87-2.08q.86-.77 2.33-.77 1.43 0 2.32.77.89.78.89 2.08t-.89 2.1q-.89.8-2.32.8Zm.26 4.29q2.43 0 2.43 2.03v16.79q0 1.26-.76 1.93-.76.67-1.93.67-1.16 0-1.94-.67t-.78-1.93v-14.76h-8.57v14.76q0 1.26-.76 1.91-.76.65-1.93.65-1.16 0-1.94-.65t-.78-1.91v-14.76h-2.17q-2.42 0-2.42-2.03t2.42-2.03h2.17v-.22q0-4.03 2.14-6.38 2.14-2.36 6.04-2.71l.99-.09q.22-.04.65-.04 2.3 0 2.3 1.95 0 .95-.52 1.47t-1.43.61l-.95.08q-1.99.18-2.9 1.24-.91 1.06-.91 3.09v1h11.55Zm20.35-.52q3.8 0 5.66 2.16 1.87 2.16 1.87 6.54v10.64q0 1.21-.72 1.91-.71.69-1.97.69-1.25 0-1.99-.69-.73-.7-.73-1.91v-10.34q0-2.47-.93-3.59-.94-1.13-2.93-1.13-2.33 0-3.74 1.47-1.41 1.47-1.41 3.94v9.65q0 1.21-.73 1.91-.74.69-1.99.69-1.26 0-1.97-.69-.72-.7-.72-1.91v-16.75q0-1.12.74-1.81.74-.7 1.99-.7 1.13 0 1.84.67.71.68.71 1.76v1.17q1.09-1.78 2.9-2.73 1.82-.95 4.12-.95Zm29.77 15.88q.74 0 1.19.56.46.57.46 1.52 0 1.34-1.61 2.25-1.47.82-3.33 1.32-1.86.5-3.55.5-5.1 0-8.09-2.95-2.99-2.94-2.99-8.05 0-3.24 1.3-5.75t3.66-3.9q2.36-1.38 5.34-1.38 2.86 0 4.98 1.25 2.12 1.26 3.29 3.55t1.17 5.41q0 1.86-1.65 1.86h-12.76q.26 2.99 1.69 4.39 1.42 1.41 4.15 1.41 1.38 0 2.45-.34 1.06-.35 2.4-.96 1.3-.69 1.9-.69Zm-7.49-12.07q-2.2 0-3.52 1.38-1.32 1.39-1.58 3.98h9.78q-.09-2.64-1.3-4-1.21-1.36-3.38-1.36Z" class="tp-name iconsvg-namesvg" data-gra="path-name"/>
  </g>
</svg>
