<svg xmlns="http://www.w3.org/2000/svg" color-interpolation-filters="sRGB" style="margin:auto" version="1.0" viewBox="0 0 340 250">
  <g fill="#F90" class="pmspacesvg" mask="url(#a)" transform="translate(123.73475266 78.34375)">
    <rect width="92.53049469" height="93.31249619" class="i-icon-bg" data-gra="graph-name-bg" rx="10" ry="10"/>
    <path d="M0 83.3125h10v10H0zM82.53049469 0h10v10h-10z" data-gra="graph-name"/>
    <rect width="82.53049469" height="83.3125" x="5" y="5" fill="none" stroke="#000" stroke-width="2" data-gra="graph-name-border" rx="10"/>
    <g fill="#FFF">
      <path d="M36.51999998 15.7800003h-8.32v33.28c0 5.2-1.89 6.56-6.7 6.56-1.23 0-2.92-.13-4.48-.9l-2.02 7.21c2.67 1.43 4.88 1.43 7.02 1.43 9.62 0 14.5-3.58 14.5-14.17Zm8.71 44.46c3.96 2.34 8.9 3.12 14.43 3.12 12.54 0 17.93-6.11 17.87-14.3 0-6.5-4.03-11.25-10.33-12.81l-7.03-1.75c-4.09-.98-5.58-2.34-5.58-6.18 0-3.25 2.34-5.59 8.58-5.59 3.38 0 6.5.59 9.81 2.54l2.6-7.47c-3.83-2.21-8.45-2.8-12.74-2.8-11.11 0-17.03 5.66-17.03 13.98 0 6.63 3.25 10.85 9.49 12.41l7.02 1.75c4.49 1.11 6.5 3.12 6.37 6.18 0 4.23-2.6 6.3-9.42 6.3-3.64 0-7.68-.71-11.12-2.66Z" class="tp-name" data-gra="path-name"/>
      <path d="M15.54274696 76.25250061v-.85h1.08v.61q0 1.41 1.31 1.41 1.36 0 1.36-1.5v-6.33h1.17v6.28q-.05 2.39-2.48 2.44-2.3-.05-2.44-2.06Zm6.89-6.66h1.17v8.58h-1.17v-8.58Zm4.55 0 4.31 6.94v-6.94h1.12v8.58h-1.31l-4.36-6.94h-.05v6.94h-1.12v-8.58h1.41Zm13.64 4.97h-2.63v-.98h3.75v4.59h-.75l-.28-1.08q-.98 1.17-2.81 1.22-1.74 0-2.67-.89-1.41-1.31-1.36-3.61.32-4.27 4.07-4.45 3.19.18 3.66 2.81h-1.12q-.47-1.78-2.58-1.83-2.67.19-2.82 3.52 0 3.56 2.86 3.56 1.04 0 1.79-.56.93-.75.89-2.3Zm9.18-2.48h-1.07q-.1-1.64-2.16-1.74-1.92.05-1.92 1.5 0 .94 1.03 1.08l2.44.56q1.92.47 1.92 2.35-.05 2.39-3.38 2.48-1.83 0-2.58-.75-.93-.7-.89-2.16h1.13q.05 1.97 2.34 2.02 2.25-.05 2.3-1.45.19-1.18-1.88-1.55l-1.78-.38q-1.82-.51-1.82-2.06.14-2.53 3-2.62 3.23 0 3.32 2.72Zm8.49 1.82q-.19-3.37-3-3.56-2.86.14-3 3.56.14 3.33 3 3.47 2.81-.18 3-3.47Zm1.17 0q-.28 4.27-4.17 4.41-3.94-.14-4.22-4.41.23-4.45 4.22-4.54 3.89.14 4.17 4.54Zm2.77-4.31 4.31 6.94v-6.94h1.12v8.58h-1.31l-4.36-6.94h-.05v6.94h-1.12v-8.58h1.41Zm13.64 4.97h-2.63v-.98h3.75v4.59h-.75l-.28-1.08q-.98 1.17-2.81 1.22-1.74 0-2.67-.89-1.41-1.31-1.36-3.61.32-4.27 4.07-4.45 3.19.18 3.66 2.81h-1.12q-.47-1.78-2.58-1.83-2.67.19-2.82 3.52 0 3.56 2.86 3.56 1.04 0 1.79-.56.93-.75.89-2.3Z" class="tp-slogan" data-gra="path-slogan"/>
    </g>
  </g>
  <mask id="a">
    <g fill="#fff">
      <rect width="92.53049469" height="93.31249619" stroke-width="2" class="i-icon-bg" data-gra="graph-name-bg" rx="10" ry="10"/>
      <path d="M0 83.3125h10v10H0zM82.53049469 0h10v10h-10z" data-gra="graph-name"/>
      <rect width="82.53049469" height="83.3125" x="5" y="5" stroke="#000" stroke-width="2" data-gra="graph-name-border" rx="10"/>
    </g>
    <g>
      <path d="M36.51999998 15.7800003h-8.32v33.28c0 5.2-1.89 6.56-6.7 6.56-1.23 0-2.92-.13-4.48-.9l-2.02 7.21c2.67 1.43 4.88 1.43 7.02 1.43 9.62 0 14.5-3.58 14.5-14.17Zm8.71 44.46c3.96 2.34 8.9 3.12 14.43 3.12 12.54 0 17.93-6.11 17.87-14.3 0-6.5-4.03-11.25-10.33-12.81l-7.03-1.75c-4.09-.98-5.58-2.34-5.58-6.18 0-3.25 2.34-5.59 8.58-5.59 3.38 0 6.5.59 9.81 2.54l2.6-7.47c-3.83-2.21-8.45-2.8-12.74-2.8-11.11 0-17.03 5.66-17.03 13.98 0 6.63 3.25 10.85 9.49 12.41l7.02 1.75c4.49 1.11 6.5 3.12 6.37 6.18 0 4.23-2.6 6.3-9.42 6.3-3.64 0-7.68-.71-11.12-2.66Z" class="tp-name" data-gra="path-name"/>
      <path d="M15.54274696 76.25250061v-.85h1.08v.61q0 1.41 1.31 1.41 1.36 0 1.36-1.5v-6.33h1.17v6.28q-.05 2.39-2.48 2.44-2.3-.05-2.44-2.06Zm6.89-6.66h1.17v8.58h-1.17v-8.58Zm4.55 0 4.31 6.94v-6.94h1.12v8.58h-1.31l-4.36-6.94h-.05v6.94h-1.12v-8.58h1.41Zm13.64 4.97h-2.63v-.98h3.75v4.59h-.75l-.28-1.08q-.98 1.17-2.81 1.22-1.74 0-2.67-.89-1.41-1.31-1.36-3.61.32-4.27 4.07-4.45 3.19.18 3.66 2.81h-1.12q-.47-1.78-2.58-1.83-2.67.19-2.82 3.52 0 3.56 2.86 3.56 1.04 0 1.79-.56.93-.75.89-2.3Zm9.18-2.48h-1.07q-.1-1.64-2.16-1.74-1.92.05-1.92 1.5 0 .94 1.03 1.08l2.44.56q1.92.47 1.92 2.35-.05 2.39-3.38 2.48-1.83 0-2.58-.75-.93-.7-.89-2.16h1.13q.05 1.97 2.34 2.02 2.25-.05 2.3-1.45.19-1.18-1.88-1.55l-1.78-.38q-1.82-.51-1.82-2.06.14-2.53 3-2.62 3.23 0 3.32 2.72Zm8.49 1.82q-.19-3.37-3-3.56-2.86.14-3 3.56.14 3.33 3 3.47 2.81-.18 3-3.47Zm1.17 0q-.28 4.27-4.17 4.41-3.94-.14-4.22-4.41.23-4.45 4.22-4.54 3.89.14 4.17 4.54Zm2.77-4.31 4.31 6.94v-6.94h1.12v8.58h-1.31l-4.36-6.94h-.05v6.94h-1.12v-8.58h1.41Zm13.64 4.97h-2.63v-.98h3.75v4.59h-.75l-.28-1.08q-.98 1.17-2.81 1.22-1.74 0-2.67-.89-1.41-1.31-1.36-3.61.32-4.27 4.07-4.45 3.19.18 3.66 2.81h-1.12q-.47-1.78-2.58-1.83-2.67.19-2.82 3.52 0 3.56 2.86 3.56 1.04 0 1.79-.56.93-.75.89-2.3Z" class="tp-slogan" data-gra="path-slogan"/>
    </g>
  </mask>
</svg>
