<svg xmlns="http://www.w3.org/2000/svg" color-interpolation-filters="sRGB" style="margin:auto" version="1.0" viewBox="0 0 340 250">
  <g fill="#333" class="iconlettersvg-g iconlettersvg">
    <g class="tp-name">
      <g class="name-imagesvg" transform="translate(131.93189621 92.52359772)">
        <path fill="none" d="M0 0h38.66748003v50H0z" class="image-rect"/>
        <svg width="38.66748003" height="50" class="image-svg-svg primary" style="overflow:visible">
          <svg xmlns="http://www.w3.org/2000/svg" viewBox="0 0 132.74 171.63">
            <g fill="#faa71b">
              <path d="M95 16.3h37.73v97.81c0 34.93-21 57.52-58.69 57.52-37 0-57.75-22.59-57.75-57.52v-.7h36.8v.7c0 14.67 6.52 22.58 21.2 22.58 14.2 0 20.72-7.91 20.72-22.58z" opacity=".3"/>
              <path d="M116 11.14a1.68 1.68 0 0 0-1.67 1.68 1.68 1.68 0 0 0 3.35 0 1.68 1.68 0 0 0-1.68-1.68zm0 33.54a1.67 1.67 0 0 0-1.67 1.67 1.68 1.68 0 1 0 3.35 0 1.68 1.68 0 0 0-1.68-1.67zm0-16.77a1.68 1.68 0 1 0 1.68 1.67 1.67 1.67 0 0 0-1.68-1.67zm0 50.3a1.68 1.68 0 0 0-1.67 1.68 1.68 1.68 0 0 0 3.35 0 1.68 1.68 0 0 0-1.68-1.68zm0-16.77a1.68 1.68 0 1 0 1.68 1.68 1.68 1.68 0 0 0-1.68-1.68zm0 50.31a1.67 1.67 0 0 0-1.67 1.67 1.68 1.68 0 0 0 1.67 1.68 1.66 1.66 0 0 0 1.46-.87l.15-.81v-.23a1.67 1.67 0 0 0-1.61-1.44zM116 95a1.68 1.68 0 1 0 1.68 1.67A1.67 1.67 0 0 0 116 95zM99.27 11.14a1.68 1.68 0 0 0-1.68 1.68 1.68 1.68 0 0 0 3.35 0 1.68 1.68 0 0 0-1.67-1.68zm-8.39-8.38a1.68 1.68 0 1 0 1.68 1.67 1.67 1.67 0 0 0-1.68-1.67zm16.77 0a1.68 1.68 0 1 0 1.68 1.67 1.68 1.68 0 0 0-1.68-1.67zM82.5 11.14A1.66 1.66 0 0 0 81 12v1.61a1.66 1.66 0 0 0 1.46.87 1.68 1.68 0 0 0 1.68-1.67 1.68 1.68 0 0 0-1.64-1.67zm16.77 33.54a1.68 1.68 0 0 0-1.68 1.67 1.68 1.68 0 1 0 3.35 0 1.67 1.67 0 0 0-1.67-1.67zm0-16.77a1.68 1.68 0 1 0 1.67 1.67 1.68 1.68 0 0 0-1.67-1.67zm-8.39 8.38A1.68 1.68 0 1 0 92.56 38a1.68 1.68 0 0 0-1.68-1.71zm16.77 0a1.68 1.68 0 1 0 1.68 1.71 1.68 1.68 0 0 0-1.68-1.71zM90.88 19.52a1.68 1.68 0 1 0 1.68 1.68 1.68 1.68 0 0 0-1.68-1.68zm16.77 0a1.68 1.68 0 1 0 1.68 1.68 1.68 1.68 0 0 0-1.68-1.68zM82.5 44.68a1.66 1.66 0 0 0-1.46.87v1.61a1.67 1.67 0 0 0 3.14-.81 1.68 1.68 0 0 0-1.68-1.67zm0-16.77a1.66 1.66 0 0 0-1.46.87v1.61a1.66 1.66 0 0 0 1.46.87 1.68 1.68 0 1 0 0-3.35zm16.77 50.3a1.68 1.68 0 0 0-1.68 1.68 1.68 1.68 0 0 0 3.35 0 1.68 1.68 0 0 0-1.67-1.68zm0-16.77a1.68 1.68 0 1 0 1.67 1.68 1.68 1.68 0 0 0-1.67-1.68zm-8.39 8.39a1.68 1.68 0 1 0 1.68 1.67 1.67 1.67 0 0 0-1.68-1.67zm16.77 0a1.68 1.68 0 1 0 1.68 1.67 1.68 1.68 0 0 0-1.68-1.67zM90.88 53.06a1.68 1.68 0 1 0 1.68 1.68 1.68 1.68 0 0 0-1.68-1.68zm16.77 0a1.68 1.68 0 1 0 1.68 1.68 1.68 1.68 0 0 0-1.68-1.68zM82.5 78.21a1.66 1.66 0 0 0-1.46.87v1.61a1.66 1.66 0 0 0 1.46.87 1.68 1.68 0 0 0 1.68-1.67 1.68 1.68 0 0 0-1.68-1.68zm0-16.77a1.68 1.68 0 0 0-1.46.87v1.62a1.68 1.68 0 1 0 1.46-2.49zm16.77 50.31a1.68 1.68 0 0 0-1.68 1.67 1.68 1.68 0 1 0 3.35 0 1.67 1.67 0 0 0-1.67-1.67zm0-16.75a1.68 1.68 0 1 0 1.67 1.67A1.68 1.68 0 0 0 99.27 95zm-8.39 8.36a1.68 1.68 0 1 0 1.68 1.64 1.68 1.68 0 0 0-1.68-1.64zm16.77 0a1.68 1.68 0 1 0 1.68 1.68 1.68 1.68 0 0 0-1.68-1.68zM90.88 86.59a1.68 1.68 0 1 0 1.68 1.68 1.68 1.68 0 0 0-1.68-1.68zm16.77 0a1.68 1.68 0 1 0 1.68 1.68 1.68 1.68 0 0 0-1.68-1.68zM82.5 111.75a1.68 1.68 0 0 0-1.68 1.67 1.68 1.68 0 1 0 3.36 0 1.68 1.68 0 0 0-1.68-1.67zm0-16.75a1.66 1.66 0 0 0-1.46.87v1.61a1.66 1.66 0 0 0 1.46.87 1.68 1.68 0 1 0 0-3.35zm15.09 52v.1l.14-.1c.71-.51 1.4-1 2.07-1.58a1.62 1.62 0 0 0-.54-.1 1.68 1.68 0 0 0-1.67 1.68zm1.68-18.49a1.68 1.68 0 1 0 1.67 1.68 1.68 1.68 0 0 0-1.67-1.68zm-8.39 8.39a1.68 1.68 0 1 0 1.68 1.67 1.67 1.67 0 0 0-1.68-1.67zm15.12 1.67a1.7 1.7 0 0 0 .13.64c.63-.75 1.23-1.51 1.81-2.29h-.26a1.68 1.68 0 0 0-1.68 1.65zm-15.12-18.44a1.68 1.68 0 1 0 1.68 1.68 1.68 1.68 0 0 0-1.68-1.68zm16.77 0a1.68 1.68 0 1 0 1.68 1.68 1.68 1.68 0 0 0-1.68-1.68zM82.5 145.28a1.68 1.68 0 0 0-1.68 1.72 1.68 1.68 0 0 0 3.36 0 1.68 1.68 0 0 0-1.68-1.72zm0-16.77a1.68 1.68 0 1 0 1.68 1.68 1.68 1.68 0 0 0-1.68-1.68zm-16.77 16.77a1.68 1.68 0 0 0-1.67 1.72 1.68 1.68 0 0 0 3.35 0 1.68 1.68 0 0 0-1.68-1.72zm0-16.77a1.68 1.68 0 1 0 1.68 1.68 1.68 1.68 0 0 0-1.68-1.68zm-8.38 8.39a1.68 1.68 0 1 0 1.65 1.67 1.68 1.68 0 0 0-1.65-1.67zm16.77 0a1.68 1.68 0 1 0 1.67 1.67 1.68 1.68 0 0 0-1.67-1.67zm-16.77-13.42a1.67 1.67 0 0 0 1.43-.81c-1 0-2-.12-3-.25a1.68 1.68 0 0 0 1.57 1.06zm16.77-3.35a1.68 1.68 0 1 0 1.67 1.68 1.68 1.68 0 0 0-1.67-1.68zM49 145.28a1.68 1.68 0 0 0-1.71 1.72 1.68 1.68 0 0 0 3.35 0 1.68 1.68 0 0 0-1.64-1.72zm0-16.77a1.68 1.68 0 1 0 1.67 1.68 1.68 1.68 0 0 0-1.67-1.68zm8.35 25.15a1.68 1.68 0 1 0 1.65 1.68 1.68 1.68 0 0 0-1.65-1.68zm16.77 0a1.68 1.68 0 0 0-1.68 1.68 1.65 1.65 0 0 0 .66 1.32c.82-.13 1.63-.28 2.44-.44a1.68 1.68 0 0 0-1.42-2.56zM32.2 111.75a1.68 1.68 0 0 0-1.68 1.67 1.68 1.68 0 1 0 3.36 0 1.68 1.68 0 0 0-1.68-1.67zm-8.38-8.39a1.68 1.68 0 1 0 1.67 1.64 1.68 1.68 0 0 0-1.67-1.64zm15.79 3.04c-.13-.79-.23-1.6-.31-2.44a1.7 1.7 0 0 0-.39 1.08 1.65 1.65 0 0 0 .7 1.36zm-24.18 5.35a1.67 1.67 0 0 0-1.67 1.67 1.68 1.68 0 1 0 3.35 0 1.68 1.68 0 0 0-1.68-1.67zm16.77 33.53a1.68 1.68 0 0 0-1.68 1.72 1.68 1.68 0 0 0 3.36 0 1.68 1.68 0 0 0-1.68-1.72zm0-16.77a1.68 1.68 0 1 0 1.68 1.68 1.68 1.68 0 0 0-1.68-1.68zm-8.38 8.39a1.68 1.68 0 1 0 1.67 1.67 1.68 1.68 0 0 0-1.67-1.67zm16.76 0a1.68 1.68 0 1 0 1.68 1.67 1.67 1.67 0 0 0-1.68-1.67zm-16.76-16.77a1.68 1.68 0 1 0 1.67 1.68 1.68 1.68 0 0 0-1.67-1.68zm16.76 0a1.68 1.68 0 1 0 1.68 1.68 1.68 1.68 0 0 0-1.68-1.68zm-25.15 8.38a1.68 1.68 0 1 0 1.68 1.68 1.68 1.68 0 0 0-1.68-1.68zm25.15 25.15a1.68 1.68 0 0 0-1.57 1.1c1.05.32 2.13.61 3.22.87a1.36 1.36 0 0 0 0-.29 1.68 1.68 0 0 0-1.65-1.68zm-33.53-50.3A1.68 1.68 0 1 0 8.73 105a1.68 1.68 0 0 0-1.68-1.64zm0 16.77a1.68 1.68 0 0 0-1.66 1.46c.15.47.31.93.47 1.39a1.64 1.64 0 0 0 1.19.5 1.68 1.68 0 1 0 0-3.35z"/>
              <path d="M60.08 160c-18.58 0-33.94-5.66-44.42-16.36C5.41 133.17 0 118.13 0 100.13v-.69a2.33 2.33 0 0 1 2.33-2.33h36.79a2.33 2.33 0 0 1 2.33 2.33v.69c0 13.83 6 20.26 18.86 20.26 12.55 0 18.4-6.43 18.4-20.26V2.33A2.33 2.33 0 0 1 81 0h37.72a2.33 2.33 0 0 1 2.33 2.33v97.8c0 18-5.49 33.06-15.87 43.5C94.59 154.33 79 160 60.08 160zM4.67 101.76c.65 33.58 21.25 53.56 55.41 53.56 35.29 0 56.35-20.63 56.35-55.19V4.66H83.37v95.47c0 16.31-8 24.92-23.06 24.92s-23-7.83-23.49-23.29z"/>
            </g>
          </svg>
        </svg>
      </g>
      <g class="name-imagesvg" transform="translate(170.59937624 92.52359772)">
        <path fill="none" d="M0 0h37.46872818v50H0z" class="image-rect"/>
        <svg width="37.46872818" height="50" class="image-svg-svg primary" style="overflow:visible">
          <svg xmlns="http://www.w3.org/2000/svg" viewBox="0 0 130.87 174.65">
            <path fill="#01b7cd" d="M93.15 64.51c-.24-8.85-5.82-15.84-18.87-15.84-13.5 0-18.86 7.68-18.86 15.6 0 25.62 75.45 0 75.45 61 0 30.28-22.82 49.37-57.28 49.37-34 0-56.59-18.39-57.29-48h36.79c0 9.55 5.83 15.6 20.5 15.6s20.49-6.05 20.49-15.6c0-25.61-75 0-75-61C19.1 36.79 41 16.3 73.82 16.3c31.9 0 53.56 19.33 54.72 48.21z" opacity=".3"/>
            <path fill="#01b7cd" d="M110.33 36.07a1.68 1.68 0 0 0-1.68 1.67 1.68 1.68 0 1 0 3.35 0 1.67 1.67 0 0 0-1.67-1.67zm-8.39-8.39a1.68 1.68 0 1 0 1.68 1.68 1.68 1.68 0 0 0-1.68-1.68zm-8.38 8.39a1.68 1.68 0 0 0-1.68 1.67 1.68 1.68 0 1 0 3.36 0 1.68 1.68 0 0 0-1.68-1.67zm0-16.77a1.68 1.68 0 1 0 1.68 1.7 1.68 1.68 0 0 0-1.68-1.7zm8.38 25.15a1.68 1.68 0 1 0 1.68 1.68 1.68 1.68 0 0 0-1.68-1.68zm8.39 58.69a1.68 1.68 0 0 0-1.68 1.67 1.68 1.68 0 1 0 3.35 0 1.67 1.67 0 0 0-1.67-1.67zm0-13.42a1.66 1.66 0 0 0 1.6-1.22c-.38-.72-.79-1.41-1.22-2.08a1.58 1.58 0 0 0-.38 0 1.68 1.68 0 1 0 0 3.35zm-8.39 5.03a1.68 1.68 0 1 0 1.68 1.68 1.68 1.68 0 0 0-1.68-1.68zm0-16.75a1.68 1.68 0 1 0 1.68 1.68 1.68 1.68 0 0 0-1.68-1.68zm-8.38 25.14a1.68 1.68 0 0 0-1.68 1.67 1.68 1.68 0 1 0 3.36 0 1.68 1.68 0 0 0-1.68-1.67zm0-16.77a1.68 1.68 0 1 0 1.68 1.68 1.68 1.68 0 0 0-1.68-1.68zm15.09 51.98a1.73 1.73 0 0 0 .12.6c.14-.2.29-.4.42-.6.37-.55.71-1.11 1-1.67a1.68 1.68 0 0 0-1.54 1.67zm1.68-18.45a1.68 1.68 0 1 0 1.67 1.68 1.68 1.68 0 0 0-1.67-1.68zm-8.39 8.39a1.68 1.68 0 1 0 1.68 1.67 1.67 1.67 0 0 0-1.68-1.67zm0-16.77a1.68 1.68 0 1 0 1.68 1.68 1.68 1.68 0 0 0-1.68-1.68zm-8.38 25.15a1.68 1.68 0 0 0-1.68 1.68 1.68 1.68 0 0 0 3.36 0 1.68 1.68 0 0 0-1.68-1.68zm0-16.77a1.68 1.68 0 1 0 1.68 1.68 1.68 1.68 0 0 0-1.68-1.68zm6.71 26.83a1.63 1.63 0 0 0 .38 1.05c.86-.71 1.7-1.45 2.49-2.22a1.67 1.67 0 0 0-2.87 1.17z"/>
            <rect width="3.35" height="3.35" x="58.35" y="2.53" fill="#01b7cd" rx="1.68"/>
            <path fill="#01b7cd" d="M76.79 36.07a1.67 1.67 0 0 0-1.67 1.67 1.68 1.68 0 1 0 3.35 0 1.68 1.68 0 0 0-1.68-1.67zm0-16.77a1.68 1.68 0 1 0 1.68 1.7 1.68 1.68 0 0 0-1.68-1.7zm-8.38 8.38a1.68 1.68 0 1 0 1.68 1.68 1.68 1.68 0 0 0-1.68-1.68zm16.77 0a1.68 1.68 0 1 0 1.67 1.68 1.68 1.68 0 0 0-1.67-1.68zM68.41 10.91a1.68 1.68 0 1 0 1.68 1.68 1.68 1.68 0 0 0-1.68-1.68zm16.77 0a1.68 1.68 0 1 0 1.67 1.68 1.68 1.68 0 0 0-1.67-1.68zM60 19.3a1.68 1.68 0 1 0 0 3.35 1.68 1.68 0 0 0 0-3.35zM76.79 5.88a1.68 1.68 0 0 0 1.58-1.11c-.71-.2-1.42-.39-2.14-.56L75.14 4a2 2 0 0 0 0 .25 1.67 1.67 0 0 0 1.65 1.63zm0 63.72a1.68 1.68 0 0 0-1.67 1.68 1.68 1.68 0 0 0 3.35 0 1.68 1.68 0 0 0-1.68-1.68zm8.39-25.15a1.68 1.68 0 1 0 1.67 1.68 1.68 1.68 0 0 0-1.67-1.68z"/>
            <rect width="3.35" height="3.35" x="58.35" y="69.6" fill="#01b7cd" rx="1.68"/>
            <path fill="#01b7cd" d="M76.79 103.14a1.66 1.66 0 0 0-1.47.89c.38.25.72.51 1.06.78a12 12 0 0 1 1.4 1.35 1.65 1.65 0 0 0 .69-1.35 1.68 1.68 0 0 0-1.68-1.67zm0-16.77a1.68 1.68 0 1 0 1.68 1.68 1.68 1.68 0 0 0-1.68-1.68zm-8.38 8.38a1.68 1.68 0 1 0 1.68 1.68 1.68 1.68 0 0 0-1.68-1.68zm16.77 0a1.68 1.68 0 1 0 1.67 1.68 1.68 1.68 0 0 0-1.67-1.68zM68.41 78a1.68 1.68 0 1 0 1.68 1.68A1.68 1.68 0 0 0 68.41 78zm16.77 0a1.68 1.68 0 1 0 1.67 1.68A1.68 1.68 0 0 0 85.18 78zM60 86.37a1.68 1.68 0 1 0 0 3.35 1.68 1.68 0 0 0 0-3.35zM93.56 73a1.73 1.73 0 0 0 1-.31l-1-.45-1.66-.71A1.67 1.67 0 0 0 93.56 73zm-16.77 63.67a1.68 1.68 0 0 0-1.67 1.68 1.68 1.68 0 0 0 3.35 0 1.68 1.68 0 0 0-1.68-1.68zm-.46-13.48a1.77 1.77 0 0 0 .46.07 1.68 1.68 0 0 0 1.43-2.56 12.58 12.58 0 0 1-1.89 2.49zm-7.92 5.1a1.68 1.68 0 1 0 1.68 1.71 1.68 1.68 0 0 0-1.68-1.71zm16.77 0a1.68 1.68 0 1 0 1.67 1.71 1.68 1.68 0 0 0-1.67-1.71zm0-16.77a1.68 1.68 0 1 0 1.67 1.68 1.68 1.68 0 0 0-1.67-1.68z"/>
            <rect width="3.35" height="3.35" x="58.35" y="136.67" fill="#01b7cd" rx="1.68"/>
            <path fill="#01b7cd" d="M76.79 153.44a1.68 1.68 0 1 0 1.68 1.67 1.67 1.67 0 0 0-1.68-1.67zm-8.38-8.39a1.68 1.68 0 1 0 1.68 1.68 1.68 1.68 0 0 0-1.68-1.68zm16.77 0a1.68 1.68 0 1 0 1.67 1.68 1.68 1.68 0 0 0-1.67-1.68zM60 153.44a1.68 1.68 0 1 0 0 3.35 1.68 1.68 0 0 0 0-3.35zM43.47 4.21c-.61.15-1.21.3-1.81.47a1.67 1.67 0 0 0 3.28-.47 1.15 1.15 0 0 0 0-.33c-.52.12-.94.21-1.47.33zm-.21 31.86a1.68 1.68 0 0 0-1.68 1.67 1.68 1.68 0 0 0 3.36 0 1.68 1.68 0 0 0-1.68-1.67zm0-16.77a1.68 1.68 0 1 0 1.68 1.7 1.68 1.68 0 0 0-1.68-1.7zm-8.38 8.38a1.68 1.68 0 1 0 1.67 1.68 1.68 1.68 0 0 0-1.67-1.68zm16.76 0a1.68 1.68 0 1 0 1.68 1.68 1.68 1.68 0 0 0-1.68-1.68zM34.88 10.91a1.68 1.68 0 1 0 1.67 1.68 1.68 1.68 0 0 0-1.67-1.68zm16.76 0a1.68 1.68 0 1 0 1.68 1.68 1.68 1.68 0 0 0-1.68-1.68z"/>
            <rect width="3.35" height="3.35" x="24.82" y="36.07" fill="#01b7cd" rx="1.68"/>
            <path fill="#01b7cd" d="M26.49 19.3a1.68 1.68 0 0 0 0 3.35 1.68 1.68 0 1 0 0-3.35zm16.77 50.3a1.68 1.68 0 0 0-1.68 1.68 1.68 1.68 0 0 0 3.36 0 1.68 1.68 0 0 0-1.68-1.68zm0-13.41a9 9 0 0 1-1.34-2.67 1.65 1.65 0 0 0-.34 1 1.68 1.68 0 0 0 1.68 1.68zm-8.38 5.03a1.68 1.68 0 1 0 1.67 1.68 1.68 1.68 0 0 0-1.67-1.68zm16.18.11A1.65 1.65 0 0 0 50 62.9a1.68 1.68 0 0 0 3.35 0 1.72 1.72 0 0 0-.26-.9c-.72-.21-1.39-.44-2.03-.67zM34.88 44.45a1.68 1.68 0 1 0 1.67 1.68 1.68 1.68 0 0 0-1.67-1.68z"/>
            <rect width="3.35" height="3.35" x="24.82" y="69.6" fill="#01b7cd" rx="1.68"/>
            <path fill="#01b7cd" d="M26.49 52.83a1.68 1.68 0 0 0 0 3.36 1.68 1.68 0 1 0 0-3.36zm16.77 33.54a1.68 1.68 0 1 0 1.68 1.68 1.68 1.68 0 0 0-1.68-1.68zm8.38 8.38a1.69 1.69 0 0 0-1.55 2.31l2.77.52a1.68 1.68 0 0 0-1.22-2.83zM34.88 78a1.68 1.68 0 1 0 1.67 1.68A1.68 1.68 0 0 0 34.88 78zm16.76 0a1.68 1.68 0 1 0 1.68 1.68A1.68 1.68 0 0 0 51.64 78zm-25.15 8.37a1.68 1.68 0 0 0 0 3.35 1.68 1.68 0 1 0 0-3.35zm16.77 50.3a1.68 1.68 0 0 0-1.68 1.68 1.68 1.68 0 0 0 3.36 0 1.68 1.68 0 0 0-1.68-1.68zm-1.67-15.06a1.67 1.67 0 0 0 1.35 1.62 12.88 12.88 0 0 1-1.35-1.62zm-6.71 6.68a1.68 1.68 0 1 0 1.67 1.71 1.68 1.68 0 0 0-1.67-1.71zm16.76 0a1.68 1.68 0 1 0 1.68 1.71 1.67 1.67 0 0 0-1.68-1.71zm-18.36-15.58a1.62 1.62 0 0 0-.08.49 1.68 1.68 0 0 0 3.35 0 1.62 1.62 0 0 0-.08-.49z"/>
            <rect width="3.35" height="3.35" x="24.82" y="136.67" fill="#01b7cd" rx="1.68"/>
            <path fill="#01b7cd" d="M26.49 119.9a1.68 1.68 0 0 0 0 3.36 1.68 1.68 0 1 0 0-3.36zm16.77 33.54a1.68 1.68 0 1 0 1.68 1.67 1.68 1.68 0 0 0-1.68-1.67zm-8.38-8.39a1.68 1.68 0 1 0 1.67 1.68 1.68 1.68 0 0 0-1.67-1.68zm16.76 0a1.68 1.68 0 1 0 1.68 1.68 1.68 1.68 0 0 0-1.68-1.68zM9.73 36.07a1.68 1.68 0 0 0-1.68 1.67 1.68 1.68 0 1 0 3.35 0 1.67 1.67 0 0 0-1.67-1.67zm8.38-8.39a1.68 1.68 0 1 0 1.68 1.68 1.68 1.68 0 0 0-1.68-1.68zM9.73 69.6a1.65 1.65 0 0 0-1.48.91c.1.26.2.51.31.77.22.54.45 1.08.69 1.6a1.85 1.85 0 0 0 .48.07 1.67 1.67 0 0 0 1.67-1.67 1.68 1.68 0 0 0-1.67-1.68zm0-16.77a1.68 1.68 0 1 0 1.67 1.68 1.68 1.68 0 0 0-1.67-1.68zm8.38 8.39a1.68 1.68 0 1 0 1.68 1.68 1.68 1.68 0 0 0-1.68-1.68zm0-16.77a1.68 1.68 0 1 0 1.68 1.68 1.68 1.68 0 0 0-1.68-1.68zm0 33.55a1.68 1.68 0 1 0 1.68 1.68A1.68 1.68 0 0 0 18.11 78zm-8.38 58.67a1.65 1.65 0 0 0-.71.16c.31.52.64 1 1 1.52s.56.83.86 1.24a1.67 1.67 0 0 0 .55-1.24 1.68 1.68 0 0 0-1.7-1.68zm0-16.77a1.68 1.68 0 1 0 1.67 1.68 1.68 1.68 0 0 0-1.67-1.68zm8.38 8.39a1.68 1.68 0 1 0 1.68 1.71 1.68 1.68 0 0 0-1.68-1.71zM2.33 112.71c0 .6 0 1.18.08 1.77A1.67 1.67 0 0 0 3 113.2a1.62 1.62 0 0 0-.08-.49zm14.18 0a2 2 0 0 0-.08.49 1.68 1.68 0 0 0 3.36 0 2 2 0 0 0-.08-.49zm1.6 32.34a1.68 1.68 0 0 0-1.55 1c.77.72 1.58 1.41 2.41 2.08a1.68 1.68 0 0 0-.86-3.12z"/>
            <path fill="#01b7cd" d="M59.61 163C24.12 163 .72 143.29 0 112.76a2.32 2.32 0 0 1 2.33-2.38h36.79a2.33 2.33 0 0 1 2.33 2.33c0 11.9 10.37 13.27 18.16 13.27 16.28 0 18.17-7.57 18.17-13.27 0-7.74-9-9.81-23.76-12.55-21.62-4-51.23-9.5-51.23-48.46C2.79 21.26 26.26 0 59.85 0c32.9 0 55.83 20.27 57.05 50.44a2.32 2.32 0 0 1-2.33 2.42H79.18a2.32 2.32 0 0 1-2.33-2.27C76.62 41.85 70.75 37 60.31 37 45 37 43.78 47.19 43.78 50.3c0 7.74 9.09 9.81 23.91 12.54 21.75 4 51.54 9.51 51.54 48.47 0 31.41-23.4 51.69-59.62 51.69zM4.76 115c1.77 26.79 22.57 43.31 54.85 43.31 33.39 0 55-18.46 55-47 0-35.08-25.35-39.76-47.72-43.89-14.3-2.63-27.77-5.11-27.77-17.12 0-13.23 11.42-17.93 21.19-17.93 12.08 0 19.78 5.87 21 15.83h30.79C109.91 21.66 89.65 4.66 59.85 4.66c-31.34 0-52.4 18.9-52.4 47 0 35.08 25.19 39.76 47.42 43.89 14.18 2.63 27.57 5.11 27.57 17.12 0 8.18-4 17.93-22.83 17.93-17.09 0-22-8-22.7-15.6z"/>
          </svg>
        </svg>
      </g>
    </g>
    <path d="M143.44249863 155.4164029v-.85h1.08v.61q0 1.41 1.31 1.41 1.36 0 1.36-1.5v-6.33h1.17v6.28q-.05 2.39-2.48 2.44-2.3-.05-2.44-2.06Zm5.7-6.66h1.17v8.58h-1.17v-8.58Zm3.36 0 4.31 6.94v-6.94h1.12v8.58h-1.31l-4.36-6.94h-.05v6.94h-1.12v-8.58h1.41Zm12.45 4.97h-2.63v-.98h3.75v4.59h-.75l-.28-1.08q-.98 1.17-2.81 1.22-1.74 0-2.67-.89-1.41-1.31-1.36-3.61.32-4.27 4.07-4.45 3.19.18 3.66 2.81h-1.12q-.47-1.78-2.58-1.83-2.67.19-2.81 3.52 0 3.56 2.85 3.56 1.04 0 1.79-.56.93-.75.89-2.3Zm7.99-2.48h-1.07q-.1-1.64-2.16-1.74-1.92.05-1.92 1.5 0 .94 1.03 1.08l2.44.56q1.92.47 1.92 2.35-.05 2.39-3.38 2.48-1.82 0-2.57-.75-.94-.7-.9-2.16h1.13q.05 1.97 2.34 2.02 2.25-.05 2.3-1.45.19-1.18-1.87-1.55l-1.79-.38q-1.82-.51-1.82-2.06.14-2.53 3-2.62 3.23 0 3.32 2.72Zm7.3 1.82q-.19-3.37-3-3.56-2.86.14-3 3.56.14 3.33 3 3.47 2.81-.18 3-3.47Zm1.17 0q-.28 4.27-4.17 4.41-3.94-.14-4.22-4.41.23-4.45 4.22-4.54 3.89.14 4.17 4.54Zm1.58-4.31 4.31 6.94v-6.94h1.12v8.58h-1.31l-4.36-6.94h-.04v6.94h-1.13v-8.58h1.41Zm12.45 4.97h-2.63v-.98h3.75v4.59h-.75l-.28-1.08q-.98 1.17-2.81 1.22-1.74 0-2.67-.89-1.41-1.31-1.36-3.61.33-4.27 4.08-4.45 3.18.18 3.65 2.81h-1.12q-.47-1.78-2.58-1.83-2.67.19-2.81 3.52 0 3.56 2.86 3.56 1.03 0 1.78-.56.93-.75.89-2.3Z" class="tp-slogan" data-gra="path-slogan"/>
  </g>
</svg>
