<svg xmlns="http://www.w3.org/2000/svg" color-interpolation-filters="sRGB" style="margin:auto" version="1.0" viewBox="0 0 340 250">
  <g fill="#FFF" class="iconmbgsvg">
    <g class="iconsvg-imagesvg icon_container" mask="url(#a)" transform="translate(89.39968872 44.39968872)">
      <path fill="none" d="M0 0h161.20062275v161.20062275H0z" class="image-rect"/>
      <svg width="161.20062275" height="161.20062275" class="image-svg-svg bn" style="overflow:visible" viewBox="0 0 60 66.70372429">
        <g mask="url(#b)">
          <svg xmlns="http://www.w3.org/2000/svg" xmlns:xlink="http://www.w3.org/1999/xlink" xml:space="preserve" width="60" height="66.70372429" fill="#000" filter="url(#c)" style="overflow:visible" viewBox="9.5 5 81 90.05">
            <path d="M90.5 68.6V31.4c0-2.8-1.5-5.4-4-6.8L54 6c-1.2-.7-2.6-1-4-1s-2.7.3-4 1L13.5 24.6c-2.4 1.4-4 4-4 6.8v37.2c0 2.8 1.5 5.4 4 6.8L46 94c2.4 1.4 5.5 1.4 7.9 0l32.6-18.6c2.5-1.4 4-4 4-6.8z"/>
            <defs>
              <filter id="c">
                <feColorMatrix values="0 0 0 0 0.99609375 0 0 0 0 0.99609375 0 0 0 0 0.99609375 0 0 0 1 0"/>
              </filter>
            </defs>
          </svg>
          <svg xmlns="http://www.w3.org/2000/svg" xmlns:xlink="http://www.w3.org/1999/xlink" xml:space="preserve" width="53" height="58.92162" x="3.5" y="3.89105215" fill="#426755" class="image-svg-icon" style="enable-background:new 0 0 100 100" viewBox="9.5 5 81 90.05000305">
            <path d="M90.5 68.6V31.4c0-2.8-1.5-5.4-4-6.8L54 6c-1.2-.7-2.6-1-4-1s-2.7.3-4 1L13.5 24.6c-2.4 1.4-4 4-4 6.8v37.2c0 2.8 1.5 5.4 4 6.8L46 94c2.4 1.4 5.5 1.4 7.9 0l32.6-18.6c2.5-1.4 4-4 4-6.8zm-7.2-4.2c0 2.8-1.5 5.5-4 6.9L54 85.7c-1.2.7-2.6 1.1-4 1.1s-2.8-.4-4-1.1L20.7 71.3c-2.5-1.4-4-4.1-4-6.9V35.6c0-2.8 1.5-5.5 4-6.9L46 14.3c2.5-1.4 5.6-1.4 8.1 0l25.2 14.4c2.5 1.4 4 4.1 4 6.9v28.8z"/>
          </svg>
        </g>
        <mask id="b">
          <svg xmlns="http://www.w3.org/2000/svg" xmlns:xlink="http://www.w3.org/1999/xlink" xml:space="preserve" width="60" height="66.70372429" fill="#fff" style="overflow:visible" viewBox="9.5 5 81 90.05">
            <path d="M90.5 68.6V31.4c0-2.8-1.5-5.4-4-6.8L54 6c-1.2-.7-2.6-1-4-1s-2.7.3-4 1L13.5 24.6c-2.4 1.4-4 4-4 6.8v37.2c0 2.8 1.5 5.4 4 6.8L46 94c2.4 1.4 5.5 1.4 7.9 0l32.6-18.6c2.5-1.4 4-4 4-6.8z"/>
          </svg>
          <svg xmlns="http://www.w3.org/2000/svg" xmlns:xlink="http://www.w3.org/1999/xlink" xml:space="preserve" width="53" height="58.92162" x="3.5" y="3.89105215" fill="#000" class="image-svg-icon" style="enable-background:new 0 0 100 100" viewBox="9.5 5 81 90.05000305">
            <path d="M90.5 68.6V31.4c0-2.8-1.5-5.4-4-6.8L54 6c-1.2-.7-2.6-1-4-1s-2.7.3-4 1L13.5 24.6c-2.4 1.4-4 4-4 6.8v37.2c0 2.8 1.5 5.4 4 6.8L46 94c2.4 1.4 5.5 1.4 7.9 0l32.6-18.6c2.5-1.4 4-4 4-6.8zm-7.2-4.2c0 2.8-1.5 5.5-4 6.9L54 85.7c-1.2.7-2.6 1.1-4 1.1s-2.8-.4-4-1.1L20.7 71.3c-2.5-1.4-4-4.1-4-6.9V35.6c0-2.8 1.5-5.5 4-6.9L46 14.3c2.5-1.4 5.6-1.4 8.1 0l25.2 14.4c2.5 1.4 4 4.1 4 6.9v28.8z"/>
          </svg>
        </mask>
      </svg>
    </g>
    <g class="tp-name" data-gra="path-name">
      <path d="M168.0049996 120.37978256h1.08v-2.94h-1.08v-2.64c0-1.44-.96-2.4-2.4-2.4h-.75l1.14-1.47c1.23-1.41.75-3.42-1.26-3.42h-4.53c.27-.63.51-1.29.72-2.01h-3.24c-.84 2.34-1.89 3.63-4.29 5.25l.9 3.21c.27-.18.51-.36.78-.54l.18 1.83h3.69v2.19h-4.92l.3 2.94h4.62v2.13h-4.47l.3 2.88h4.17v2.79c0 .66-.45 1.05-1.14 1.08-1.2.03-1.38.03-2.7-.36l.81 3.18c1.53.42 1.71.36 3.18.3 2.28-.09 3.33-1.65 3.33-3.39v-3.6h3.18c1.44 0 2.4-.96 2.4-2.4Zm-3.36 0v1.68c0 .27-.18.45-.45.45h-1.77v-2.13Zm0-2.94h-2.22v-2.19h1.74c.33 0 .48.15.48.45Zm-3.54-5.04h-4.77c.81-.69 1.5-1.38 2.1-2.1h4.11Zm-10.95 15.72v.45c0 .57-.39.99-1.2.96-.72-.03-1.29-.12-1.89-.27l.54 2.88c.72.18 1.56.3 2.43.3 2.01 0 3.24-1.32 3.24-3.18v-8.7c0-1.56-.84-2.4-2.4-2.4h-6.09c-1.56 0-2.4.84-2.4 2.4v11.97h3.12v-4.41Zm0-2.52h-4.65v-1.14h4.65Zm0-3.66h-4.65v-.69c0-.27.18-.45.45-.45h3.75c.27 0 .45.18.45.45Zm-.78-7.53v-1.08h3.63v-2.58h-3.63v-1.08h4.56v-2.64h-4.56v-1.53h-3.18v1.53h-4.23l.3 2.64h3.93v1.08h-3.6l.3 2.58h3.3v1.08h-4.59l.3 2.7h11.91v-2.7Zm46.11-8.94h-3.18c.27 5.85 1.44 10.02 5.07 13.98l1.02-3.78c-1.95-2.82-2.79-6.06-2.91-10.2Zm-19.35 12h-3.39c-.15 4.65-1.05 9-2.58 13.29h3.63c1.44-4.29 2.28-8.64 2.34-13.29Zm-5.25-6.78 5.31 2.61v-3.87l-5.31-2.58Zm20.22-5.22h-3.15c0 4.53-.87 7.89-2.79 10.23l.99 3.66c3.51-3.72 4.77-7.56 4.95-13.89Zm-2.25 23.13c2.25-3.39 3.54-7.95 3.72-12.18h-3.42c-.45 4.53-1.53 8.31-3.6 12.18h-.63l.3 3.12h10.8c1.47 0 2.25-1.14 1.86-2.61l-2.01-7.68h-3.3l1.86 7.17Zm-5.19-8.25c.66.15 1.29.39 1.89.63v-2.94c-.6-.24-1.23-.45-1.89-.63v-4.32h1.98v-3.12h-1.98v-4.47h-3.48v4.47h-3.36l.3 3.12h3.06v3.81c-.27 0-.51-.03-.78-.03v-2.13h-2.16v4.2c0 3.51-.39 6.6-1.47 9.75l2.22.66c1.11-2.94 1.38-6.18 1.41-9.63.27.03.51.03.78.06v12.72h3.48Z"/>
      <path d="M146.21190184 135.70146923h-1.7836247v7.1344988c0 1.1159577-.4006002 1.4021007-1.430715 1.4021007-.2670668 0-.6295146-.0286143-.9633481-.190762l-.4292145 1.5451722c.572286.3052192 1.0396529.3052192 1.5070198.3052192 2.0602296 0 3.0998825-.763048 3.0998825-3.0331158Zm4.7785881-.1430715h-1.7645485v1.6596294h1.7645485Zm-.0190762 10.1771527v-7.248956h-1.716858v7.248956Zm8.1932279 0v-4.8262786c0-1.6977818-1.0110386-2.5943632-2.5085203-2.5943632-.858429 0-1.4974817.3529097-1.8408533 1.1064196l-.1239953-.9347338h-1.6024008v7.248956h1.7073199v-4.5305975c0-.9347338.5150574-1.3925626 1.3257959-1.3925626.8488909 0 1.3257959.4673669 1.3257959 1.4021007v4.5210594Zm1.2876435-3.7770876c0 2.2223773.7153575 3.6626304 2.8709681 3.6626304.7821242 0 1.3734864-.2766049 1.6787056-.9633481v.5818241c0 1.3257959-.476905 1.8408533-1.8313152 1.8408533-.6772051 0-1.1541101-.095381-1.7359342-.4292145l-.6962813 1.2685673c.763048.4864431 1.5451722.6104384 2.479906.6104384 2.4608298 0 3.4909446-1.1636482 3.4909446-3.3574112v-6.6862081h-1.526096l-.1144572.9347338c-.3338335-.8107385-.9728862-1.1064196-1.7454723-1.1064196-2.1556106 0-2.8709681 1.4688674-2.8709681 3.6435542Zm1.7454723 0c0-1.1064196.1716858-2.1460725 1.4116388-2.1460725 1.1350339 0 1.3639483.8870433 1.3925626 2.1460725 0 1.0968815-.2384525 2.1556106-1.3925626 2.1556106-1.1731863 0-1.4116388-1.0396529-1.4116388-2.1556106Zm5.7514743 3.2715683c.8488909.5055193 1.9171581.667667 3.0998825.667667 2.6897442 0 3.8438543-1.3067197 3.8247781-3.0617301 0-1.3925626-.858429-2.4131393-2.2128392-2.7469728l-1.5070198-.381524c-.8775052-.2003001-1.1922625-.4959812-1.1922625-1.3162578 0-.6962813.4959812-1.2018006 1.8408533-1.2018006.7248956 0 1.3925626.1239953 2.098382.5436717l.5627479-1.6024008c-.8298147-.476905-1.812239-.6009003-2.7374347-.6009003-2.384525 0-3.6435542 1.2113387-3.6435542 2.9949634 0 1.4211769.6962813 2.3272964 2.0316153 2.6611299l1.5070198.381524c.95381.2384525 1.3925626.667667 1.3639483 1.3257959 0 .9061195-.5627479 1.3448721-2.0220772 1.3448721-.7821242 0-1.6405532-.1526096-2.384525-.572286Zm14.7363645-3.1380349c0-2.1746868-.6962813-3.7770876-3.1571111-3.7770876-2.4512917 0-3.1284968 1.6310151-3.1284968 3.7770876 0 2.2319154.7248956 3.8057019 3.1284968 3.8057019 2.4417536 0 3.1571111-1.5737865 3.1571111-3.8057019Zm-1.7454723 0c0 1.1159577-.2384525 2.2986821-1.4116388 2.2986821-1.1541101 0-1.3925626-1.1922625-1.3925626-2.2986821 0-1.0873434.1716858-2.2796059 1.3925626-2.2796059 1.239953 0 1.4116388 1.1827244 1.4116388 2.2796059Zm9.9100859 3.6435542v-4.8262786c0-1.6977818-1.0110386-2.5943632-2.5085203-2.5943632-.8488909 0-1.4974817.3529097-1.8408533 1.1064196l-.1239953-.9347338h-1.6024008v7.248956h1.7073199v-4.5305975c0-.9347338.5150574-1.3925626 1.3257959-1.3925626.8488909 0 1.3257959.4673669 1.3257959 1.4021007v4.5210594Zm1.2971816-3.7770876c0 2.2223773.7058194 3.6626304 2.86143 3.6626304.7821242 0 1.3734864-.2766049 1.6787056-.9633481v.5818241c0 1.3257959-.476905 1.8408533-1.8313152 1.8408533-.6772051 0-1.1541101-.095381-1.7359342-.4292145l-.6962813 1.2685673c.763048.4864431 1.5451722.6104384 2.479906.6104384 2.4608298 0 3.4909446-1.1636482 3.4909446-3.3574112v-6.6862081h-1.526096l-.1144572.9347338c-.3338335-.8107385-.9728862-1.1064196-1.7454723-1.1064196-2.1556106 0-2.86143 1.4688674-2.86143 3.6435542Zm1.7359342 0c0-1.1064196.1716858-2.1460725 1.4116388-2.1460725 1.1350339 0 1.3639483.8870433 1.3925626 2.1460725 0 1.0968815-.2384525 2.1556106-1.3925626 2.1556106-1.1731863 0-1.4116388-1.0396529-1.4116388-2.1556106Z" data-gra="path-name-1"/>
    </g>
  </g>
  <mask id="a">
    <g fill="#fff" class="iconsvg-imagesvg icon_container">
      <path stroke-width="2" d="M0 0h161.20062275v161.20062275H0z" class="image-rect"/>
      <svg width="161.20062275" height="161.20062275" class="image-svg-svg bn" style="overflow:visible" viewBox="0 0 60 66.70372429">
        <g mask="url(#b)">
          <svg xmlns="http://www.w3.org/2000/svg" xmlns:xlink="http://www.w3.org/1999/xlink" xml:space="preserve" width="60" height="66.70372429" filter="url(#colorsb4382571659)" viewBox="9.5 5 81 90.05">
            <path d="M90.5 68.6V31.4c0-2.8-1.5-5.4-4-6.8L54 6c-1.2-.7-2.6-1-4-1s-2.7.3-4 1L13.5 24.6c-2.4 1.4-4 4-4 6.8v37.2c0 2.8 1.5 5.4 4 6.8L46 94c2.4 1.4 5.5 1.4 7.9 0l32.6-18.6c2.5-1.4 4-4 4-6.8z"/>
          </svg>
          <svg xmlns="http://www.w3.org/2000/svg" xmlns:xlink="http://www.w3.org/1999/xlink" xml:space="preserve" width="53" height="58.92162" x="3.5" y="3.89105215" viewBox="9.5 5 81 90.05000305">
            <path d="M90.5 68.6V31.4c0-2.8-1.5-5.4-4-6.8L54 6c-1.2-.7-2.6-1-4-1s-2.7.3-4 1L13.5 24.6c-2.4 1.4-4 4-4 6.8v37.2c0 2.8 1.5 5.4 4 6.8L46 94c2.4 1.4 5.5 1.4 7.9 0l32.6-18.6c2.5-1.4 4-4 4-6.8zm-7.2-4.2c0 2.8-1.5 5.5-4 6.9L54 85.7c-1.2.7-2.6 1.1-4 1.1s-2.8-.4-4-1.1L20.7 71.3c-2.5-1.4-4-4.1-4-6.9V35.6c0-2.8 1.5-5.5 4-6.9L46 14.3c2.5-1.4 5.6-1.4 8.1 0l25.2 14.4c2.5 1.4 4 4.1 4 6.9v28.8z"/>
          </svg>
        </g>
      </svg>
    </g>
    <g stroke="#000" stroke-linejoin="round" stroke-width="6" class="tp-name" data-gra="path-name">
      <path d="M78.60531089 75.98009384h1.08v-2.94h-1.08v-2.64c0-1.44-.96-2.4-2.4-2.4h-.75l1.14-1.47c1.23-1.41.75-3.42-1.26-3.42h-4.53c.27-.63.51-1.29.72-2.01h-3.24c-.84 2.34-1.89 3.63-4.29 5.25l.9 3.21c.27-.18.51-.36.78-.54l.18 1.83h3.69v2.19h-4.92l.3 2.94h4.62v2.13h-4.47l.3 2.88h4.17v2.79c0 .66-.45 1.05-1.14 1.08-1.2.03-1.38.03-2.7-.36l.81 3.18c1.53.42 1.71.36 3.18.3 2.28-.09 3.33-1.65 3.33-3.39v-3.6h3.18c1.44 0 2.4-.96 2.4-2.4Zm-3.36 0v1.68c0 .27-.18.45-.45.45h-1.77v-2.13Zm0-2.94h-2.22v-2.19h1.74c.33 0 .48.15.48.45Zm-3.54-5.04h-4.77c.81-.69 1.5-1.38 2.1-2.1h4.11Zm-10.95 15.72v.45c0 .57-.39.99-1.2.96-.72-.03-1.29-.12-1.89-.27l.54 2.88c.72.18 1.56.3 2.43.3 2.01 0 3.24-1.32 3.24-3.18v-8.7c0-1.56-.84-2.4-2.4-2.4h-6.09c-1.56 0-2.4.84-2.4 2.4v11.97h3.12v-4.41Zm0-2.52h-4.65v-1.14h4.65Zm0-3.66h-4.65v-.69c0-.27.18-.45.45-.45h3.75c.27 0 .45.18.45.45Zm-.78-7.53v-1.08h3.63v-2.58h-3.63v-1.08h4.56v-2.64h-4.56v-1.53h-3.18v1.53h-4.23l.3 2.64h3.93v1.08h-3.6l.3 2.58h3.3v1.08h-4.59l.3 2.7h11.91v-2.7Zm46.11-8.94h-3.18c.27 5.85 1.44 10.02 5.07 13.98l1.02-3.78c-1.95-2.82-2.79-6.06-2.91-10.2Zm-19.35 12h-3.39c-.15 4.65-1.05 9-2.58 13.29h3.63c1.44-4.29 2.28-8.64 2.34-13.29Zm-5.25-6.78 5.31 2.61v-3.87l-5.31-2.58Zm20.22-5.22h-3.15c0 4.53-.87 7.89-2.79 10.23l.99 3.66c3.51-3.72 4.77-7.56 4.95-13.89Zm-2.25 23.13c2.25-3.39 3.54-7.95 3.72-12.18h-3.42c-.45 4.53-1.53 8.31-3.6 12.18h-.63l.3 3.12h10.8c1.47 0 2.25-1.14 1.86-2.61l-2.01-7.68h-3.3l1.86 7.17Zm-5.19-8.25c.66.15 1.29.39 1.89.63v-2.94c-.6-.24-1.23-.45-1.89-.63v-4.32h1.98v-3.12h-1.98v-4.47h-3.48v4.47h-3.36l.3 3.12h3.06v3.81c-.27 0-.51-.03-.78-.03v-2.13h-2.16v4.2c0 3.51-.39 6.6-1.47 9.75l2.22.66c1.11-2.94 1.38-6.18 1.41-9.63.27.03.51.03.78.06v12.72h3.48Z"/>
      <path stroke-width="5.722860000000001" d="M56.81221312 91.30178051h-1.7836247v7.1344988c0 1.1159577-.4006002 1.4021007-1.430715 1.4021007-.2670668 0-.6295146-.0286143-.9633481-.190762l-.4292145 1.5451722c.572286.3052192 1.0396529.3052192 1.5070198.3052192 2.0602296 0 3.0998825-.763048 3.0998825-3.0331158Zm4.7785881-.1430715h-1.7645485v1.6596294h1.7645485Zm-.0190762 10.1771527v-7.248956h-1.716858v7.248956Zm8.1932279 0v-4.8262786c0-1.6977818-1.0110386-2.5943632-2.5085203-2.5943632-.858429 0-1.4974817.3529097-1.8408533 1.1064196l-.1239953-.9347338h-1.6024008v7.248956h1.7073199v-4.5305975c0-.9347338.5150574-1.3925626 1.3257959-1.3925626.8488909 0 1.3257959.4673669 1.3257959 1.4021007v4.5210594Zm1.2876435-3.7770876c0 2.2223773.7153575 3.6626304 2.8709681 3.6626304.7821242 0 1.3734864-.2766049 1.6787056-.9633481v.5818241c0 1.3257959-.476905 1.8408533-1.8313152 1.8408533-.6772051 0-1.1541101-.095381-1.7359342-.4292145l-.6962813 1.2685673c.763048.4864431 1.5451722.6104384 2.479906.6104384 2.4608298 0 3.4909446-1.1636482 3.4909446-3.3574112v-6.6862081h-1.526096l-.1144572.9347338c-.3338335-.8107385-.9728862-1.1064196-1.7454723-1.1064196-2.1556106 0-2.8709681 1.4688674-2.8709681 3.6435542Zm1.7454723 0c0-1.1064196.1716858-2.1460725 1.4116388-2.1460725 1.1350339 0 1.3639483.8870433 1.3925626 2.1460725 0 1.0968815-.2384525 2.1556106-1.3925626 2.1556106-1.1731863 0-1.4116388-1.0396529-1.4116388-2.1556106Zm5.7514743 3.2715683c.8488909.5055193 1.9171581.667667 3.0998825.667667 2.6897442 0 3.8438543-1.3067197 3.8247781-3.0617301 0-1.3925626-.858429-2.4131393-2.2128392-2.7469728l-1.5070198-.381524c-.8775052-.2003001-1.1922625-.4959812-1.1922625-1.3162578 0-.6962813.4959812-1.2018006 1.8408533-1.2018006.7248956 0 1.3925626.1239953 2.098382.5436717l.5627479-1.6024008c-.8298147-.476905-1.812239-.6009003-2.7374347-.6009003-2.384525 0-3.6435542 1.2113387-3.6435542 2.9949634 0 1.4211769.6962813 2.3272964 2.0316153 2.6611299l1.5070198.381524c.95381.2384525 1.3925626.667667 1.3639483 1.3257959 0 .9061195-.5627479 1.3448721-2.0220772 1.3448721-.7821242 0-1.6405532-.1526096-2.384525-.572286Zm14.7363645-3.1380349c0-2.1746868-.6962813-3.7770876-3.1571111-3.7770876-2.4512917 0-3.1284968 1.6310151-3.1284968 3.7770876 0 2.2319154.7248956 3.8057019 3.1284968 3.8057019 2.4417536 0 3.1571111-1.5737865 3.1571111-3.8057019Zm-1.7454723 0c0 1.1159577-.2384525 2.2986821-1.4116388 2.2986821-1.1541101 0-1.3925626-1.1922625-1.3925626-2.2986821 0-1.0873434.1716858-2.2796059 1.3925626-2.2796059 1.239953 0 1.4116388 1.1827244 1.4116388 2.2796059Zm9.9100859 3.6435542v-4.8262786c0-1.6977818-1.0110386-2.5943632-2.5085203-2.5943632-.8488909 0-1.4974817.3529097-1.8408533 1.1064196l-.1239953-.9347338h-1.6024008v7.248956h1.7073199v-4.5305975c0-.9347338.5150574-1.3925626 1.3257959-1.3925626.8488909 0 1.3257959.4673669 1.3257959 1.4021007v4.5210594Zm1.2971816-3.7770876c0 2.2223773.7058194 3.6626304 2.86143 3.6626304.7821242 0 1.3734864-.2766049 1.6787056-.9633481v.5818241c0 1.3257959-.476905 1.8408533-1.8313152 1.8408533-.6772051 0-1.1541101-.095381-1.7359342-.4292145l-.6962813 1.2685673c.763048.4864431 1.5451722.6104384 2.479906.6104384 2.4608298 0 3.4909446-1.1636482 3.4909446-3.3574112v-6.6862081h-1.526096l-.1144572.9347338c-.3338335-.8107385-.9728862-1.1064196-1.7454723-1.1064196-2.1556106 0-2.86143 1.4688674-2.86143 3.6435542Zm1.7359342 0c0-1.1064196.1716858-2.1460725 1.4116388-2.1460725 1.1350339 0 1.3639483.8870433 1.3925626 2.1460725 0 1.0968815-.2384525 2.1556106-1.3925626 2.1556106-1.1731863 0-1.4116388-1.0396529-1.4116388-2.1556106Z" data-gra="path-name-1"/>
    </g>
  </mask>
</svg>
