<svg xmlns="http://www.w3.org/2000/svg" color-interpolation-filters="sRGB" style="margin:auto" version="1.0" viewBox="0 0 340 250">
  <g fill="#FFF" class="iconmbgsvg">
    <g class="iconsvg-imagesvg icon_container" mask="url(#a)" transform="translate(89.39968872 44.39968872)">
      <path fill="none" d="M0 0h161.20062275v161.20062275H0z" class="image-rect"/>
      <svg width="161.20062275" height="161.20062275" class="image-svg-svg bn" style="overflow:visible" viewBox="0 0 60 66.70372429">
        <g mask="url(#b)">
          <svg xmlns="http://www.w3.org/2000/svg" xmlns:xlink="http://www.w3.org/1999/xlink" xml:space="preserve" width="60" height="66.70372429" fill="#000" filter="url(#c)" style="overflow:visible" viewBox="9.5 5 81 90.05">
            <path d="M90.5 68.6V31.4c0-2.8-1.5-5.4-4-6.8L54 6c-1.2-.7-2.6-1-4-1s-2.7.3-4 1L13.5 24.6c-2.4 1.4-4 4-4 6.8v37.2c0 2.8 1.5 5.4 4 6.8L46 94c2.4 1.4 5.5 1.4 7.9 0l32.6-18.6c2.5-1.4 4-4 4-6.8z"/>
            <defs>
              <filter id="c">
                <feColorMatrix values="0 0 0 0 0.99609375 0 0 0 0 0.99609375 0 0 0 0 0.99609375 0 0 0 1 0"/>
              </filter>
            </defs>
          </svg>
          <svg xmlns="http://www.w3.org/2000/svg" xmlns:xlink="http://www.w3.org/1999/xlink" xml:space="preserve" width="53" height="58.92162" x="3.5" y="3.89105215" fill="#426755" class="image-svg-icon" style="enable-background:new 0 0 100 100" viewBox="9.5 5 81 90.05000305">
            <path d="M90.5 68.6V31.4c0-2.8-1.5-5.4-4-6.8L54 6c-1.2-.7-2.6-1-4-1s-2.7.3-4 1L13.5 24.6c-2.4 1.4-4 4-4 6.8v37.2c0 2.8 1.5 5.4 4 6.8L46 94c2.4 1.4 5.5 1.4 7.9 0l32.6-18.6c2.5-1.4 4-4 4-6.8zm-7.2-4.2c0 2.8-1.5 5.5-4 6.9L54 85.7c-1.2.7-2.6 1.1-4 1.1s-2.8-.4-4-1.1L20.7 71.3c-2.5-1.4-4-4.1-4-6.9V35.6c0-2.8 1.5-5.5 4-6.9L46 14.3c2.5-1.4 5.6-1.4 8.1 0l25.2 14.4c2.5 1.4 4 4.1 4 6.9v28.8z"/>
          </svg>
        </g>
        <mask id="b">
          <svg xmlns="http://www.w3.org/2000/svg" xmlns:xlink="http://www.w3.org/1999/xlink" xml:space="preserve" width="60" height="66.70372429" fill="#fff" style="overflow:visible" viewBox="9.5 5 81 90.05">
            <path d="M90.5 68.6V31.4c0-2.8-1.5-5.4-4-6.8L54 6c-1.2-.7-2.6-1-4-1s-2.7.3-4 1L13.5 24.6c-2.4 1.4-4 4-4 6.8v37.2c0 2.8 1.5 5.4 4 6.8L46 94c2.4 1.4 5.5 1.4 7.9 0l32.6-18.6c2.5-1.4 4-4 4-6.8z"/>
          </svg>
          <svg xmlns="http://www.w3.org/2000/svg" xmlns:xlink="http://www.w3.org/1999/xlink" xml:space="preserve" width="53" height="58.92162" x="3.5" y="3.89105215" fill="#000" class="image-svg-icon" style="enable-background:new 0 0 100 100" viewBox="9.5 5 81 90.05000305">
            <path d="M90.5 68.6V31.4c0-2.8-1.5-5.4-4-6.8L54 6c-1.2-.7-2.6-1-4-1s-2.7.3-4 1L13.5 24.6c-2.4 1.4-4 4-4 6.8v37.2c0 2.8 1.5 5.4 4 6.8L46 94c2.4 1.4 5.5 1.4 7.9 0l32.6-18.6c2.5-1.4 4-4 4-6.8zm-7.2-4.2c0 2.8-1.5 5.5-4 6.9L54 85.7c-1.2.7-2.6 1.1-4 1.1s-2.8-.4-4-1.1L20.7 71.3c-2.5-1.4-4-4.1-4-6.9V35.6c0-2.8 1.5-5.5 4-6.9L46 14.3c2.5-1.4 5.6-1.4 8.1 0l25.2 14.4c2.5 1.4 4 4.1 4 6.9v28.8z"/>
          </svg>
        </mask>
      </svg>
    </g>
    <g class="tp-name" data-gra="path-name">
      <path d="M141.46121969 118.94566376c2.16-.99 4.35-2.25 6.24-4.68l.03 6.09c0 .51-.18.93-.39 1.53-.15.6 0 1.02.15 1.2.27.36 1.23 1.98 2.55 1.95.9-.03 1.35-.96 1.26-2.1-.06-.57-.09-1.74-.12-3.3 1.65-.63 4.83-2.55 6.9-5.64-.03 3.03-.09 5.79-.21 7.47-.12 2.04 1.02 4.17 1.77 4.5.87.36 2.16-1.8 1.98-4.5-.09-1.14-.12-4.32-.09-7.89 1.02 1.83 2.1 3.36 3.09 4.68.6.93 1.38 1.11 2.52.96.63-.12 1.89-.33 3.33-.81.51-.12.63-.3.15-.57-.75-.36-2.61-1.68-3.81-2.91-1.56-1.47-3.27-3.57-4.92-5.94-.12-.15-.21-.27-.3-.39v-.15c1.62-.18 3.27-.36 4.47-.39 1.11-.03 1.59-.3 1.41-.87-.24-.78-1.02-1.59-1.68-1.92-.45-.33-1.08-.33-1.5-.21-.84.24-1.71.45-2.64.66.09-2.94.18-5.31.27-6 .09-1.08 0-1.47-.48-1.8-.6-.51-1.26-.78-2.91-.99-.87-.06-1.17.27-.93.99.33.96.39 1.68.39 2.64.06 1.59.09 3.6.09 5.79-1.26.21-2.46.33-3.48.42-.81.06-.06 1.26.48 2.04.42.63.78.63 2.1.33l-.09.33c-.51 1.65-3.09 5.94-5.91 9 0-2.16 0-4.77.03-7.32.6 1.08 1.11 2.28 1.8 2.79.87.57 2.07-.75 2.28-1.89.06-.78-.9-1.35-1.68-1.74-.78-.42-1.65-.72-2.4-.9.03-.33.03-.69.03-1.02.75-.12 1.32-.18 2.22-.21.36 0 .93-.24.72-.75-.33-.75-.57-1.29-1.08-1.86-.3-.36-1.29.03-1.62.15-.03 0-.12.03-.18.06.06-1.98.12-3.48.21-4.05.12-.66.66-1.77-.09-2.55-.42-.51-1.86-1.26-3.36-1.26-.87 0-1.11.57-.87 1.26.33.87.45 1.83.45 2.88l.03 4.44-1.47.27c-.99.18-1.92.27-2.7.27-.45 0-.63.18-.45.6.51 1.02 1.29 1.86 1.8 2.16.27.12.93 0 1.2-.18.51-.24.96-.42 1.44-.54-1.71 4.05-4.17 7.32-6.27 9.15-.54.48-.21.9.24.72Zm35.43-4.71c1.14-.18 2.46-.66 3.72-1.32l1.77.81c-2.4 1.41-5.4 2.82-7.68 3.42-1.05.27-.66.75.15.69 2.82-.18 5.25-.72 7.38-1.47 0 .3-.03.6-.09.93-1.92.3-3.78.51-4.65.45-1.05-.06.72 2.7 1.92 2.34.39-.12 1.14-.27 2.01-.42-.93 1.89-2.82 3.84-5.58 5.43-.57.3-.18.66.78.51 4.65-.84 6.87-3.24 8.28-6.03l.21-.54c.75-.12 1.44-.21 1.89-.3.63-.06.69 0 .63.33-.36 1.35-.57 2.13-.81 2.79-.27.33-.42.39-.81.39-.42 0-.96-.03-1.56-.12-.33-.06-.63.21-.24.57.99.87 1.8 1.62 2.34 2.43.48.54.84.87 1.74.27 1.29-.9 1.35-1.47 1.62-2.25.33-1.08.51-2.82 1.35-4.83.12-.39-.9-1.23-1.8-1.77 1.41.51 2.64.93 3.36 1.11.99.24 1.41.3 2.43.06 1.2-.27 2.7-1.29 3.69-2.07.27-.27.12-.51-.93-.6-1.26-.12-3.9-.48-5.34-.72-1.65-.27-3.3-.6-4.86-.96 1.14-.87 2.07-1.77 2.79-2.61.63-.69-2.22-2.43-3.06-2.13-.6.27-1.65.45-2.7.54-.57-.87-2.31-2.07-2.37-1.59-.3 1.38-3.45 4.74-5.94 6.15-.3.24-.09.63.36.51Zm-3.36-7.38c.27.69.93 1.56 1.8 1.89.66.48 1.29-.42 1.65-1.02.54-.84.96-1.92 1.35-3.24.03-.09.06-.18.06-.24.24.03.42 0 .63-.03 1.32-.12 2.73-.3 4.17-.51 0 .81-.06 1.56-.15 2.16-.15 1.35.69 2.13 1.74 2.61.84.51 1.53-.39 1.53-2.43 0-.9 0-1.8.03-2.73l2.1-.27c1.71-.27 3.03-.42 3.72-.48.45-.06.48-.15.39.21-.06.18-.72 2.31-.81 2.55-.15.51-.06.93.51.57 1.2-.81 3.51-1.68 4.38-1.92.9-.3 1.17-.57.78-1.53-.36-.93-1.8-2.34-2.76-2.76-.72-.27-1.2.12-1.65.27-.87.21-3.51.6-6.63 1.02v-.15c0-.24.09-.51.09-.78 1.92-.21 3.87-.36 5.31-.39 1.38-.03-.36-3.15-1.5-2.88-3.48.75-8.49 1.47-11.7 1.53-1.08.03.93 2.97 2.13 2.61.51-.15 1.38-.3 2.4-.45.03.3.06.6.06.93-1.95.24-3.93.45-5.64.63l-.54-.36c-.66-.51-.99-.3-1.11.39-.18 1.35-.99 2.7-1.83 3.33-.57.51-.75.84-.51 1.47Zm4.5.72c.9.69 1.47 1.29 2.04 1.77.42.39.75.6 1.05.3 1.5-1.56.6-3.39-3.09-2.7-.63.09-.24.48 0 .63Zm.96-2.28c.84.6 1.41 1.14 1.86 1.44.42.36.72.57.93.27 1.29-1.44.03-2.97-2.79-2.19-.51.15-.15.39 0 .48Zm3.39 6.63c.39-.24.72-.51 1.05-.75 1.02-.09 1.74-.18 1.98-.21.57-.03.63.06.42.3-.36.36-.9.78-1.53 1.23Zm1.56 3.72c.48-.21.96-.45 1.41-.69.96.39 1.95.78 2.88 1.14-.3.12-1.38.36-2.79.63-.36-.36-.9-.78-1.5-1.08Zm3.06-8.88c.96.84 1.56 1.41 2.16 1.8.42.42.75.63 1.08.33 1.53-1.56.12-3.36-3.24-2.76-.6.06-.18.42 0 .63Zm.39-2.52c-.45.12-.12.48.09.57.84.42 1.98 1.05 2.52 1.35.39.24.6.27.87-.06 1.14-1.86-.72-2.67-3.48-1.86Z"/>
      <path d="M151.0266894 156.67160278c.760032.058464 1.344672-.496944 1.90008-1.16928.701568-.847728.701568-1.695456.701568-2.660112 0-1.783152-.29232-5.729472 0-8.097264.029232-.496944.613872-.935424.29232-1.432368-.380016-.643104-.906192-.906192-1.666224-1.344672-.380016-.233856-.672336-.175392-.87696.029232-.29232.204624-.467712.29232-1.110816.496944-.643104.14616-2.513952.496944-3.917088.58464-.380016-.175392-.87696-.321552-1.60776-.380016-.380016-.029232-.380016.380016-.14616.701568.380016 1.110816.175392 9.35424 0 10.552752-.204624.935424 1.02312 2.017008 1.695456 2.017008.818496-.029232 1.110816-.58464 1.081584-2.104704v-2.806272c.58464-.058464 1.841616-.14616 2.104704-.14616.993888 0 1.052352-.526176.818496-.906192-.204624-.467712-.496944-.847728-.993888-1.052352-.233856-.087696-1.110816.087696-1.373904.14616-.175392.058464-.350784.087696-.555408.116928 0-.409248.029232-.818496.029232-1.198512.613872-.058464 1.724688-.14616 2.017008-.14616.935424 0 1.02312-.526176.818496-.906192-.204624-.467712-.409248-.818496-.87696-1.02312-.233856-.116928-1.110816.058464-1.520064.116928-.14616.029232-.29232.058464-.409248.058464 0-.58464.029232-.964656.029232-1.02312 0-.058464.029232-.14616.058464-.233856.847728-.14616 1.958544-.29232 3.040128-.409248.029232 2.133936.058464 5.787936.058464 7.395696 0 1.140048 0 1.4616-.380016 1.520064-.526176.058464-.935424.087696-1.578528.087696-.467712 0-.643104.29232-.321552.43848 1.490832.701568 1.549296 1.60776 1.987776 2.163168.204624.263088.350784.58464.701568.613872Zm-9.821952-15.083712c.58464.789264.993888 1.31544 1.929312 1.081584 2.513952-.526176 8.506512-1.373904 10.903536-1.31544.233856 0 .58464 0 .613872-.526176.058464-.380016-.14616-.760032-.526176-1.16928 1.60776-1.140048 2.864736-2.426256 3.858624-3.654.613872-.087696 2.017008-.526176 2.397024-.7308-.350784.58464-1.432368 2.309328-2.163168 3.36168-1.16928.233856-2.33856.467712-3.06936.555408-.263088.058464-.496944.233856-.380016.467712.29232.613872.380016.789264.613872.993888.321552.233856.613872.350784.993888.350784.116928 0 .613872-.116928 1.286208-.29232.058464.43848.087696.993888.14616 1.636992-1.140048.14616-2.280096.29232-3.332448.350784-.409248.058464-.643104.087696-.526176.58464.116928.526176.29232.906192.906192 1.286208.350784.233856.87696.350784 1.31544.29232.496944-.058464 1.110816-.14616 1.75392-.263088.029232.643104.058464 1.286208.058464 1.958544-1.16928.14616-2.33856.233856-3.010896.29232-.526176.029232-.643104.350784-.526176.58464.350784.672336 1.256976 1.520064 1.870848 1.432368.233856-.058464.906192-.14616 1.724688-.263088 0 1.724688-.058464 3.186288-.175392 3.770928-.204624.847728-.555408.964656-.818496 1.02312-.555408.087696-.964656.029232-1.636992.029232-.233856 0-.350784.29232-.029232.467712.964656.613872 1.432368 1.286208 2.017008 2.48472.526176 1.081584 1.4616.993888 1.929312.555408 1.695456-1.4616 1.4616-2.63088 1.520064-4.267872.029232-.672336 0-2.48472-.029232-4.414032.43848-.058464.818496-.087696 1.081584-.116928.350784.29232.789264.526176 1.110816.613872 1.16928.29232 1.75392-1.520064 1.929312-3.040128.029232-.467712.058464-1.140048.116928-1.841616.906192-.029232 1.724688 0 2.309328.116928.789264.14616 1.286208-.555408 1.198512-1.02312-.116928-.672336-.467712-1.198512-1.227744-1.666224-.29232-.204624-.818496-.263088-1.373904-.204624l-.672336.087696c.029232-.467712.087696-.847728.14616-1.140048.087696-.496944.467712-.847728.263088-1.110816-.496944-.643104-1.520064-1.344672-2.280096-1.60776-.467712-.204624-1.198512.409248-1.783152.526176-.350784.087696-.847728.204624-1.403136.321552 1.549296-1.16928 3.975552-3.332448 3.858624-3.94632-.116928-.43848-.847728-.847728-1.549296-1.4616-.380016-.350784-.643104-.467712-1.344672 0-.380016.233856-.818496.526176-1.4616.789264.409248-.643104.701568-1.16928.935424-1.549296.380016-.643104.467712-1.052352.175392-1.432368-.643104-.7308-1.256976-1.140048-2.221632-1.520064-.43848-.14616-.789264.087696-.760032.672336.058464 1.403136-1.256976 5.144832-4.267872 9.441936-.643104-.467712-1.432368-.175392-2.250864 0l-.672336.14616c.029232-.380016.058464-.7308.058464-1.081584.993888-.116928 1.870848-.233856 2.250864-.233856.643104 0 1.052352-.087696.993888-.643104 0-.29232-.409248-1.110816-.993888-1.432368-.409248-.175392-.7308-.175392-1.110816-.116928-.14616.029232-.496944.087696-1.02312.204624.029232-.350784.029232-.701568.058464-1.052352 1.373904-.204624 2.63088-.350784 3.273984-.350784.43848 0 .701568-.409248.526176-.818496-.116928-.380016-.29232-.760032-.613872-1.140048-.116928-.175392-.7308-.613872-1.373904-.409248-.350784.087696-.993888.204624-1.75392.380016.029232-.467712.029232-1.052352.058464-1.520064.029232-.643104 0-.964656-.321552-1.198512-.409248-.467712-1.724688-.87696-2.572416-.789264-.409248.029232-.58464.526176-.526176.7308.116928.643104.175392 1.636992.233856 2.309328 0 .321552 0 .701568.029232 1.140048-1.344672.233856-2.718576.467712-3.858624.555408-.409248.058464-.496944.43848-.321552.7308.321552.613872.964656 1.432368 1.636992 1.31544.43848-.116928 1.403136-.29232 2.572416-.496944v1.16928l-2.806272.555408c-.43848.058464-.613872.380016-.43848.613872l.380016.58464c.321552.409248.526176.613872.993888.555408.29232 0 1.02312-.116928 1.90008-.233856v1.140048c-2.163168.350784-4.67712.701568-6.167952.87696-1.02312.116928-.935424.467712-.555408.935424Zm19.410048-1.490832c.350784-.087696.672336-.116928.935424-.14616.526176-.029232.789264 0 .789264.321552v1.344672l-1.695456.29232c-.087696-.935424.14616-1.403136-.029232-1.812384Zm.087696 4.121712 1.520064-.175392c-.058464.613872-.14616 1.198512-.233856 1.75392 0 .058464-.029232.087696-.029232.14616-.29232-.029232-.7308.058464-1.198512.14616 0-.643104-.029232-1.286208-.058464-1.870848Zm10.640448 9.79272c.467712.496944 1.490832.58464 2.017008-.321552.789264-1.31544 2.513952-6.781824 3.624768-12.452832.233856-1.110816-.087696-1.490832-.496944-.409248-1.286208 2.981664-2.660112 4.940208-4.560192 7.571088-.555408.701568-1.198512 1.052352-1.636992 1.052352-.789264 0-1.052352.175392-.906192.789264.321552 1.256976 1.227744 2.952432 1.958544 3.770928Zm-.058464-20.31624c.935424.935424 1.90008 2.601648 2.689344 4.150944.409248.789264 1.052352.935424 1.90008.58464.43848-.204624 1.695456-1.841616.964656-3.273984-.760032-1.520064-3.157056-2.48472-5.26176-2.309328-.87696.087696-.760032.350784-.29232.847728Zm4.267872 16.574544c-.43848.613872.233856.818496.613872.58464 1.578528-.964656 2.747808-2.250864 3.770928-3.917088l.029232 5.027904c0 .555408-.14616.964656-.29232 1.549296-.175392.613872 0 1.052352.087696 1.227744.263088.380016 1.110816 1.987776 2.367792 1.958544.789264-.029232 1.256976-.935424 1.140048-2.104704-.116928-1.140048-.14616-4.998672-.116928-9.149616.14616.350784.29232.701568.43848.964656.29232.526176 1.052352.847728 1.724688.380016.760032-.58464 1.227744-1.90008-.058464-2.893968-.555408-.409248-1.344672-.789264-2.104704-1.110816.029232-1.081584.029232-2.163168.058464-3.186288.87696-.175392 1.636992-.29232 2.133936-.321552.321552-.029232 1.052352-.116928.906192-.672336-.175392-.818496-.847728-1.549296-1.432368-1.783152-.43848-.233856-1.081584.029232-1.403136.116928-.029232 0-.087696.029232-.14616.029232.058464-1.929312.116928-3.390912.204624-3.975552.087696-.643104.613872-1.783152-.058464-2.601648-.43848-.467712-1.75392-1.256976-3.157056-1.256976-.760032 0-.964656.613872-.760032 1.256976.29232.906192.409248 1.90008.409248 2.9232v4.443264l-.43848.087696c-.964656.204624-1.578528.233856-2.33856.233856-.43848 0-.789264.175392-.555408.555408.43848 1.02312 1.198512 1.695456 1.666224 1.958544.380016.175392.993888.116928 1.31544.029232-.701568 3.36168-2.513952 7.483392-4.004784 9.64656Zm8.857296.526176c-.116928.847728.58464 2.513952 1.432368 3.244752.29232.233856.847728.029232 1.198512-.204624.993888-.613872 4.852512-1.636992 7.044912-2.075472.204624.43848.380016.906192.526176 1.286208.321552.818496 1.140048.87696 1.60776.643104 1.636992-.964656 1.578528-2.133936.643104-3.595536-.906192-1.578528-2.660112-2.893968-3.858624-3.157056-.672336-.116928-.847728.116928-.555408.818496.204624.496944.43848 1.081584.701568 1.666224-1.344672.204624-3.157056.43848-4.560192.643104 1.344672-1.403136 3.040128-3.36168 3.50784-4.23864.29232-.555408.935424-1.403136.701568-1.929312-.350784-.789264-1.081584-1.812384-2.660112-2.33856-.526176-.204624-.964656.087696-.964656.409248 0 .526176-.14616 1.02312-.496944 2.397024-.321552 1.110816-2.075472 4.121712-3.21552 5.26176-.350784.321552-.964656.613872-1.052352 1.16928Zm.380016-8.389584c-.409248.555408.087696.964656.58464.643104.935424-.526176 1.841616-1.02312 2.806272-2.33856.555408-.701568 1.286208-1.520064 1.724688-2.33856.263088-.526176.496944-.906192.029232-1.578528-.29232-.467712-1.110816-1.432368-2.163168-1.783152-.555408-.14616-.789264.14616-.789264.7308 0 2.689344-.789264 4.852512-2.1924 6.664896Zm4.560192-10.348128c.555408 2.250864 2.543184 8.272656 4.034016 10.874304.43848.818496.789264 1.256976 1.695456 1.286208 1.081584.029232 2.572416-.350784 3.50784-.7308.409248-.204624.789264-.555408.058464-.964656-1.02312-.643104-2.33856-1.987776-3.06936-2.893968-1.227744-1.578528-2.806272-4.735584-3.741696-7.60032-.467712-1.520064-.935424-1.75392-1.75392-1.636992-.555408.087696-1.052352.496944-.7308 1.666224Z" data-gra="path-name-1"/>
    </g>
  </g>
  <mask id="a">
    <g fill="#fff" class="iconsvg-imagesvg icon_container">
      <path stroke-width="2" d="M0 0h161.20062275v161.20062275H0z" class="image-rect"/>
      <svg width="161.20062275" height="161.20062275" class="image-svg-svg bn" style="overflow:visible" viewBox="0 0 60 66.70372429">
        <g mask="url(#b)">
          <svg xmlns="http://www.w3.org/2000/svg" xmlns:xlink="http://www.w3.org/1999/xlink" xml:space="preserve" width="60" height="66.70372429" filter="url(#colorsb3093389353)" viewBox="9.5 5 81 90.05">
            <path d="M90.5 68.6V31.4c0-2.8-1.5-5.4-4-6.8L54 6c-1.2-.7-2.6-1-4-1s-2.7.3-4 1L13.5 24.6c-2.4 1.4-4 4-4 6.8v37.2c0 2.8 1.5 5.4 4 6.8L46 94c2.4 1.4 5.5 1.4 7.9 0l32.6-18.6c2.5-1.4 4-4 4-6.8z"/>
          </svg>
          <svg xmlns="http://www.w3.org/2000/svg" xmlns:xlink="http://www.w3.org/1999/xlink" xml:space="preserve" width="53" height="58.92162" x="3.5" y="3.89105215" viewBox="9.5 5 81 90.05000305">
            <path d="M90.5 68.6V31.4c0-2.8-1.5-5.4-4-6.8L54 6c-1.2-.7-2.6-1-4-1s-2.7.3-4 1L13.5 24.6c-2.4 1.4-4 4-4 6.8v37.2c0 2.8 1.5 5.4 4 6.8L46 94c2.4 1.4 5.5 1.4 7.9 0l32.6-18.6c2.5-1.4 4-4 4-6.8zm-7.2-4.2c0 2.8-1.5 5.5-4 6.9L54 85.7c-1.2.7-2.6 1.1-4 1.1s-2.8-.4-4-1.1L20.7 71.3c-2.5-1.4-4-4.1-4-6.9V35.6c0-2.8 1.5-5.5 4-6.9L46 14.3c2.5-1.4 5.6-1.4 8.1 0l25.2 14.4c2.5 1.4 4 4.1 4 6.9v28.8z"/>
          </svg>
        </g>
      </svg>
    </g>
    <g stroke="#000" stroke-linejoin="round" stroke-width="6" class="tp-name" data-gra="path-name">
      <path d="M52.06153097 74.54597504c2.16-.99 4.35-2.25 6.24-4.68l.03 6.09c0 .51-.18.93-.39 1.53-.15.6 0 1.02.15 1.2.27.36 1.23 1.98 2.55 1.95.9-.03 1.35-.96 1.26-2.1-.06-.57-.09-1.74-.12-3.3 1.65-.63 4.83-2.55 6.9-5.64-.03 3.03-.09 5.79-.21 7.47-.12 2.04 1.02 4.17 1.77 4.5.87.36 2.16-1.8 1.98-4.5-.09-1.14-.12-4.32-.09-7.89 1.02 1.83 2.1 3.36 3.09 4.68.6.93 1.38 1.11 2.52.96.63-.12 1.89-.33 3.33-.81.51-.12.63-.3.15-.57-.75-.36-2.61-1.68-3.81-2.91-1.56-1.47-3.27-3.57-4.92-5.94-.12-.15-.21-.27-.3-.39v-.15c1.62-.18 3.27-.36 4.47-.39 1.11-.03 1.59-.3 1.41-.87-.24-.78-1.02-1.59-1.68-1.92-.45-.33-1.08-.33-1.5-.21-.84.24-1.71.45-2.64.66.09-2.94.18-5.31.27-6 .09-1.08 0-1.47-.48-1.8-.6-.51-1.26-.78-2.91-.99-.87-.06-1.17.27-.93.99.33.96.39 1.68.39 2.64.06 1.59.09 3.6.09 5.79-1.26.21-2.46.33-3.48.42-.81.06-.06 1.26.48 2.04.42.63.78.63 2.1.33l-.09.33c-.51 1.65-3.09 5.94-5.91 9 0-2.16 0-4.77.03-7.32.6 1.08 1.11 2.28 1.8 2.79.87.57 2.07-.75 2.28-1.89.06-.78-.9-1.35-1.68-1.74-.78-.42-1.65-.72-2.4-.9.03-.33.03-.69.03-1.02.75-.12 1.32-.18 2.22-.21.36 0 .93-.24.72-.75-.33-.75-.57-1.29-1.08-1.86-.3-.36-1.29.03-1.62.15-.03 0-.12.03-.18.06.06-1.98.12-3.48.21-4.05.12-.66.66-1.77-.09-2.55-.42-.51-1.86-1.26-3.36-1.26-.87 0-1.11.57-.87 1.26.33.87.45 1.83.45 2.88l.03 4.44-1.47.27c-.99.18-1.92.27-2.7.27-.45 0-.63.18-.45.6.51 1.02 1.29 1.86 1.8 2.16.27.12.93 0 1.2-.18.51-.24.96-.42 1.44-.54-1.71 4.05-4.17 7.32-6.27 9.15-.54.48-.21.9.24.72Zm35.43-4.71c1.14-.18 2.46-.66 3.72-1.32l1.77.81c-2.4 1.41-5.4 2.82-7.68 3.42-1.05.27-.66.75.15.69 2.82-.18 5.25-.72 7.38-1.47 0 .3-.03.6-.09.93-1.92.3-3.78.51-4.65.45-1.05-.06.72 2.7 1.92 2.34.39-.12 1.14-.27 2.01-.42-.93 1.89-2.82 3.84-5.58 5.43-.57.3-.18.66.78.51 4.65-.84 6.87-3.24 8.28-6.03l.21-.54c.75-.12 1.44-.21 1.89-.3.63-.06.69 0 .63.33-.36 1.35-.57 2.13-.81 2.79-.27.33-.42.39-.81.39-.42 0-.96-.03-1.56-.12-.33-.06-.63.21-.24.57.99.87 1.8 1.62 2.34 2.43.48.54.84.87 1.74.27 1.29-.9 1.35-1.47 1.62-2.25.33-1.08.51-2.82 1.35-4.83.12-.39-.9-1.23-1.8-1.77 1.41.51 2.64.93 3.36 1.11.99.24 1.41.3 2.43.06 1.2-.27 2.7-1.29 3.69-2.07.27-.27.12-.51-.93-.6-1.26-.12-3.9-.48-5.34-.72-1.65-.27-3.3-.6-4.86-.96 1.14-.87 2.07-1.77 2.79-2.61.63-.69-2.22-2.43-3.06-2.13-.6.27-1.65.45-2.7.54-.57-.87-2.31-2.07-2.37-1.59-.3 1.38-3.45 4.74-5.94 6.15-.3.24-.09.63.36.51Zm-3.36-7.38c.27.69.93 1.56 1.8 1.89.66.48 1.29-.42 1.65-1.02.54-.84.96-1.92 1.35-3.24.03-.09.06-.18.06-.24.24.03.42 0 .63-.03 1.32-.12 2.73-.3 4.17-.51 0 .81-.06 1.56-.15 2.16-.15 1.35.69 2.13 1.74 2.61.84.51 1.53-.39 1.53-2.43 0-.9 0-1.8.03-2.73l2.1-.27c1.71-.27 3.03-.42 3.72-.48.45-.06.48-.15.39.21-.06.18-.72 2.31-.81 2.55-.15.51-.06.93.51.57 1.2-.81 3.51-1.68 4.38-1.92.9-.3 1.17-.57.78-1.53-.36-.93-1.8-2.34-2.76-2.76-.72-.27-1.2.12-1.65.27-.87.21-3.51.6-6.63 1.02v-.15c0-.24.09-.51.09-.78 1.92-.21 3.87-.36 5.31-.39 1.38-.03-.36-3.15-1.5-2.88-3.48.75-8.49 1.47-11.7 1.53-1.08.03.93 2.97 2.13 2.61.51-.15 1.38-.3 2.4-.45.03.3.06.6.06.93-1.95.24-3.93.45-5.64.63l-.54-.36c-.66-.51-.99-.3-1.11.39-.18 1.35-.99 2.7-1.83 3.33-.57.51-.75.84-.51 1.47Zm4.5.72c.9.69 1.47 1.29 2.04 1.77.42.39.75.6 1.05.3 1.5-1.56.6-3.39-3.09-2.7-.63.09-.24.48 0 .63Zm.96-2.28c.84.6 1.41 1.14 1.86 1.44.42.36.72.57.93.27 1.29-1.44.03-2.97-2.79-2.19-.51.15-.15.39 0 .48Zm3.39 6.63c.39-.24.72-.51 1.05-.75 1.02-.09 1.74-.18 1.98-.21.57-.03.63.06.42.3-.36.36-.9.78-1.53 1.23Zm1.56 3.72c.48-.21.96-.45 1.41-.69.96.39 1.95.78 2.88 1.14-.3.12-1.38.36-2.79.63-.36-.36-.9-.78-1.5-1.08Zm3.06-8.88c.96.84 1.56 1.41 2.16 1.8.42.42.75.63 1.08.33 1.53-1.56.12-3.36-3.24-2.76-.6.06-.18.42 0 .63Zm.39-2.52c-.45.12-.12.48.09.57.84.42 1.98 1.05 2.52 1.35.39.24.6.27.87-.06 1.14-1.86-.72-2.67-3.48-1.86Z"/>
      <path stroke-width="5.8464" d="M61.62700068 112.27191406c.760032.058464 1.344672-.496944 1.90008-1.16928.701568-.847728.701568-1.695456.701568-2.660112 0-1.783152-.29232-5.729472 0-8.097264.029232-.496944.613872-.935424.29232-1.432368-.380016-.643104-.906192-.906192-1.666224-1.344672-.380016-.233856-.672336-.175392-.87696.029232-.29232.204624-.467712.29232-1.110816.496944-.643104.14616-2.513952.496944-3.917088.58464-.380016-.175392-.87696-.321552-1.60776-.380016-.380016-.029232-.380016.380016-.14616.701568.380016 1.110816.175392 9.35424 0 10.552752-.204624.935424 1.02312 2.017008 1.695456 2.017008.818496-.029232 1.110816-.58464 1.081584-2.104704v-2.806272c.58464-.058464 1.841616-.14616 2.104704-.14616.993888 0 1.052352-.526176.818496-.906192-.204624-.467712-.496944-.847728-.993888-1.052352-.233856-.087696-1.110816.087696-1.373904.14616-.175392.058464-.350784.087696-.555408.116928 0-.409248.029232-.818496.029232-1.198512.613872-.058464 1.724688-.14616 2.017008-.14616.935424 0 1.02312-.526176.818496-.906192-.204624-.467712-.409248-.818496-.87696-1.02312-.233856-.116928-1.110816.058464-1.520064.116928-.14616.029232-.29232.058464-.409248.058464 0-.58464.029232-.964656.029232-1.02312 0-.058464.029232-.14616.058464-.233856.847728-.14616 1.958544-.29232 3.040128-.409248.029232 2.133936.058464 5.787936.058464 7.395696 0 1.140048 0 1.4616-.380016 1.520064-.526176.058464-.935424.087696-1.578528.087696-.467712 0-.643104.29232-.321552.43848 1.490832.701568 1.549296 1.60776 1.987776 2.163168.204624.263088.350784.58464.701568.613872Zm-9.821952-15.083712c.58464.789264.993888 1.31544 1.929312 1.081584 2.513952-.526176 8.506512-1.373904 10.903536-1.31544.233856 0 .58464 0 .613872-.526176.058464-.380016-.14616-.760032-.526176-1.16928 1.60776-1.140048 2.864736-2.426256 3.858624-3.654.613872-.087696 2.017008-.526176 2.397024-.7308-.350784.58464-1.432368 2.309328-2.163168 3.36168-1.16928.233856-2.33856.467712-3.06936.555408-.263088.058464-.496944.233856-.380016.467712.29232.613872.380016.789264.613872.993888.321552.233856.613872.350784.993888.350784.116928 0 .613872-.116928 1.286208-.29232.058464.43848.087696.993888.14616 1.636992-1.140048.14616-2.280096.29232-3.332448.350784-.409248.058464-.643104.087696-.526176.58464.116928.526176.29232.906192.906192 1.286208.350784.233856.87696.350784 1.31544.29232.496944-.058464 1.110816-.14616 1.75392-.263088.029232.643104.058464 1.286208.058464 1.958544-1.16928.14616-2.33856.233856-3.010896.29232-.526176.029232-.643104.350784-.526176.58464.350784.672336 1.256976 1.520064 1.870848 1.432368.233856-.058464.906192-.14616 1.724688-.263088 0 1.724688-.058464 3.186288-.175392 3.770928-.204624.847728-.555408.964656-.818496 1.02312-.555408.087696-.964656.029232-1.636992.029232-.233856 0-.350784.29232-.029232.467712.964656.613872 1.432368 1.286208 2.017008 2.48472.526176 1.081584 1.4616.993888 1.929312.555408 1.695456-1.4616 1.4616-2.63088 1.520064-4.267872.029232-.672336 0-2.48472-.029232-4.414032.43848-.058464.818496-.087696 1.081584-.116928.350784.29232.789264.526176 1.110816.613872 1.16928.29232 1.75392-1.520064 1.929312-3.040128.029232-.467712.058464-1.140048.116928-1.841616.906192-.029232 1.724688 0 2.309328.116928.789264.14616 1.286208-.555408 1.198512-1.02312-.116928-.672336-.467712-1.198512-1.227744-1.666224-.29232-.204624-.818496-.263088-1.373904-.204624l-.672336.087696c.029232-.467712.087696-.847728.14616-1.140048.087696-.496944.467712-.847728.263088-1.110816-.496944-.643104-1.520064-1.344672-2.280096-1.60776-.467712-.204624-1.198512.409248-1.783152.526176-.350784.087696-.847728.204624-1.403136.321552 1.549296-1.16928 3.975552-3.332448 3.858624-3.94632-.116928-.43848-.847728-.847728-1.549296-1.4616-.380016-.350784-.643104-.467712-1.344672 0-.380016.233856-.818496.526176-1.4616.789264.409248-.643104.701568-1.16928.935424-1.549296.380016-.643104.467712-1.052352.175392-1.432368-.643104-.7308-1.256976-1.140048-2.221632-1.520064-.43848-.14616-.789264.087696-.760032.672336.058464 1.403136-1.256976 5.144832-4.267872 9.441936-.643104-.467712-1.432368-.175392-2.250864 0l-.672336.14616c.029232-.380016.058464-.7308.058464-1.081584.993888-.116928 1.870848-.233856 2.250864-.233856.643104 0 1.052352-.087696.993888-.643104 0-.29232-.409248-1.110816-.993888-1.432368-.409248-.175392-.7308-.175392-1.110816-.116928-.14616.029232-.496944.087696-1.02312.204624.029232-.350784.029232-.701568.058464-1.052352 1.373904-.204624 2.63088-.350784 3.273984-.350784.43848 0 .701568-.409248.526176-.818496-.116928-.380016-.29232-.760032-.613872-1.140048-.116928-.175392-.7308-.613872-1.373904-.409248-.350784.087696-.993888.204624-1.75392.380016.029232-.467712.029232-1.052352.058464-1.520064.029232-.643104 0-.964656-.321552-1.198512-.409248-.467712-1.724688-.87696-2.572416-.789264-.409248.029232-.58464.526176-.526176.7308.116928.643104.175392 1.636992.233856 2.309328 0 .321552 0 .701568.029232 1.140048-1.344672.233856-2.718576.467712-3.858624.555408-.409248.058464-.496944.43848-.321552.7308.321552.613872.964656 1.432368 1.636992 1.31544.43848-.116928 1.403136-.29232 2.572416-.496944v1.16928l-2.806272.555408c-.43848.058464-.613872.380016-.43848.613872l.380016.58464c.321552.409248.526176.613872.993888.555408.29232 0 1.02312-.116928 1.90008-.233856v1.140048c-2.163168.350784-4.67712.701568-6.167952.87696-1.02312.116928-.935424.467712-.555408.935424Zm19.410048-1.490832c.350784-.087696.672336-.116928.935424-.14616.526176-.029232.789264 0 .789264.321552v1.344672l-1.695456.29232c-.087696-.935424.14616-1.403136-.029232-1.812384Zm.087696 4.121712 1.520064-.175392c-.058464.613872-.14616 1.198512-.233856 1.75392 0 .058464-.029232.087696-.029232.14616-.29232-.029232-.7308.058464-1.198512.14616 0-.643104-.029232-1.286208-.058464-1.870848Zm10.640448 9.79272c.467712.496944 1.490832.58464 2.017008-.321552.789264-1.31544 2.513952-6.781824 3.624768-12.452832.233856-1.110816-.087696-1.490832-.496944-.409248-1.286208 2.981664-2.660112 4.940208-4.560192 7.571088-.555408.701568-1.198512 1.052352-1.636992 1.052352-.789264 0-1.052352.175392-.906192.789264.321552 1.256976 1.227744 2.952432 1.958544 3.770928Zm-.058464-20.31624c.935424.935424 1.90008 2.601648 2.689344 4.150944.409248.789264 1.052352.935424 1.90008.58464.43848-.204624 1.695456-1.841616.964656-3.273984-.760032-1.520064-3.157056-2.48472-5.26176-2.309328-.87696.087696-.760032.350784-.29232.847728Zm4.267872 16.574544c-.43848.613872.233856.818496.613872.58464 1.578528-.964656 2.747808-2.250864 3.770928-3.917088l.029232 5.027904c0 .555408-.14616.964656-.29232 1.549296-.175392.613872 0 1.052352.087696 1.227744.263088.380016 1.110816 1.987776 2.367792 1.958544.789264-.029232 1.256976-.935424 1.140048-2.104704-.116928-1.140048-.14616-4.998672-.116928-9.149616.14616.350784.29232.701568.43848.964656.29232.526176 1.052352.847728 1.724688.380016.760032-.58464 1.227744-1.90008-.058464-2.893968-.555408-.409248-1.344672-.789264-2.104704-1.110816.029232-1.081584.029232-2.163168.058464-3.186288.87696-.175392 1.636992-.29232 2.133936-.321552.321552-.029232 1.052352-.116928.906192-.672336-.175392-.818496-.847728-1.549296-1.432368-1.783152-.43848-.233856-1.081584.029232-1.403136.116928-.029232 0-.087696.029232-.14616.029232.058464-1.929312.116928-3.390912.204624-3.975552.087696-.643104.613872-1.783152-.058464-2.601648-.43848-.467712-1.75392-1.256976-3.157056-1.256976-.760032 0-.964656.613872-.760032 1.256976.29232.906192.409248 1.90008.409248 2.9232v4.443264l-.43848.087696c-.964656.204624-1.578528.233856-2.33856.233856-.43848 0-.789264.175392-.555408.555408.43848 1.02312 1.198512 1.695456 1.666224 1.958544.380016.175392.993888.116928 1.31544.029232-.701568 3.36168-2.513952 7.483392-4.004784 9.64656Zm8.857296.526176c-.116928.847728.58464 2.513952 1.432368 3.244752.29232.233856.847728.029232 1.198512-.204624.993888-.613872 4.852512-1.636992 7.044912-2.075472.204624.43848.380016.906192.526176 1.286208.321552.818496 1.140048.87696 1.60776.643104 1.636992-.964656 1.578528-2.133936.643104-3.595536-.906192-1.578528-2.660112-2.893968-3.858624-3.157056-.672336-.116928-.847728.116928-.555408.818496.204624.496944.43848 1.081584.701568 1.666224-1.344672.204624-3.157056.43848-4.560192.643104 1.344672-1.403136 3.040128-3.36168 3.50784-4.23864.29232-.555408.935424-1.403136.701568-1.929312-.350784-.789264-1.081584-1.812384-2.660112-2.33856-.526176-.204624-.964656.087696-.964656.409248 0 .526176-.14616 1.02312-.496944 2.397024-.321552 1.110816-2.075472 4.121712-3.21552 5.26176-.350784.321552-.964656.613872-1.052352 1.16928Zm.380016-8.389584c-.409248.555408.087696.964656.58464.643104.935424-.526176 1.841616-1.02312 2.806272-2.33856.555408-.701568 1.286208-1.520064 1.724688-2.33856.263088-.526176.496944-.906192.029232-1.578528-.29232-.467712-1.110816-1.432368-2.163168-1.783152-.555408-.14616-.789264.14616-.789264.7308 0 2.689344-.789264 4.852512-2.1924 6.664896Zm4.560192-10.348128c.555408 2.250864 2.543184 8.272656 4.034016 10.874304.43848.818496.789264 1.256976 1.695456 1.286208 1.081584.029232 2.572416-.350784 3.50784-.7308.409248-.204624.789264-.555408.058464-.964656-1.02312-.643104-2.33856-1.987776-3.06936-2.893968-1.227744-1.578528-2.806272-4.735584-3.741696-7.60032-.467712-1.520064-.935424-1.75392-1.75392-1.636992-.555408.087696-1.052352.496944-.7308 1.666224Z" data-gra="path-name-1"/>
    </g>
  </mask>
</svg>
