<svg xmlns="http://www.w3.org/2000/svg" color-interpolation-filters="sRGB" style="margin:auto" version="1.0" viewBox="0 0 340 250">
  <g fill="#ec7210">
    <g mask="url(#a)" transform="translate(120.25 79.7737503)">
      <rect width="92" height="68" x=".5" y=".5" fill="#FC6" data-gra="graph-name" rx="11" ry="11"/>
      <rect width="92" height="68" x="1" y="1" fill="#FC6" data-gra="graph-name" rx="11" ry="11"/>
      <rect width="92" height="68" x="1.5" y="1.5" fill="#FC6" data-gra="graph-name" rx="11" ry="11"/>
      <rect width="92" height="68" x="2" y="2" fill="#FC6" data-gra="graph-name" rx="11" ry="11"/>
      <rect width="92" height="68" x="2.5" y="2.5" fill="#FC6" data-gra="graph-name" rx="11" ry="11"/>
      <rect width="92" height="68" x="3" y="3" fill="#FC6" data-gra="graph-name" rx="11" ry="11"/>
      <rect width="92" height="68" x="3.5" y="3.5" fill="#FC6" data-gra="graph-name" rx="11" ry="11"/>
      <rect width="92" height="68" x="4" y="4" fill="#FC6" data-gra="graph-name" rx="11" ry="11"/>
      <rect width="92" height="68" x="4.5" y="4.5" fill="#FC6" data-gra="graph-name" rx="11" ry="11"/>
      <rect width="92" height="68" x="5" y="5" fill="#FC6" data-gra="graph-name" rx="11" ry="11"/>
      <rect width="92" height="68" x="5.5" y="5.5" fill="#FC6" data-gra="graph-name" rx="11" ry="11"/>
      <rect width="92" height="68" x="6" y="6" fill="#FC6" data-gra="graph-name" rx="11" ry="11"/>
      <rect width="92" height="68" x="6.5" y="6.5" fill="#FC6" data-gra="graph-name" rx="11" ry="11"/>
      <rect width="92" height="68" x="7" y="7" fill="#FC6" data-gra="graph-name" rx="11" ry="11"/>
      <rect width="92" height="68" x="7.5" y="7.5" fill="#FC6" data-gra="graph-name" rx="11" ry="11"/>
      <rect width="92" height="68" data-gra="graph-name" rx="11" ry="11"/>
      <path d="M10.00000002 47.31999954v-4.57h5.84v3.3q0 7.62 7.1 7.62 7.37 0 7.37-8.13v-34.27h6.35v34.02q-.26 12.95-13.46 13.2-12.44-.25-13.2-11.17Zm70.33-22.6h-5.84q-.51-8.88-11.68-9.39-10.41.25-10.41 8.12 0 5.08 5.58 5.84l13.21 3.05q10.41 2.54 10.41 12.69-.26 12.95-18.28 13.46-9.91 0-13.97-4.06-5.08-3.81-4.82-11.68h6.09q.25 10.66 12.7 10.92 12.18-.26 12.44-7.87 1.01-6.35-10.16-8.38l-9.65-2.03q-9.9-2.8-9.9-11.18.76-13.71 16.25-14.21 17.52 0 18.03 14.72Z" data-gra="path-name"/>
    </g>
    <path d="M139.27749962 168.1662503v-.85h1.08v.61q0 1.41 1.31 1.41 1.36 0 1.36-1.5v-6.33h1.17v6.28q-.05 2.39-2.48 2.44-2.3-.05-2.44-2.06Zm6.89-6.66h1.17v8.58h-1.17v-8.58Zm4.55 0 4.31 6.94v-6.94h1.12v8.58h-1.31l-4.36-6.94h-.05v6.94h-1.12v-8.58h1.41Zm13.64 4.97h-2.63v-.98h3.75v4.59h-.75l-.28-1.08q-.98 1.17-2.81 1.22-1.74 0-2.67-.89-1.41-1.31-1.36-3.61.32-4.27 4.07-4.45 3.19.18 3.66 2.81h-1.12q-.47-1.78-2.58-1.83-2.67.19-2.82 3.52 0 3.56 2.86 3.56 1.04 0 1.79-.56.93-.75.89-2.3Zm9.18-2.48h-1.07q-.1-1.64-2.16-1.74-1.92.05-1.92 1.5 0 .94 1.03 1.08l2.44.56q1.92.47 1.92 2.35-.05 2.39-3.38 2.48-1.83 0-2.58-.75-.93-.7-.89-2.16h1.13q.05 1.97 2.34 2.02 2.25-.05 2.3-1.45.19-1.18-1.88-1.55l-1.78-.38q-1.82-.51-1.82-2.06.14-2.53 3-2.62 3.23 0 3.32 2.72Zm8.49 1.82q-.19-3.37-3-3.56-2.86.14-3 3.56.14 3.33 3 3.47 2.81-.18 3-3.47Zm1.17 0q-.28 4.27-4.17 4.41-3.94-.14-4.22-4.41.23-4.45 4.22-4.54 3.89.14 4.17 4.54Zm2.77-4.31 4.31 6.94v-6.94h1.12v8.58h-1.31l-4.36-6.94h-.05v6.94h-1.12v-8.58h1.41Zm13.64 4.97h-2.63v-.98h3.75v4.59h-.75l-.28-1.08q-.98 1.17-2.81 1.22-1.74 0-2.67-.89-1.41-1.31-1.36-3.61.32-4.27 4.07-4.45 3.19.18 3.66 2.81h-1.12q-.47-1.78-2.58-1.83-2.67.19-2.82 3.52 0 3.56 2.86 3.56 1.04 0 1.79-.56.93-.75.89-2.3Z" data-gra="path-slogan"/>
  </g>
  <mask id="a">
    <g fill="#fff">
      <rect width="92" height="68" x=".5" y=".5" data-gra="graph-name" rx="11" ry="11"/>
      <rect width="92" height="68" x="1" y="1" data-gra="graph-name" rx="11" ry="11"/>
      <rect width="92" height="68" x="1.5" y="1.5" data-gra="graph-name" rx="11" ry="11"/>
      <rect width="92" height="68" x="2" y="2" data-gra="graph-name" rx="11" ry="11"/>
      <rect width="92" height="68" x="2.5" y="2.5" data-gra="graph-name" rx="11" ry="11"/>
      <rect width="92" height="68" x="3" y="3" data-gra="graph-name" rx="11" ry="11"/>
      <rect width="92" height="68" x="3.5" y="3.5" data-gra="graph-name" rx="11" ry="11"/>
      <rect width="92" height="68" x="4" y="4" data-gra="graph-name" rx="11" ry="11"/>
      <rect width="92" height="68" x="4.5" y="4.5" data-gra="graph-name" rx="11" ry="11"/>
      <rect width="92" height="68" x="5" y="5" data-gra="graph-name" rx="11" ry="11"/>
      <rect width="92" height="68" x="5.5" y="5.5" data-gra="graph-name" rx="11" ry="11"/>
      <rect width="92" height="68" x="6" y="6" data-gra="graph-name" rx="11" ry="11"/>
      <rect width="92" height="68" x="6.5" y="6.5" data-gra="graph-name" rx="11" ry="11"/>
      <rect width="92" height="68" x="7" y="7" data-gra="graph-name" rx="11" ry="11"/>
      <rect width="92" height="68" x="7.5" y="7.5" data-gra="graph-name" rx="11" ry="11"/>
      <rect width="92" height="68" x="2" y="2" fill="#000" data-gra="graph-name" rx="11" ry="11"/>
      <rect width="92" height="68" data-gra="graph-name" rx="11" ry="11"/>
    </g>
    <path d="M10.00000002 47.31999954v-4.57h5.84v3.3q0 7.62 7.1 7.62 7.37 0 7.37-8.13v-34.27h6.35v34.02q-.26 12.95-13.46 13.2-12.44-.25-13.2-11.17Zm70.33-22.6h-5.84q-.51-8.88-11.68-9.39-10.41.25-10.41 8.12 0 5.08 5.58 5.84l13.21 3.05q10.41 2.54 10.41 12.69-.26 12.95-18.28 13.46-9.91 0-13.97-4.06-5.08-3.81-4.82-11.68h6.09q.25 10.66 12.7 10.92 12.18-.26 12.44-7.87 1.01-6.35-10.16-8.38l-9.65-2.03q-9.9-2.8-9.9-11.18.76-13.71 16.25-14.21 17.52 0 18.03 14.72Z" data-gra="path-name"/>
  </mask>
</svg>
