<svg xmlns="http://www.w3.org/2000/svg" color-interpolation-filters="sRGB" style="margin:auto" version="1.0" viewBox="0 0 340 250">
  <g class="iconmbgsvg">
    <g class="iconsvg-imagesvg icon_container" mask="url(#a)" transform="translate(89.39968872 44.39968872)">
      <path fill="none" d="M0 0h161.20062275v161.20062275H0z" class="image-rect"/>
      <svg width="161.20062275" height="161.20062275" class="image-svg-svg bn" style="overflow:visible" viewBox="0 0 60 66.70372429">
        <g mask="url(#b)">
          <svg xmlns="http://www.w3.org/2000/svg" xmlns:xlink="http://www.w3.org/1999/xlink" xml:space="preserve" width="60" height="66.70372429" filter="url(#c)" style="overflow:visible" viewBox="9.5 5 81 90.05">
            <path d="M90.5 68.6V31.4c0-2.8-1.5-5.4-4-6.8L54 6c-1.2-.7-2.6-1-4-1s-2.7.3-4 1L13.5 24.6c-2.4 1.4-4 4-4 6.8v37.2c0 2.8 1.5 5.4 4 6.8L46 94c2.4 1.4 5.5 1.4 7.9 0l32.6-18.6c2.5-1.4 4-4 4-6.8z"/>
            <defs>
              <filter id="c">
                <feColorMatrix values="0 0 0 0 0 0 0 0 0 0 0 0 0 0 0 0 0 0 1 0"/>
              </filter>
            </defs>
          </svg>
          <svg xmlns="http://www.w3.org/2000/svg" xmlns:xlink="http://www.w3.org/1999/xlink" xml:space="preserve" width="53" height="58.92162" x="3.5" y="3.89105215" fill="#426755" class="image-svg-icon" style="enable-background:new 0 0 100 100" viewBox="9.5 5 81 90.05000305">
            <path d="M90.5 68.6V31.4c0-2.8-1.5-5.4-4-6.8L54 6c-1.2-.7-2.6-1-4-1s-2.7.3-4 1L13.5 24.6c-2.4 1.4-4 4-4 6.8v37.2c0 2.8 1.5 5.4 4 6.8L46 94c2.4 1.4 5.5 1.4 7.9 0l32.6-18.6c2.5-1.4 4-4 4-6.8zm-7.2-4.2c0 2.8-1.5 5.5-4 6.9L54 85.7c-1.2.7-2.6 1.1-4 1.1s-2.8-.4-4-1.1L20.7 71.3c-2.5-1.4-4-4.1-4-6.9V35.6c0-2.8 1.5-5.5 4-6.9L46 14.3c2.5-1.4 5.6-1.4 8.1 0l25.2 14.4c2.5 1.4 4 4.1 4 6.9v28.8z"/>
          </svg>
        </g>
        <mask id="b">
          <svg xmlns="http://www.w3.org/2000/svg" xmlns:xlink="http://www.w3.org/1999/xlink" xml:space="preserve" width="60" height="66.70372429" fill="#fff" style="overflow:visible" viewBox="9.5 5 81 90.05">
            <path d="M90.5 68.6V31.4c0-2.8-1.5-5.4-4-6.8L54 6c-1.2-.7-2.6-1-4-1s-2.7.3-4 1L13.5 24.6c-2.4 1.4-4 4-4 6.8v37.2c0 2.8 1.5 5.4 4 6.8L46 94c2.4 1.4 5.5 1.4 7.9 0l32.6-18.6c2.5-1.4 4-4 4-6.8z"/>
          </svg>
          <svg xmlns="http://www.w3.org/2000/svg" xmlns:xlink="http://www.w3.org/1999/xlink" xml:space="preserve" width="53" height="58.92162" x="3.5" y="3.89105215" class="image-svg-icon" style="enable-background:new 0 0 100 100" viewBox="9.5 5 81 90.05000305">
            <path d="M90.5 68.6V31.4c0-2.8-1.5-5.4-4-6.8L54 6c-1.2-.7-2.6-1-4-1s-2.7.3-4 1L13.5 24.6c-2.4 1.4-4 4-4 6.8v37.2c0 2.8 1.5 5.4 4 6.8L46 94c2.4 1.4 5.5 1.4 7.9 0l32.6-18.6c2.5-1.4 4-4 4-6.8zm-7.2-4.2c0 2.8-1.5 5.5-4 6.9L54 85.7c-1.2.7-2.6 1.1-4 1.1s-2.8-.4-4-1.1L20.7 71.3c-2.5-1.4-4-4.1-4-6.9V35.6c0-2.8 1.5-5.5 4-6.9L46 14.3c2.5-1.4 5.6-1.4 8.1 0l25.2 14.4c2.5 1.4 4 4.1 4 6.9v28.8z"/>
          </svg>
        </mask>
      </svg>
    </g>
    <g class="tp-name" data-gra="path-name">
      <path d="M141.244913 118.21986038c2.16-.99 4.35-2.25 6.24-4.68l.03 6.09c0 .51-.18.93-.39 1.53-.15.6 0 1.02.15 1.2.27.36 1.23 1.98 2.55 1.95.9-.03 1.35-.96 1.26-2.1-.06-.57-.09-1.74-.12-3.3 1.65-.63 4.83-2.55 6.9-5.64-.03 3.03-.09 5.79-.21 7.47-.12 2.04 1.02 4.17 1.77 4.5.87.36 2.16-1.8 1.98-4.5-.09-1.14-.12-4.32-.09-7.89 1.02 1.83 2.1 3.36 3.09 4.68.6.93 1.38 1.11 2.52.96.63-.12 1.89-.33 3.33-.81.51-.12.63-.3.15-.57-.75-.36-2.61-1.68-3.81-2.91-1.56-1.47-3.27-3.57-4.92-5.94-.12-.15-.21-.27-.3-.39v-.15c1.62-.18 3.27-.36 4.47-.39 1.11-.03 1.59-.3 1.41-.87-.24-.78-1.02-1.59-1.68-1.92-.45-.33-1.08-.33-1.5-.21-.84.24-1.71.45-2.64.66.09-2.94.18-5.31.27-6 .09-1.08 0-1.47-.48-1.8-.6-.51-1.26-.78-2.91-.99-.87-.06-1.17.27-.93.99.33.96.39 1.68.39 2.64.06 1.59.09 3.6.09 5.79-1.26.21-2.46.33-3.48.42-.81.06-.06 1.26.48 2.04.42.63.78.63 2.1.33l-.09.33c-.51 1.65-3.09 5.94-5.91 9 0-2.16 0-4.77.03-7.32.6 1.08 1.11 2.28 1.8 2.79.87.57 2.07-.75 2.28-1.89.06-.78-.9-1.35-1.68-1.74-.78-.42-1.65-.72-2.4-.9.03-.33.03-.69.03-1.02.75-.12 1.32-.18 2.22-.21.36 0 .93-.24.72-.75-.33-.75-.57-1.29-1.08-1.86-.3-.36-1.29.03-1.62.15-.03 0-.12.03-.18.06.06-1.98.12-3.48.21-4.05.12-.66.66-1.77-.09-2.55-.42-.51-1.86-1.26-3.36-1.26-.87 0-1.11.57-.87 1.26.33.87.45 1.83.45 2.88l.03 4.44-1.47.27c-.99.18-1.92.27-2.7.27-.45 0-.63.18-.45.6.51 1.02 1.29 1.86 1.8 2.16.27.12.93 0 1.2-.18.51-.24.96-.42 1.44-.54-1.71 4.05-4.17 7.32-6.27 9.15-.54.48-.21.9.24.72Zm40.02 6.33c.78.06 1.38-.51 1.95-1.2.72-.87.72-1.74.72-2.73 0-1.83-.3-5.88 0-8.31.03-.51.63-.96.3-1.47-.39-.66-.93-.93-1.71-1.38-.39-.24-.69-.18-.9.03-.3.21-.48.3-1.14.51-.66.15-2.58.51-4.02.6-.39-.18-.9-.33-1.65-.39-.39-.03-.39.39-.15.72.39 1.14.18 9.6 0 10.83-.21.96 1.05 2.07 1.74 2.07.84-.03 1.14-.6 1.11-2.16v-2.88c.6-.06 1.89-.15 2.16-.15 1.02 0 1.08-.54.84-.93-.21-.48-.51-.87-1.02-1.08-.24-.09-1.14.09-1.41.15-.18.06-.36.09-.57.12 0-.42.03-.84.03-1.23.63-.06 1.77-.15 2.07-.15.96 0 1.05-.54.84-.93-.21-.48-.42-.84-.9-1.05-.24-.12-1.14.06-1.56.12-.15.03-.3.06-.42.06 0-.6.03-.99.03-1.05 0-.06.03-.15.06-.24.87-.15 2.01-.3 3.12-.42.03 2.19.06 5.94.06 7.59 0 1.17 0 1.5-.39 1.56-.54.06-.96.09-1.62.09-.48 0-.66.3-.33.45 1.53.72 1.59 1.65 2.04 2.22.21.27.36.6.72.63Zm-10.08-15.48c.6.81 1.02 1.35 1.98 1.11 2.58-.54 8.73-1.41 11.19-1.35.24 0 .6 0 .63-.54.06-.39-.15-.78-.54-1.2 1.65-1.17 2.94-2.49 3.96-3.75.63-.09 2.07-.54 2.46-.75-.36.6-1.47 2.37-2.22 3.45-1.2.24-2.4.48-3.15.57-.27.06-.51.24-.39.48.3.63.39.81.63 1.02.33.24.63.36 1.02.36.12 0 .63-.12 1.32-.3.06.45.09 1.02.15 1.68-1.17.15-2.34.3-3.42.36-.42.06-.66.09-.54.6.12.54.3.93.93 1.32.36.24.9.36 1.35.3.51-.06 1.14-.15 1.8-.27.03.66.06 1.32.06 2.01-1.2.15-2.4.24-3.09.3-.54.03-.66.36-.54.6.36.69 1.29 1.56 1.92 1.47.24-.06.93-.15 1.77-.27 0 1.77-.06 3.27-.18 3.87-.21.87-.57.99-.84 1.05-.57.09-.99.03-1.68.03-.24 0-.36.3-.03.48.99.63 1.47 1.32 2.07 2.55.54 1.11 1.5 1.02 1.98.57 1.74-1.5 1.5-2.7 1.56-4.38.03-.69 0-2.55-.03-4.53.45-.06.84-.09 1.11-.12.36.3.81.54 1.14.63 1.2.3 1.8-1.56 1.98-3.12.03-.48.06-1.17.12-1.89.93-.03 1.77 0 2.37.12.81.15 1.32-.57 1.23-1.05-.12-.69-.48-1.23-1.26-1.71-.3-.21-.84-.27-1.41-.21l-.69.09c.03-.48.09-.87.15-1.17.09-.51.48-.87.27-1.14-.51-.66-1.56-1.38-2.34-1.65-.48-.21-1.23.42-1.83.54-.36.09-.87.21-1.44.33 1.59-1.2 4.08-3.42 3.96-4.05-.12-.45-.87-.87-1.59-1.5-.39-.36-.66-.48-1.38 0-.39.24-.84.54-1.5.81.42-.66.72-1.2.96-1.59.39-.66.48-1.08.18-1.47-.66-.75-1.29-1.17-2.28-1.56-.45-.15-.81.09-.78.69.06 1.44-1.29 5.28-4.38 9.69-.66-.48-1.47-.18-2.31 0l-.69.15c.03-.39.06-.75.06-1.11 1.02-.12 1.92-.24 2.31-.24.66 0 1.08-.09 1.02-.66 0-.3-.42-1.14-1.02-1.47-.42-.18-.75-.18-1.14-.12-.15.03-.51.09-1.05.21.03-.36.03-.72.06-1.08 1.41-.21 2.7-.36 3.36-.36.45 0 .72-.42.54-.84-.12-.39-.3-.78-.63-1.17-.12-.18-.75-.63-1.41-.42-.36.09-1.02.21-1.8.39.03-.48.03-1.08.06-1.56.03-.66 0-.99-.33-1.23-.42-.48-1.77-.9-2.64-.81-.42.03-.6.54-.54.75.12.66.18 1.68.24 2.37 0 .33 0 .72.03 1.17-1.38.24-2.79.48-3.96.57-.42.06-.51.45-.33.75.33.63.99 1.47 1.68 1.35.45-.12 1.44-.3 2.64-.51v1.2l-2.88.57c-.45.06-.63.39-.45.63l.39.6c.33.42.54.63 1.02.57.3 0 1.05-.12 1.95-.24v1.17c-2.22.36-4.8.72-6.33.9-1.05.12-.96.48-.57.96Zm19.92-1.53c.36-.09.69-.12.96-.15.54-.03.81 0 .81.33v1.38l-1.74.3c-.09-.96.15-1.44-.03-1.86Zm.09 4.23 1.56-.18c-.06.63-.15 1.23-.24 1.8 0 .06-.03.09-.03.15-.3-.03-.75.06-1.23.15 0-.66-.03-1.32-.06-1.92Z"/>
      <path d="M144.26102957 146.12223359c1.1639058-.1837746 2.5115862-.6738402 3.7980084-1.3476804l1.8071169.8269857c-2.450328 1.4395677-5.513238 2.8791354-7.8410496 3.4917174-1.0720185.2756619-.6738402.7657275.1531455.7044693 2.8791354-.1837746 5.3600925-.7350984 7.5347586-1.5008259 0 .306291-.0306291.612582-.0918873.9495021-1.9602624.306291-3.8592666.5206947-4.7475105.4594365-1.0720185-.0612582.7350984 2.756619 1.9602624 2.3890698.3981783-.1225164 1.1639058-.2756619 2.0521497-.4288074-.9495021 1.9296333-2.8791354 3.9205248-5.6970126 5.5438671-.5819529.306291-.1837746.6738402.7963566.5206947 4.7475105-.8576148 7.0140639-3.3079428 8.4536316-6.1564491l.2144037-.5513238c.7657275-.1225164 1.4701968-.2144037 1.9296333-.306291.6432111-.0612582.7044693 0 .6432111.3369201-.3675492 1.3783095-.5819529 2.1746661-.8269857 2.8485063-.2756619.3369201-.4288074.3981783-.8269857.3981783-.4288074 0-.9801312-.0306291-1.5927132-.1225164-.3369201-.0612582-.6432111.2144037-.2450328.5819529 1.0107603.8882439 1.837746 1.6539714 2.3890698 2.4809571.4900656.5513238.8576148.8882439 1.7764878.2756619 1.3170513-.918873 1.3783095-1.5008259 1.6539714-2.2971825.3369201-1.1026476.5206947-2.8791354 1.3783095-4.9312851.1225164-.3981783-.918873-1.2557931-1.837746-1.8071169 1.4395677.5206947 2.6953608.9495021 3.4304592 1.1332767 1.0107603.2450328 1.4395677.306291 2.4809571.0612582 1.225164-.2756619 2.756619-1.3170513 3.7673793-2.1134079.2756619-.2756619.1225164-.5206947-.9495021-.612582-1.2864222-.1225164-3.981783-.4900656-5.4519798-.7350984-1.6846005-.2756619-3.369201-.612582-4.9619142-.9801312 1.1639058-.8882439 2.1134079-1.8071169 2.8485063-2.6647317.6432111-.7044693-2.2665534-2.4809571-3.1241682-2.1746661-.612582.2756619-1.6846005.4594365-2.756619.5513238-.5819529-.8882439-2.3584407-2.1134079-2.4196989-1.6233423-.306291 1.4089386-3.5223465 4.8393978-6.0645618 6.2789655-.306291.2450328-.0918873.6432111.3675492.5206947Zm-3.4304592-7.5347586c.2756619.7044693.9495021 1.5927132 1.837746 1.9296333.6738402.4900656 1.3170513-.4288074 1.6846005-1.0413894.5513238-.8576148.9801312-1.9602624 1.3783095-3.3079428.0306291-.0918873.0612582-.1837746.0612582-.2450328.2450328.0306291.4288074 0 .6432111-.0306291 1.3476804-.1225164 2.7872481-.306291 4.2574449-.5206947 0 .8269857-.0612582 1.5927132-.1531455 2.2052952-.1531455 1.3783095.7044693 2.1746661 1.7764878 2.6647317.8576148.5206947 1.5620841-.3981783 1.5620841-2.4809571 0-.918873 0-1.837746.0306291-2.7872481l2.144037-.2756619c1.7458587-.2756619 3.0935391-.4288074 3.7980084-.4900656.4594365-.0612582.4900656-.1531455.3981783.2144037-.0612582.1837746-.7350984 2.3584407-.8269857 2.6034735-.1531455.5206947-.0612582.9495021.5206947.5819529 1.225164-.8269857 3.5836047-1.7152296 4.4718486-1.9602624.918873-.306291 1.1945349-.5819529.7963566-1.5620841-.3675492-.9495021-1.837746-2.3890698-2.8178772-2.8178772-.7350984-.2756619-1.225164.1225164-1.6846005.2756619-.8882439.2144037-3.5836047.612582-6.7690311 1.0413894v-.1531455c0-.2450328.0918873-.5206947.0918873-.7963566 1.9602624-.2144037 3.9511539-.3675492 5.4213507-.3981783 1.4089386-.0306291-.3675492-3.2160555-1.531455-2.9403936-3.5529756.7657275-8.6680353 1.5008259-11.945349 1.5620841-1.1026476.0306291.9495021 3.0322809 2.1746661 2.6647317.5206947-.1531455 1.4089386-.306291 2.450328-.4594365.0306291.306291.0612582.612582.0612582.9495021-1.9908915.2450328-4.0124121.4594365-5.7582708.6432111l-.5513238-.3675492c-.6738402-.5206947-1.0107603-.306291-1.1332767.3981783-.1837746 1.3783095-1.0107603 2.756619-1.8683751 3.3998301-.5819529.5206947-.7657275.8576148-.5206947 1.5008259Zm4.594365.7350984c.918873.7044693 1.5008259 1.3170513 2.0827788 1.8071169.4288074.3981783.7657275.612582 1.0720185.306291 1.531455-1.5927132.612582-3.4610883-3.1547973-2.756619-.6432111.0918873-.2450328.4900656 0 .6432111Zm.9801312-2.3278116c.8576148.612582 1.4395677 1.1639058 1.8990042 1.4701968.4288074.3675492.7350984.5819529.9495021.2756619 1.3170513-1.4701968.0306291-3.0322809-2.8485063-2.2359243-.5206947.1531455-.1531455.3981783 0 .4900656Zm3.4610883 6.7690311c.3981783-.2450328.7350984-.5206947 1.0720185-.7657275 1.0413894-.0918873 1.7764878-.1837746 2.0215206-.2144037.5819529-.0306291.6432111.0612582.4288074.306291-.3675492.3675492-.918873.7963566-1.5620841 1.2557931Zm1.5927132 3.7980084c.4900656-.2144037.9801312-.4594365 1.4395677-.7044693.9801312.3981783 1.9908915.7963566 2.9403936 1.1639058-.306291.1225164-1.4089386.3675492-2.8485063.6432111-.3675492-.3675492-.918873-.7963566-1.531455-1.1026476Zm3.1241682-9.0662136c.9801312.8576148 1.5927132 1.4395677 2.2052952 1.837746.4288074.4288074.7657275.6432111 1.1026476.3369201 1.5620841-1.5927132.1225164-3.4304592-3.3079428-2.8178772-.612582.0612582-.1837746.4288074 0 .6432111Zm.3981783-2.5728444c-.4594365.1225164-.1225164.4900656.0918873.5819529.8576148.4288074 2.0215206 1.0720185 2.5728444 1.3783095.3981783.2450328.612582.2756619.8882439-.0612582 1.1639058-1.8990042-.7350984-2.7259899-3.5529756-1.8990042Zm15.2532918 18.683751c.4900656.5206947 1.5620841.612582 2.1134079-.3369201.8269857-1.3783095 2.6341026-7.1059512 3.7980084-13.0479966.2450328-1.1639058-.0918873-1.5620841-.5206947-.4288074-1.3476804 3.1241682-2.7872481 5.1763179-4.7781396 7.9329369-.5819529.7350984-1.2557931 1.1026476-1.7152296 1.1026476-.8269857 0-1.1026476.1837746-.9495021.8269857.3369201 1.3170513 1.2864222 3.0935391 2.0521497 3.9511539Zm-.0612582-21.2872245c.9801312.9801312 1.9908915 2.7259899 2.8178772 4.3493322.4288074.8269857 1.1026476.9801312 1.9908915.612582.4594365-.2144037 1.7764878-1.9296333 1.0107603-3.4304592-.7963566-1.5927132-3.3079428-2.6034735-5.513238-2.4196989-.918873.0918873-.7963566.3675492-.306291.8882439Zm4.4718486 17.3666997c-.4594365.6432111.2450328.8576148.6432111.612582 1.6539714-1.0107603 2.8791354-2.3584407 3.9511539-4.1042994l.0306291 5.2682052c0 .5819529-.1531455 1.0107603-.306291 1.6233423-.1837746.6432111 0 1.1026476.0918873 1.2864222.2756619.3981783 1.1639058 2.0827788 2.4809571 2.0521497.8269857-.0306291 1.3170513-.9801312 1.1945349-2.2052952-.1225164-1.1945349-.1531455-5.2375761-.1225164-9.5869083.1531455.3675492.306291.7350984.4594365 1.0107603.306291.5513238 1.1026476.8882439 1.8071169.3981783.7963566-.612582 1.2864222-1.9908915-.0612582-3.0322809-.5819529-.4288074-1.4089386-.8269857-2.2052952-1.1639058.0306291-1.1332767.0306291-2.2665534.0612582-3.3385719.918873-.1837746 1.7152296-.306291 2.2359243-.3369201.3369201-.0306291 1.1026476-.1225164.9495021-.7044693-.1837746-.8576148-.8882439-1.6233423-1.5008259-1.8683751-.4594365-.2450328-1.1332767.0306291-1.4701968.1225164-.0306291 0-.0918873.0306291-.1531455.0306291.0612582-2.0215206.1225164-3.5529756.2144037-4.1655576.0918873-.6738402.6432111-1.8683751-.0612582-2.7259899-.4594365-.4900656-1.837746-1.3170513-3.3079428-1.3170513-.7963566 0-1.0107603.6432111-.7963566 1.3170513.306291.9495021.4288074 1.9908915.4288074 3.06291v4.6556232l-.4594365.0918873c-1.0107603.2144037-1.6539714.2450328-2.450328.2450328-.4594365 0-.8269857.1837746-.5819529.5819529.4594365 1.0720185 1.2557931 1.7764878 1.7458587 2.0521497.3981783.1837746 1.0413894.1225164 1.3783095.0306291-.7350984 3.5223465-2.6341026 7.8410496-4.1961867 10.107603Zm9.2806173.5513238c-.1225164.8882439.612582 2.6341026 1.5008259 3.3998301.306291.2450328.8882439.0306291 1.2557931-.2144037 1.0413894-.6432111 5.0844306-1.7152296 7.3816131-2.1746661.2144037.4594365.3981783.9495021.5513238 1.3476804.3369201.8576148 1.1945349.918873 1.6846005.6738402 1.7152296-1.0107603 1.6539714-2.2359243.6738402-3.7673793-.9495021-1.6539714-2.7872481-3.0322809-4.0430412-3.3079428-.7044693-.1225164-.8882439.1225164-.5819529.8576148.2144037.5206947.4594365 1.1332767.7350984 1.7458587-1.4089386.2144037-3.3079428.4594365-4.7781396.6738402 1.4089386-1.4701968 3.1854264-3.5223465 3.675492-4.4412195.306291-.5819529.9801312-1.4701968.7350984-2.0215206-.3675492-.8269857-1.1332767-1.8990042-2.7872481-2.450328-.5513238-.2144037-1.0107603.0918873-1.0107603.4288074 0 .5513238-.1531455 1.0720185-.5206947 2.5115862-.3369201 1.1639058-2.1746661 4.3187031-3.369201 5.513238-.3675492.3369201-1.0107603.6432111-1.1026476 1.225164Zm.3981783-8.7905517c-.4288074.5819529.0918873 1.0107603.612582.6738402.9801312-.5513238 1.9296333-1.0720185 2.9403936-2.450328.5819529-.7350984 1.3476804-1.5927132 1.8071169-2.450328.2756619-.5513238.5206947-.9495021.0306291-1.6539714-.306291-.4900656-1.1639058-1.5008259-2.2665534-1.8683751-.5819529-.1531455-.8269857.1531455-.8269857.7657275 0 2.8178772-.8269857 5.0844306-2.2971825 6.9834348Zm4.7781396-10.8427014c.5819529 2.3584407 2.6647317 8.6680353 4.2268158 11.3940252.4594365.8576148.8269857 1.3170513 1.7764878 1.3476804 1.1332767.0306291 2.6953608-.3675492 3.675492-.7657275.4288074-.2144037.8269857-.5819529.0612582-1.0107603-1.0720185-.6738402-2.450328-2.0827788-3.2160555-3.0322809-1.2864222-1.6539714-2.9403936-4.9619142-3.9205248-7.963566-.4900656-1.5927132-.9801312-1.837746-1.837746-1.7152296-.5819529.0918873-1.1026476.5206947-.7657275 1.7458587Z" data-gra="path-name-1"/>
    </g>
  </g>
  <mask id="a">
    <g fill="#fff" class="iconsvg-imagesvg icon_container">
      <path stroke-width="2" d="M0 0h161.20062275v161.20062275H0z" class="image-rect"/>
      <svg width="161.20062275" height="161.20062275" class="image-svg-svg bn" style="overflow:visible" viewBox="0 0 60 66.70372429">
        <g mask="url(#b)">
          <svg xmlns="http://www.w3.org/2000/svg" xmlns:xlink="http://www.w3.org/1999/xlink" xml:space="preserve" width="60" height="66.70372429" filter="url(#colorsb5429888553)" viewBox="9.5 5 81 90.05">
            <path d="M90.5 68.6V31.4c0-2.8-1.5-5.4-4-6.8L54 6c-1.2-.7-2.6-1-4-1s-2.7.3-4 1L13.5 24.6c-2.4 1.4-4 4-4 6.8v37.2c0 2.8 1.5 5.4 4 6.8L46 94c2.4 1.4 5.5 1.4 7.9 0l32.6-18.6c2.5-1.4 4-4 4-6.8z"/>
          </svg>
          <svg xmlns="http://www.w3.org/2000/svg" xmlns:xlink="http://www.w3.org/1999/xlink" xml:space="preserve" width="53" height="58.92162" x="3.5" y="3.89105215" viewBox="9.5 5 81 90.05000305">
            <path d="M90.5 68.6V31.4c0-2.8-1.5-5.4-4-6.8L54 6c-1.2-.7-2.6-1-4-1s-2.7.3-4 1L13.5 24.6c-2.4 1.4-4 4-4 6.8v37.2c0 2.8 1.5 5.4 4 6.8L46 94c2.4 1.4 5.5 1.4 7.9 0l32.6-18.6c2.5-1.4 4-4 4-6.8zm-7.2-4.2c0 2.8-1.5 5.5-4 6.9L54 85.7c-1.2.7-2.6 1.1-4 1.1s-2.8-.4-4-1.1L20.7 71.3c-2.5-1.4-4-4.1-4-6.9V35.6c0-2.8 1.5-5.5 4-6.9L46 14.3c2.5-1.4 5.6-1.4 8.1 0l25.2 14.4c2.5 1.4 4 4.1 4 6.9v28.8z"/>
          </svg>
        </g>
      </svg>
    </g>
    <g stroke="#000" stroke-linejoin="round" stroke-width="6" class="tp-name" data-gra="path-name">
      <path d="M51.84522428 73.82017166c2.16-.99 4.35-2.25 6.24-4.68l.03 6.09c0 .51-.18.93-.39 1.53-.15.6 0 1.02.15 1.2.27.36 1.23 1.98 2.55 1.95.9-.03 1.35-.96 1.26-2.1-.06-.57-.09-1.74-.12-3.3 1.65-.63 4.83-2.55 6.9-5.64-.03 3.03-.09 5.79-.21 7.47-.12 2.04 1.02 4.17 1.77 4.5.87.36 2.16-1.8 1.98-4.5-.09-1.14-.12-4.32-.09-7.89 1.02 1.83 2.1 3.36 3.09 4.68.6.93 1.38 1.11 2.52.96.63-.12 1.89-.33 3.33-.81.51-.12.63-.3.15-.57-.75-.36-2.61-1.68-3.81-2.91-1.56-1.47-3.27-3.57-4.92-5.94-.12-.15-.21-.27-.3-.39v-.15c1.62-.18 3.27-.36 4.47-.39 1.11-.03 1.59-.3 1.41-.87-.24-.78-1.02-1.59-1.68-1.92-.45-.33-1.08-.33-1.5-.21-.84.24-1.71.45-2.64.66.09-2.94.18-5.31.27-6 .09-1.08 0-1.47-.48-1.8-.6-.51-1.26-.78-2.91-.99-.87-.06-1.17.27-.93.99.33.96.39 1.68.39 2.64.06 1.59.09 3.6.09 5.79-1.26.21-2.46.33-3.48.42-.81.06-.06 1.26.48 2.04.42.63.78.63 2.1.33l-.09.33c-.51 1.65-3.09 5.94-5.91 9 0-2.16 0-4.77.03-7.32.6 1.08 1.11 2.28 1.8 2.79.87.57 2.07-.75 2.28-1.89.06-.78-.9-1.35-1.68-1.74-.78-.42-1.65-.72-2.4-.9.03-.33.03-.69.03-1.02.75-.12 1.32-.18 2.22-.21.36 0 .93-.24.72-.75-.33-.75-.57-1.29-1.08-1.86-.3-.36-1.29.03-1.62.15-.03 0-.12.03-.18.06.06-1.98.12-3.48.21-4.05.12-.66.66-1.77-.09-2.55-.42-.51-1.86-1.26-3.36-1.26-.87 0-1.11.57-.87 1.26.33.87.45 1.83.45 2.88l.03 4.44-1.47.27c-.99.18-1.92.27-2.7.27-.45 0-.63.18-.45.6.51 1.02 1.29 1.86 1.8 2.16.27.12.93 0 1.2-.18.51-.24.96-.42 1.44-.54-1.71 4.05-4.17 7.32-6.27 9.15-.54.48-.21.9.24.72Zm40.02 6.33c.78.06 1.38-.51 1.95-1.2.72-.87.72-1.74.72-2.73 0-1.83-.3-5.88 0-8.31.03-.51.63-.96.3-1.47-.39-.66-.93-.93-1.71-1.38-.39-.24-.69-.18-.9.03-.3.21-.48.3-1.14.51-.66.15-2.58.51-4.02.6-.39-.18-.9-.33-1.65-.39-.39-.03-.39.39-.15.72.39 1.14.18 9.6 0 10.83-.21.96 1.05 2.07 1.74 2.07.84-.03 1.14-.6 1.11-2.16v-2.88c.6-.06 1.89-.15 2.16-.15 1.02 0 1.08-.54.84-.93-.21-.48-.51-.87-1.02-1.08-.24-.09-1.14.09-1.41.15-.18.06-.36.09-.57.12 0-.42.03-.84.03-1.23.63-.06 1.77-.15 2.07-.15.96 0 1.05-.54.84-.93-.21-.48-.42-.84-.9-1.05-.24-.12-1.14.06-1.56.12-.15.03-.3.06-.42.06 0-.6.03-.99.03-1.05 0-.06.03-.15.06-.24.87-.15 2.01-.3 3.12-.42.03 2.19.06 5.94.06 7.59 0 1.17 0 1.5-.39 1.56-.54.06-.96.09-1.62.09-.48 0-.66.3-.33.45 1.53.72 1.59 1.65 2.04 2.22.21.27.36.6.72.63Zm-10.08-15.48c.6.81 1.02 1.35 1.98 1.11 2.58-.54 8.73-1.41 11.19-1.35.24 0 .6 0 .63-.54.06-.39-.15-.78-.54-1.2 1.65-1.17 2.94-2.49 3.96-3.75.63-.09 2.07-.54 2.46-.75-.36.6-1.47 2.37-2.22 3.45-1.2.24-2.4.48-3.15.57-.27.06-.51.24-.39.48.3.63.39.81.63 1.02.33.24.63.36 1.02.36.12 0 .63-.12 1.32-.3.06.45.09 1.02.15 1.68-1.17.15-2.34.3-3.42.36-.42.06-.66.09-.54.6.12.54.3.93.93 1.32.36.24.9.36 1.35.3.51-.06 1.14-.15 1.8-.27.03.66.06 1.32.06 2.01-1.2.15-2.4.24-3.09.3-.54.03-.66.36-.54.6.36.69 1.29 1.56 1.92 1.47.24-.06.93-.15 1.77-.27 0 1.77-.06 3.27-.18 3.87-.21.87-.57.99-.84 1.05-.57.09-.99.03-1.68.03-.24 0-.36.3-.03.48.99.63 1.47 1.32 2.07 2.55.54 1.11 1.5 1.02 1.98.57 1.74-1.5 1.5-2.7 1.56-4.38.03-.69 0-2.55-.03-4.53.45-.06.84-.09 1.11-.12.36.3.81.54 1.14.63 1.2.3 1.8-1.56 1.98-3.12.03-.48.06-1.17.12-1.89.93-.03 1.77 0 2.37.12.81.15 1.32-.57 1.23-1.05-.12-.69-.48-1.23-1.26-1.71-.3-.21-.84-.27-1.41-.21l-.69.09c.03-.48.09-.87.15-1.17.09-.51.48-.87.27-1.14-.51-.66-1.56-1.38-2.34-1.65-.48-.21-1.23.42-1.83.54-.36.09-.87.21-1.44.33 1.59-1.2 4.08-3.42 3.96-4.05-.12-.45-.87-.87-1.59-1.5-.39-.36-.66-.48-1.38 0-.39.24-.84.54-1.5.81.42-.66.72-1.2.96-1.59.39-.66.48-1.08.18-1.47-.66-.75-1.29-1.17-2.28-1.56-.45-.15-.81.09-.78.69.06 1.44-1.29 5.28-4.38 9.69-.66-.48-1.47-.18-2.31 0l-.69.15c.03-.39.06-.75.06-1.11 1.02-.12 1.92-.24 2.31-.24.66 0 1.08-.09 1.02-.66 0-.3-.42-1.14-1.02-1.47-.42-.18-.75-.18-1.14-.12-.15.03-.51.09-1.05.21.03-.36.03-.72.06-1.08 1.41-.21 2.7-.36 3.36-.36.45 0 .72-.42.54-.84-.12-.39-.3-.78-.63-1.17-.12-.18-.75-.63-1.41-.42-.36.09-1.02.21-1.8.39.03-.48.03-1.08.06-1.56.03-.66 0-.99-.33-1.23-.42-.48-1.77-.9-2.64-.81-.42.03-.6.54-.54.75.12.66.18 1.68.24 2.37 0 .33 0 .72.03 1.17-1.38.24-2.79.48-3.96.57-.42.06-.51.45-.33.75.33.63.99 1.47 1.68 1.35.45-.12 1.44-.3 2.64-.51v1.2l-2.88.57c-.45.06-.63.39-.45.63l.39.6c.33.42.54.63 1.02.57.3 0 1.05-.12 1.95-.24v1.17c-2.22.36-4.8.72-6.33.9-1.05.12-.96.48-.57.96Zm19.92-1.53c.36-.09.69-.12.96-.15.54-.03.81 0 .81.33v1.38l-1.74.3c-.09-.96.15-1.44-.03-1.86Zm.09 4.23 1.56-.18c-.06.63-.15 1.23-.24 1.8 0 .06-.03.09-.03.15-.3-.03-.75.06-1.23.15 0-.66-.03-1.32-.06-1.92Z"/>
      <path stroke-width="6.125819999999999" d="M54.86134085 101.72254487c1.1639058-.1837746 2.5115862-.6738402 3.7980084-1.3476804l1.8071169.8269857c-2.450328 1.4395677-5.513238 2.8791354-7.8410496 3.4917174-1.0720185.2756619-.6738402.7657275.1531455.7044693 2.8791354-.1837746 5.3600925-.7350984 7.5347586-1.5008259 0 .306291-.0306291.612582-.0918873.9495021-1.9602624.306291-3.8592666.5206947-4.7475105.4594365-1.0720185-.0612582.7350984 2.756619 1.9602624 2.3890698.3981783-.1225164 1.1639058-.2756619 2.0521497-.4288074-.9495021 1.9296333-2.8791354 3.9205248-5.6970126 5.5438671-.5819529.306291-.1837746.6738402.7963566.5206947 4.7475105-.8576148 7.0140639-3.3079428 8.4536316-6.1564491l.2144037-.5513238c.7657275-.1225164 1.4701968-.2144037 1.9296333-.306291.6432111-.0612582.7044693 0 .6432111.3369201-.3675492 1.3783095-.5819529 2.1746661-.8269857 2.8485063-.2756619.3369201-.4288074.3981783-.8269857.3981783-.4288074 0-.9801312-.0306291-1.5927132-.1225164-.3369201-.0612582-.6432111.2144037-.2450328.5819529 1.0107603.8882439 1.837746 1.6539714 2.3890698 2.4809571.4900656.5513238.8576148.8882439 1.7764878.2756619 1.3170513-.918873 1.3783095-1.5008259 1.6539714-2.2971825.3369201-1.1026476.5206947-2.8791354 1.3783095-4.9312851.1225164-.3981783-.918873-1.2557931-1.837746-1.8071169 1.4395677.5206947 2.6953608.9495021 3.4304592 1.1332767 1.0107603.2450328 1.4395677.306291 2.4809571.0612582 1.225164-.2756619 2.756619-1.3170513 3.7673793-2.1134079.2756619-.2756619.1225164-.5206947-.9495021-.612582-1.2864222-.1225164-3.981783-.4900656-5.4519798-.7350984-1.6846005-.2756619-3.369201-.612582-4.9619142-.9801312 1.1639058-.8882439 2.1134079-1.8071169 2.8485063-2.6647317.6432111-.7044693-2.2665534-2.4809571-3.1241682-2.1746661-.612582.2756619-1.6846005.4594365-2.756619.5513238-.5819529-.8882439-2.3584407-2.1134079-2.4196989-1.6233423-.306291 1.4089386-3.5223465 4.8393978-6.0645618 6.2789655-.306291.2450328-.0918873.6432111.3675492.5206947Zm-3.4304592-7.5347586c.2756619.7044693.9495021 1.5927132 1.837746 1.9296333.6738402.4900656 1.3170513-.4288074 1.6846005-1.0413894.5513238-.8576148.9801312-1.9602624 1.3783095-3.3079428.0306291-.0918873.0612582-.1837746.0612582-.2450328.2450328.0306291.4288074 0 .6432111-.0306291 1.3476804-.1225164 2.7872481-.306291 4.2574449-.5206947 0 .8269857-.0612582 1.5927132-.1531455 2.2052952-.1531455 1.3783095.7044693 2.1746661 1.7764878 2.6647317.8576148.5206947 1.5620841-.3981783 1.5620841-2.4809571 0-.918873 0-1.837746.0306291-2.7872481l2.144037-.2756619c1.7458587-.2756619 3.0935391-.4288074 3.7980084-.4900656.4594365-.0612582.4900656-.1531455.3981783.2144037-.0612582.1837746-.7350984 2.3584407-.8269857 2.6034735-.1531455.5206947-.0612582.9495021.5206947.5819529 1.225164-.8269857 3.5836047-1.7152296 4.4718486-1.9602624.918873-.306291 1.1945349-.5819529.7963566-1.5620841-.3675492-.9495021-1.837746-2.3890698-2.8178772-2.8178772-.7350984-.2756619-1.225164.1225164-1.6846005.2756619-.8882439.2144037-3.5836047.612582-6.7690311 1.0413894v-.1531455c0-.2450328.0918873-.5206947.0918873-.7963566 1.9602624-.2144037 3.9511539-.3675492 5.4213507-.3981783 1.4089386-.0306291-.3675492-3.2160555-1.531455-2.9403936-3.5529756.7657275-8.6680353 1.5008259-11.945349 1.5620841-1.1026476.0306291.9495021 3.0322809 2.1746661 2.6647317.5206947-.1531455 1.4089386-.306291 2.450328-.4594365.0306291.306291.0612582.612582.0612582.9495021-1.9908915.2450328-4.0124121.4594365-5.7582708.6432111l-.5513238-.3675492c-.6738402-.5206947-1.0107603-.306291-1.1332767.3981783-.1837746 1.3783095-1.0107603 2.756619-1.8683751 3.3998301-.5819529.5206947-.7657275.8576148-.5206947 1.5008259Zm4.594365.7350984c.918873.7044693 1.5008259 1.3170513 2.0827788 1.8071169.4288074.3981783.7657275.612582 1.0720185.306291 1.531455-1.5927132.612582-3.4610883-3.1547973-2.756619-.6432111.0918873-.2450328.4900656 0 .6432111Zm.9801312-2.3278116c.8576148.612582 1.4395677 1.1639058 1.8990042 1.4701968.4288074.3675492.7350984.5819529.9495021.2756619 1.3170513-1.4701968.0306291-3.0322809-2.8485063-2.2359243-.5206947.1531455-.1531455.3981783 0 .4900656Zm3.4610883 6.7690311c.3981783-.2450328.7350984-.5206947 1.0720185-.7657275 1.0413894-.0918873 1.7764878-.1837746 2.0215206-.2144037.5819529-.0306291.6432111.0612582.4288074.306291-.3675492.3675492-.918873.7963566-1.5620841 1.2557931Zm1.5927132 3.7980084c.4900656-.2144037.9801312-.4594365 1.4395677-.7044693.9801312.3981783 1.9908915.7963566 2.9403936 1.1639058-.306291.1225164-1.4089386.3675492-2.8485063.6432111-.3675492-.3675492-.918873-.7963566-1.531455-1.1026476Zm3.1241682-9.0662136c.9801312.8576148 1.5927132 1.4395677 2.2052952 1.837746.4288074.4288074.7657275.6432111 1.1026476.3369201 1.5620841-1.5927132.1225164-3.4304592-3.3079428-2.8178772-.612582.0612582-.1837746.4288074 0 .6432111Zm.3981783-2.5728444c-.4594365.1225164-.1225164.4900656.0918873.5819529.8576148.4288074 2.0215206 1.0720185 2.5728444 1.3783095.3981783.2450328.612582.2756619.8882439-.0612582 1.1639058-1.8990042-.7350984-2.7259899-3.5529756-1.8990042Zm15.2532918 18.683751c.4900656.5206947 1.5620841.612582 2.1134079-.3369201.8269857-1.3783095 2.6341026-7.1059512 3.7980084-13.0479966.2450328-1.1639058-.0918873-1.5620841-.5206947-.4288074-1.3476804 3.1241682-2.7872481 5.1763179-4.7781396 7.9329369-.5819529.7350984-1.2557931 1.1026476-1.7152296 1.1026476-.8269857 0-1.1026476.1837746-.9495021.8269857.3369201 1.3170513 1.2864222 3.0935391 2.0521497 3.9511539Zm-.0612582-21.2872245c.9801312.9801312 1.9908915 2.7259899 2.8178772 4.3493322.4288074.8269857 1.1026476.9801312 1.9908915.612582.4594365-.2144037 1.7764878-1.9296333 1.0107603-3.4304592-.7963566-1.5927132-3.3079428-2.6034735-5.513238-2.4196989-.918873.0918873-.7963566.3675492-.306291.8882439Zm4.4718486 17.3666997c-.4594365.6432111.2450328.8576148.6432111.612582 1.6539714-1.0107603 2.8791354-2.3584407 3.9511539-4.1042994l.0306291 5.2682052c0 .5819529-.1531455 1.0107603-.306291 1.6233423-.1837746.6432111 0 1.1026476.0918873 1.2864222.2756619.3981783 1.1639058 2.0827788 2.4809571 2.0521497.8269857-.0306291 1.3170513-.9801312 1.1945349-2.2052952-.1225164-1.1945349-.1531455-5.2375761-.1225164-9.5869083.1531455.3675492.306291.7350984.4594365 1.0107603.306291.5513238 1.1026476.8882439 1.8071169.3981783.7963566-.612582 1.2864222-1.9908915-.0612582-3.0322809-.5819529-.4288074-1.4089386-.8269857-2.2052952-1.1639058.0306291-1.1332767.0306291-2.2665534.0612582-3.3385719.918873-.1837746 1.7152296-.306291 2.2359243-.3369201.3369201-.0306291 1.1026476-.1225164.9495021-.7044693-.1837746-.8576148-.8882439-1.6233423-1.5008259-1.8683751-.4594365-.2450328-1.1332767.0306291-1.4701968.1225164-.0306291 0-.0918873.0306291-.1531455.0306291.0612582-2.0215206.1225164-3.5529756.2144037-4.1655576.0918873-.6738402.6432111-1.8683751-.0612582-2.7259899-.4594365-.4900656-1.837746-1.3170513-3.3079428-1.3170513-.7963566 0-1.0107603.6432111-.7963566 1.3170513.306291.9495021.4288074 1.9908915.4288074 3.06291v4.6556232l-.4594365.0918873c-1.0107603.2144037-1.6539714.2450328-2.450328.2450328-.4594365 0-.8269857.1837746-.5819529.5819529.4594365 1.0720185 1.2557931 1.7764878 1.7458587 2.0521497.3981783.1837746 1.0413894.1225164 1.3783095.0306291-.7350984 3.5223465-2.6341026 7.8410496-4.1961867 10.107603Zm9.2806173.5513238c-.1225164.8882439.612582 2.6341026 1.5008259 3.3998301.306291.2450328.8882439.0306291 1.2557931-.2144037 1.0413894-.6432111 5.0844306-1.7152296 7.3816131-2.1746661.2144037.4594365.3981783.9495021.5513238 1.3476804.3369201.8576148 1.1945349.918873 1.6846005.6738402 1.7152296-1.0107603 1.6539714-2.2359243.6738402-3.7673793-.9495021-1.6539714-2.7872481-3.0322809-4.0430412-3.3079428-.7044693-.1225164-.8882439.1225164-.5819529.8576148.2144037.5206947.4594365 1.1332767.7350984 1.7458587-1.4089386.2144037-3.3079428.4594365-4.7781396.6738402 1.4089386-1.4701968 3.1854264-3.5223465 3.675492-4.4412195.306291-.5819529.9801312-1.4701968.7350984-2.0215206-.3675492-.8269857-1.1332767-1.8990042-2.7872481-2.450328-.5513238-.2144037-1.0107603.0918873-1.0107603.4288074 0 .5513238-.1531455 1.0720185-.5206947 2.5115862-.3369201 1.1639058-2.1746661 4.3187031-3.369201 5.513238-.3675492.3369201-1.0107603.6432111-1.1026476 1.225164Zm.3981783-8.7905517c-.4288074.5819529.0918873 1.0107603.612582.6738402.9801312-.5513238 1.9296333-1.0720185 2.9403936-2.450328.5819529-.7350984 1.3476804-1.5927132 1.8071169-2.450328.2756619-.5513238.5206947-.9495021.0306291-1.6539714-.306291-.4900656-1.1639058-1.5008259-2.2665534-1.8683751-.5819529-.1531455-.8269857.1531455-.8269857.7657275 0 2.8178772-.8269857 5.0844306-2.2971825 6.9834348Zm4.7781396-10.8427014c.5819529 2.3584407 2.6647317 8.6680353 4.2268158 11.3940252.4594365.8576148.8269857 1.3170513 1.7764878 1.3476804 1.1332767.0306291 2.6953608-.3675492 3.675492-.7657275.4288074-.2144037.8269857-.5819529.0612582-1.0107603-1.0720185-.6738402-2.450328-2.0827788-3.2160555-3.0322809-1.2864222-1.6539714-2.9403936-4.9619142-3.9205248-7.963566-.4900656-1.5927132-.9801312-1.837746-1.837746-1.7152296-.5819529.0918873-1.1026476.5206947-.7657275 1.7458587Z" data-gra="path-name-1"/>
    </g>
  </mask>
</svg>
