<svg xmlns="http://www.w3.org/2000/svg" color-interpolation-filters="sRGB" style="margin:auto" version="1.0" viewBox="0 0 340 250">
  <g fill="#ff51f9" class="iconmbgsvg">
    <g mask="url(#a)" opacity=".55" transform="translate(113.75 76.291111)">
      <path fill="none" d="M0 0h112.5v97.41777939H0z" class="image-rect"/>
      <svg width="112.5" height="97.41777939" class="image-svg-svg primary" style="overflow:visible">
        <svg xmlns="http://www.w3.org/2000/svg" viewBox="0 0 61.09000015 52.90000153">
          <g data-name="图层 2">
            <g data-name="Vrstva 1">
              <path fill="#159f87" d="M45.81 0H15.27l15.27 26.45L45.81 0z"/>
              <path fill="#6db78c" d="M45.81 0 30.54 26.45 45.81 52.9l15.28-26.45L45.81 0z"/>
              <path fill="#037b68" d="M15.27 0 0 26.45 15.27 52.9l15.27-26.45L15.27 0z"/>
              <path fill="#159f87" d="M30.54 26.45 15.27 52.9h30.54L30.54 26.45z"/>
            </g>
          </g>
        </svg>
      </svg>
      <path fill="url(#b)" d="M0 0h124.5v109.41777802H0z" style="pointer-events:none" transform="translate(-6 -6)"/>
    </g>
    <g>
      <path fill="url(#c)" d="M23.66-13.2q0 4.16-1.56 5.85-1.56 1.69-3.77 1.69t-4.68-2.37q-2.47-2.37-2.79-6.47l-3.71 1.3q.13 6.18 3.28 9.56 3.16 3.38 7.9 3.38 4.81 0 8.32-3.02 3.51-3.03 3.51-9.52v-32.7h-6.5v32.3Zm19.24.72q1.04 6.5 5.95 9.81Q53.76.65 60.91.65q4.28 0 7.93-1.85 3.63-1.86 6.17-4.81 2.54-2.96 2.54-6.99 0-4.55-2.74-7.18-2.72-2.64-5.94-3.8-3.22-1.18-8.87-2.54l-1.3-.39q-4.17-1.04-6.6-2.44-2.44-1.4-2.44-4.26 0-3.64 2.99-5.39 2.99-1.76 7.08-1.76 9.63 1.31 11.51 7.93l4.23-1.3q-.72-5.59-5.17-8.8-4.46-3.22-10.82-3.22-10.6 0-13.23 3.12-2.63 3.12-2.63 9.69 0 3.89 2.37 6.33t5.2 3.64q2.83 1.21 7.44 2.5.85.26 1.62.33 3.32.72 5.63 1.49 2.31.78 4 2.31 1.68 1.53 1.68 4 0 3.9-3.25 5.75-3.25 1.86-7.67 1.86-4.28 0-8.31-2.41t-5.2-6.24l-4.23 1.3Z" class="tp-name" data-gra="path-name" transform="translate(127.64999914 140.27375221)"/>
      <path fill="url(#d)" d="M.19-1.92v-.85h1.08v.61q0 1.41 1.31 1.41 1.36 0 1.36-1.5v-6.33h1.17v6.28Q5.06.09 2.63.14.33.09.19-1.92Zm6.89-6.66h1.17V0H7.08v-8.58Zm4.55 0 4.31 6.94v-6.94h1.12V0h-1.31l-4.36-6.94h-.05V0h-1.12v-8.58h1.41Zm13.64 4.97h-2.63v-.98h3.75V0h-.75l-.28-1.08Q24.38.09 22.55.14q-1.74 0-2.67-.89-1.41-1.31-1.36-3.61.32-4.27 4.07-4.45 3.19.18 3.66 2.81h-1.12q-.47-1.78-2.58-1.83-2.67.19-2.82 3.52 0 3.56 2.86 3.56 1.04 0 1.79-.56.93-.75.89-2.3Zm9.18-2.48h-1.07q-.1-1.64-2.16-1.74-1.92.05-1.92 1.5 0 .94 1.03 1.08l2.44.56q1.92.47 1.92 2.35Q34.64.05 31.31.14q-1.83 0-2.58-.75-.93-.7-.89-2.16h1.13q.05 1.97 2.34 2.02 2.25-.05 2.3-1.45.19-1.18-1.88-1.55l-1.78-.38q-1.82-.51-1.82-2.06.14-2.53 3-2.62 3.23 0 3.32 2.72Zm8.49 1.82q-.19-3.37-3-3.56-2.86.14-3 3.56.14 3.33 3 3.47 2.81-.18 3-3.47Zm1.17 0Q43.83 0 39.94.14 36 0 35.72-4.27q.23-4.45 4.22-4.54 3.89.14 4.17 4.54Zm2.77-4.31 4.31 6.94v-6.94h1.12V0H51l-4.36-6.94h-.05V0h-1.12v-8.58h1.41Zm13.64 4.97h-2.63v-.98h3.75V0h-.75l-.28-1.08Q59.63.09 57.8.14q-1.74 0-2.67-.89-1.41-1.31-1.36-3.61.32-4.27 4.07-4.45 3.19.18 3.66 2.81h-1.12q-.47-1.78-2.58-1.83-2.67.19-2.82 3.52 0 3.56 2.86 3.56 1.04 0 1.79-.56.93-.75.89-2.3Z" class="tp-slogan" data-gra="path-slogan" transform="translate(139.08749962 155.73625374)"/>
    </g>
  </g>
  <defs>
    <linearGradient id="d" x1="0" x2="0" y1="1" y2="0">
      <stop offset="0%" stop-color="#ff51f9"/>
      <stop offset="50%" stop-color="#a348ff"/>
      <stop offset="100%" stop-color="#3978ff"/>
    </linearGradient>
    <linearGradient id="c" x1="0" x2="0" y1="1" y2="0">
      <stop offset="0%" stop-color="#ff51f9"/>
      <stop offset="50%" stop-color="#a348ff"/>
      <stop offset="100%" stop-color="#3978ff"/>
    </linearGradient>
  </defs>
  <defs>
    <linearGradient id="b" x1="0" x2="0" y1="1" y2="0">
      <stop offset="0%" stop-color="#ff51f9"/>
      <stop offset="50%" stop-color="#a348ff"/>
      <stop offset="100%" stop-color="#3978ff"/>
    </linearGradient>
    <filter id="e" filterUnits="userSpaceOnUse">
      <feColorMatrix values="0 0 0 0 0.99609375 0 0 0 0 0.99609375 0 0 0 0 0.99609375 0 0 0 1 0"/>
    </filter>
  </defs>
  <mask id="a">
    <g filter="url(#e)" opacity=".55">
      <path fill="#ff51f9" fill-opacity="0" stroke-width="2" d="M0 0h112.5v97.41777939H0z" class="image-rect"/>
      <svg width="112.5" height="97.41777939" class="image-svg-svg primary" style="overflow:visible">
        <svg xmlns="http://www.w3.org/2000/svg" viewBox="0 0 61.09000015 52.90000153">
          <g data-name="图层 2">
            <g data-name="Vrstva 1">
              <path fill="#159f87" d="M45.81 0H15.27l15.27 26.45L45.81 0z"/>
              <path fill="#6db78c" d="M45.81 0 30.54 26.45 45.81 52.9l15.28-26.45L45.81 0z"/>
              <path fill="#037b68" d="M15.27 0 0 26.45 15.27 52.9l15.27-26.45L15.27 0z"/>
              <path fill="#159f87" d="M30.54 26.45 15.27 52.9h30.54L30.54 26.45z"/>
            </g>
          </g>
        </svg>
      </svg>
    </g>
  </mask>
</svg>
