<svg xmlns="http://www.w3.org/2000/svg" color-interpolation-filters="sRGB" style="margin:auto" version="1.0" viewBox="0 0 340 250">
  <g fill="#333" class="iconmbgsvg">
    <g opacity=".55" transform="translate(113.75 54.38207245)">
      <path fill="none" d="M0 0h112.5v141.23584503H0z" class="image-rect"/>
      <svg width="112.5" height="141.23584503" class="image-svg-svg primary" style="overflow:visible">
        <svg xmlns="http://www.w3.org/2000/svg" viewBox="0 0 112.79000092 141.6000061">
          <path fill="#0089a4" d="M112.79 0H3.13v7.22h102.44V37.3l-49.85 63.22h46.72v19.22H21.15V96.92l-7.22 8.99v21.05h95.73V93.3H70.6l42.19-53.5V0z"/>
          <path fill="#7e318e" d="M7.22 134.38V104.3l49.85-63.22H10.34V21.86h81.3v22.82l7.22-9V14.64H3.13V48.3h39.06L0 101.8v39.8h109.66v-7.22H7.22z"/>
        </svg>
      </svg>
    </g>
    <g>
      <path d="M148.92000095 142.21874817q-8.88-.07-13.13-7.5l4.25-3.11q3.11 5.27 8.25 5.34 5.97 0 7.24-5.72.44-1.9.44-4.38v-33.13h6.03v33.71q0 9.45-6.03 13.07-2.92 1.72-7.05 1.72Zm39.11 0q-9.97-.07-16.7-7.05l3.56-4.13q5.07 5.27 11.87 5.84.7.07 1.33.07 6.73 0 9.08-4.13.95-1.71.95-3.68 0-1.78-.57-3.08t-1.72-2.22q-1.14-.92-2.44-1.62-1.3-.7-3.21-1.52l-6.85-2.99q-9.4-4.57-9.71-12.18 0-6.16 5.27-9.84 4.12-2.86 9.77-2.86 7.75 0 13.39 5.27.32.32.64.63l-3.17 3.88q-4.89-4.51-10.86-4.51t-8.12 3.81q-.83 1.46-.83 3.23 0 4 4.76 6.54 1.02.51 3.11 1.4l6.86 2.92q6.66 2.92 8.63 7.11 1.14 2.47 1.14 5.58 0 6.54-5.33 10.41-4.44 3.12-10.85 3.12Z" class="tp-name" data-gra="path-name"/>
      <path d="M139.27749962 155.11125v-.85h1.08v.61q0 1.41 1.31 1.41 1.36 0 1.36-1.5v-6.33h1.17v6.28q-.05 2.39-2.48 2.44-2.3-.05-2.44-2.06Zm6.89-6.66h1.17v8.58h-1.17v-8.58Zm4.55 0 4.31 6.94v-6.94h1.12v8.58h-1.31l-4.36-6.94h-.05v6.94h-1.12v-8.58h1.41Zm13.64 4.97h-2.63v-.98h3.75v4.59h-.75l-.28-1.08q-.98 1.17-2.81 1.22-1.74 0-2.67-.89-1.41-1.31-1.36-3.61.32-4.27 4.07-4.45 3.19.18 3.66 2.81h-1.12q-.47-1.78-2.58-1.83-2.67.19-2.82 3.52 0 3.56 2.86 3.56 1.04 0 1.79-.56.93-.75.89-2.3Zm9.18-2.48h-1.07q-.1-1.64-2.16-1.74-1.92.05-1.92 1.5 0 .94 1.03 1.08l2.44.56q1.92.47 1.92 2.35-.05 2.39-3.38 2.48-1.83 0-2.58-.75-.93-.7-.89-2.16h1.13q.05 1.97 2.34 2.02 2.25-.05 2.3-1.45.19-1.18-1.88-1.55l-1.78-.38q-1.82-.51-1.82-2.06.14-2.53 3-2.62 3.23 0 3.32 2.72Zm8.49 1.82q-.19-3.37-3-3.56-2.86.14-3 3.56.14 3.33 3 3.47 2.81-.18 3-3.47Zm1.17 0q-.28 4.27-4.17 4.41-3.94-.14-4.22-4.41.23-4.45 4.22-4.54 3.89.14 4.17 4.54Zm2.77-4.31 4.31 6.94v-6.94h1.12v8.58h-1.31l-4.36-6.94h-.05v6.94h-1.12v-8.58h1.41Zm13.64 4.97h-2.63v-.98h3.75v4.59h-.75l-.28-1.08q-.98 1.17-2.81 1.22-1.74 0-2.67-.89-1.41-1.31-1.36-3.61.32-4.27 4.07-4.45 3.19.18 3.66 2.81h-1.12q-.47-1.78-2.58-1.83-2.67.19-2.82 3.52 0 3.56 2.86 3.56 1.04 0 1.79-.56.93-.75.89-2.3Z" class="tp-slogan" data-gra="path-slogan"/>
    </g>
  </g>
</svg>
